%TF.GenerationSoftware,KiCad,Pcbnew,8.0.7*%
%TF.CreationDate,2025-02-16T19:40:28+01:00*%
%TF.ProjectId,STM32_dev_board,53544d33-325f-4646-9576-5f626f617264,rev?*%
%TF.SameCoordinates,Original*%
%TF.FileFunction,Copper,L3,Inr*%
%TF.FilePolarity,Positive*%
%FSLAX46Y46*%
G04 Gerber Fmt 4.6, Leading zero omitted, Abs format (unit mm)*
G04 Created by KiCad (PCBNEW 8.0.7) date 2025-02-16 19:40:28*
%MOMM*%
%LPD*%
G01*
G04 APERTURE LIST*
%ADD10C,0.100000*%
%ADD11C,0.150000*%
%ADD12C,0.300000*%
%ADD13C,0.400000*%
%TA.AperFunction,ComponentPad*%
%ADD14C,0.700000*%
%TD*%
%TA.AperFunction,ComponentPad*%
%ADD15C,4.400000*%
%TD*%
%TA.AperFunction,ComponentPad*%
%ADD16R,1.700000X1.700000*%
%TD*%
%TA.AperFunction,ComponentPad*%
%ADD17O,1.700000X1.700000*%
%TD*%
%TA.AperFunction,ComponentPad*%
%ADD18O,1.150000X1.800000*%
%TD*%
%TA.AperFunction,ComponentPad*%
%ADD19O,1.450000X2.000000*%
%TD*%
%TA.AperFunction,ViaPad*%
%ADD20C,0.700000*%
%TD*%
%TA.AperFunction,Profile*%
%ADD21C,0.050000*%
%TD*%
G04 APERTURE END LIST*
D10*
D11*
X177002200Y-166007200D02*
X285002200Y-166007200D01*
X285002200Y-198007200D01*
X177002200Y-198007200D01*
X177002200Y-166007200D01*
D10*
D11*
X10000000Y-10000000D02*
X287002200Y-10000000D01*
X287002200Y-200007200D01*
X10000000Y-200007200D01*
X10000000Y-10000000D01*
D10*
D11*
X12000000Y-12000000D02*
X285002200Y-12000000D01*
X285002200Y-198007200D01*
X12000000Y-198007200D01*
X12000000Y-12000000D01*
D10*
D11*
X60000000Y-12000000D02*
X60000000Y-10000000D01*
D10*
D11*
X110000000Y-12000000D02*
X110000000Y-10000000D01*
D10*
D11*
X160000000Y-12000000D02*
X160000000Y-10000000D01*
D10*
D11*
X210000000Y-12000000D02*
X210000000Y-10000000D01*
D10*
D11*
X260000000Y-12000000D02*
X260000000Y-10000000D01*
D10*
D11*
X36089160Y-11593604D02*
X35346303Y-11593604D01*
X35717731Y-11593604D02*
X35717731Y-10293604D01*
X35717731Y-10293604D02*
X35593922Y-10479319D01*
X35593922Y-10479319D02*
X35470112Y-10603128D01*
X35470112Y-10603128D02*
X35346303Y-10665033D01*
D10*
D11*
X85346303Y-10417414D02*
X85408207Y-10355509D01*
X85408207Y-10355509D02*
X85532017Y-10293604D01*
X85532017Y-10293604D02*
X85841541Y-10293604D01*
X85841541Y-10293604D02*
X85965350Y-10355509D01*
X85965350Y-10355509D02*
X86027255Y-10417414D01*
X86027255Y-10417414D02*
X86089160Y-10541223D01*
X86089160Y-10541223D02*
X86089160Y-10665033D01*
X86089160Y-10665033D02*
X86027255Y-10850747D01*
X86027255Y-10850747D02*
X85284398Y-11593604D01*
X85284398Y-11593604D02*
X86089160Y-11593604D01*
D10*
D11*
X135284398Y-10293604D02*
X136089160Y-10293604D01*
X136089160Y-10293604D02*
X135655826Y-10788842D01*
X135655826Y-10788842D02*
X135841541Y-10788842D01*
X135841541Y-10788842D02*
X135965350Y-10850747D01*
X135965350Y-10850747D02*
X136027255Y-10912652D01*
X136027255Y-10912652D02*
X136089160Y-11036461D01*
X136089160Y-11036461D02*
X136089160Y-11345985D01*
X136089160Y-11345985D02*
X136027255Y-11469795D01*
X136027255Y-11469795D02*
X135965350Y-11531700D01*
X135965350Y-11531700D02*
X135841541Y-11593604D01*
X135841541Y-11593604D02*
X135470112Y-11593604D01*
X135470112Y-11593604D02*
X135346303Y-11531700D01*
X135346303Y-11531700D02*
X135284398Y-11469795D01*
D10*
D11*
X185965350Y-10726938D02*
X185965350Y-11593604D01*
X185655826Y-10231700D02*
X185346303Y-11160271D01*
X185346303Y-11160271D02*
X186151064Y-11160271D01*
D10*
D11*
X236027255Y-10293604D02*
X235408207Y-10293604D01*
X235408207Y-10293604D02*
X235346303Y-10912652D01*
X235346303Y-10912652D02*
X235408207Y-10850747D01*
X235408207Y-10850747D02*
X235532017Y-10788842D01*
X235532017Y-10788842D02*
X235841541Y-10788842D01*
X235841541Y-10788842D02*
X235965350Y-10850747D01*
X235965350Y-10850747D02*
X236027255Y-10912652D01*
X236027255Y-10912652D02*
X236089160Y-11036461D01*
X236089160Y-11036461D02*
X236089160Y-11345985D01*
X236089160Y-11345985D02*
X236027255Y-11469795D01*
X236027255Y-11469795D02*
X235965350Y-11531700D01*
X235965350Y-11531700D02*
X235841541Y-11593604D01*
X235841541Y-11593604D02*
X235532017Y-11593604D01*
X235532017Y-11593604D02*
X235408207Y-11531700D01*
X235408207Y-11531700D02*
X235346303Y-11469795D01*
D10*
D11*
X285965350Y-10293604D02*
X285717731Y-10293604D01*
X285717731Y-10293604D02*
X285593922Y-10355509D01*
X285593922Y-10355509D02*
X285532017Y-10417414D01*
X285532017Y-10417414D02*
X285408207Y-10603128D01*
X285408207Y-10603128D02*
X285346303Y-10850747D01*
X285346303Y-10850747D02*
X285346303Y-11345985D01*
X285346303Y-11345985D02*
X285408207Y-11469795D01*
X285408207Y-11469795D02*
X285470112Y-11531700D01*
X285470112Y-11531700D02*
X285593922Y-11593604D01*
X285593922Y-11593604D02*
X285841541Y-11593604D01*
X285841541Y-11593604D02*
X285965350Y-11531700D01*
X285965350Y-11531700D02*
X286027255Y-11469795D01*
X286027255Y-11469795D02*
X286089160Y-11345985D01*
X286089160Y-11345985D02*
X286089160Y-11036461D01*
X286089160Y-11036461D02*
X286027255Y-10912652D01*
X286027255Y-10912652D02*
X285965350Y-10850747D01*
X285965350Y-10850747D02*
X285841541Y-10788842D01*
X285841541Y-10788842D02*
X285593922Y-10788842D01*
X285593922Y-10788842D02*
X285470112Y-10850747D01*
X285470112Y-10850747D02*
X285408207Y-10912652D01*
X285408207Y-10912652D02*
X285346303Y-11036461D01*
D10*
D11*
X60000000Y-198007200D02*
X60000000Y-200007200D01*
D10*
D11*
X110000000Y-198007200D02*
X110000000Y-200007200D01*
D10*
D11*
X160000000Y-198007200D02*
X160000000Y-200007200D01*
D10*
D11*
X210000000Y-198007200D02*
X210000000Y-200007200D01*
D10*
D11*
X260000000Y-198007200D02*
X260000000Y-200007200D01*
D10*
D11*
X36089160Y-199600804D02*
X35346303Y-199600804D01*
X35717731Y-199600804D02*
X35717731Y-198300804D01*
X35717731Y-198300804D02*
X35593922Y-198486519D01*
X35593922Y-198486519D02*
X35470112Y-198610328D01*
X35470112Y-198610328D02*
X35346303Y-198672233D01*
D10*
D11*
X85346303Y-198424614D02*
X85408207Y-198362709D01*
X85408207Y-198362709D02*
X85532017Y-198300804D01*
X85532017Y-198300804D02*
X85841541Y-198300804D01*
X85841541Y-198300804D02*
X85965350Y-198362709D01*
X85965350Y-198362709D02*
X86027255Y-198424614D01*
X86027255Y-198424614D02*
X86089160Y-198548423D01*
X86089160Y-198548423D02*
X86089160Y-198672233D01*
X86089160Y-198672233D02*
X86027255Y-198857947D01*
X86027255Y-198857947D02*
X85284398Y-199600804D01*
X85284398Y-199600804D02*
X86089160Y-199600804D01*
D10*
D11*
X135284398Y-198300804D02*
X136089160Y-198300804D01*
X136089160Y-198300804D02*
X135655826Y-198796042D01*
X135655826Y-198796042D02*
X135841541Y-198796042D01*
X135841541Y-198796042D02*
X135965350Y-198857947D01*
X135965350Y-198857947D02*
X136027255Y-198919852D01*
X136027255Y-198919852D02*
X136089160Y-199043661D01*
X136089160Y-199043661D02*
X136089160Y-199353185D01*
X136089160Y-199353185D02*
X136027255Y-199476995D01*
X136027255Y-199476995D02*
X135965350Y-199538900D01*
X135965350Y-199538900D02*
X135841541Y-199600804D01*
X135841541Y-199600804D02*
X135470112Y-199600804D01*
X135470112Y-199600804D02*
X135346303Y-199538900D01*
X135346303Y-199538900D02*
X135284398Y-199476995D01*
D10*
D11*
X185965350Y-198734138D02*
X185965350Y-199600804D01*
X185655826Y-198238900D02*
X185346303Y-199167471D01*
X185346303Y-199167471D02*
X186151064Y-199167471D01*
D10*
D11*
X236027255Y-198300804D02*
X235408207Y-198300804D01*
X235408207Y-198300804D02*
X235346303Y-198919852D01*
X235346303Y-198919852D02*
X235408207Y-198857947D01*
X235408207Y-198857947D02*
X235532017Y-198796042D01*
X235532017Y-198796042D02*
X235841541Y-198796042D01*
X235841541Y-198796042D02*
X235965350Y-198857947D01*
X235965350Y-198857947D02*
X236027255Y-198919852D01*
X236027255Y-198919852D02*
X236089160Y-199043661D01*
X236089160Y-199043661D02*
X236089160Y-199353185D01*
X236089160Y-199353185D02*
X236027255Y-199476995D01*
X236027255Y-199476995D02*
X235965350Y-199538900D01*
X235965350Y-199538900D02*
X235841541Y-199600804D01*
X235841541Y-199600804D02*
X235532017Y-199600804D01*
X235532017Y-199600804D02*
X235408207Y-199538900D01*
X235408207Y-199538900D02*
X235346303Y-199476995D01*
D10*
D11*
X285965350Y-198300804D02*
X285717731Y-198300804D01*
X285717731Y-198300804D02*
X285593922Y-198362709D01*
X285593922Y-198362709D02*
X285532017Y-198424614D01*
X285532017Y-198424614D02*
X285408207Y-198610328D01*
X285408207Y-198610328D02*
X285346303Y-198857947D01*
X285346303Y-198857947D02*
X285346303Y-199353185D01*
X285346303Y-199353185D02*
X285408207Y-199476995D01*
X285408207Y-199476995D02*
X285470112Y-199538900D01*
X285470112Y-199538900D02*
X285593922Y-199600804D01*
X285593922Y-199600804D02*
X285841541Y-199600804D01*
X285841541Y-199600804D02*
X285965350Y-199538900D01*
X285965350Y-199538900D02*
X286027255Y-199476995D01*
X286027255Y-199476995D02*
X286089160Y-199353185D01*
X286089160Y-199353185D02*
X286089160Y-199043661D01*
X286089160Y-199043661D02*
X286027255Y-198919852D01*
X286027255Y-198919852D02*
X285965350Y-198857947D01*
X285965350Y-198857947D02*
X285841541Y-198796042D01*
X285841541Y-198796042D02*
X285593922Y-198796042D01*
X285593922Y-198796042D02*
X285470112Y-198857947D01*
X285470112Y-198857947D02*
X285408207Y-198919852D01*
X285408207Y-198919852D02*
X285346303Y-199043661D01*
D10*
D11*
X10000000Y-60000000D02*
X12000000Y-60000000D01*
D10*
D11*
X10000000Y-110000000D02*
X12000000Y-110000000D01*
D10*
D11*
X10000000Y-160000000D02*
X12000000Y-160000000D01*
D10*
D11*
X10690476Y-35222176D02*
X11309523Y-35222176D01*
X10566666Y-35593604D02*
X10999999Y-34293604D01*
X10999999Y-34293604D02*
X11433333Y-35593604D01*
D10*
D11*
X11092857Y-84912652D02*
X11278571Y-84974557D01*
X11278571Y-84974557D02*
X11340476Y-85036461D01*
X11340476Y-85036461D02*
X11402380Y-85160271D01*
X11402380Y-85160271D02*
X11402380Y-85345985D01*
X11402380Y-85345985D02*
X11340476Y-85469795D01*
X11340476Y-85469795D02*
X11278571Y-85531700D01*
X11278571Y-85531700D02*
X11154761Y-85593604D01*
X11154761Y-85593604D02*
X10659523Y-85593604D01*
X10659523Y-85593604D02*
X10659523Y-84293604D01*
X10659523Y-84293604D02*
X11092857Y-84293604D01*
X11092857Y-84293604D02*
X11216666Y-84355509D01*
X11216666Y-84355509D02*
X11278571Y-84417414D01*
X11278571Y-84417414D02*
X11340476Y-84541223D01*
X11340476Y-84541223D02*
X11340476Y-84665033D01*
X11340476Y-84665033D02*
X11278571Y-84788842D01*
X11278571Y-84788842D02*
X11216666Y-84850747D01*
X11216666Y-84850747D02*
X11092857Y-84912652D01*
X11092857Y-84912652D02*
X10659523Y-84912652D01*
D10*
D11*
X11402380Y-135469795D02*
X11340476Y-135531700D01*
X11340476Y-135531700D02*
X11154761Y-135593604D01*
X11154761Y-135593604D02*
X11030952Y-135593604D01*
X11030952Y-135593604D02*
X10845238Y-135531700D01*
X10845238Y-135531700D02*
X10721428Y-135407890D01*
X10721428Y-135407890D02*
X10659523Y-135284080D01*
X10659523Y-135284080D02*
X10597619Y-135036461D01*
X10597619Y-135036461D02*
X10597619Y-134850747D01*
X10597619Y-134850747D02*
X10659523Y-134603128D01*
X10659523Y-134603128D02*
X10721428Y-134479319D01*
X10721428Y-134479319D02*
X10845238Y-134355509D01*
X10845238Y-134355509D02*
X11030952Y-134293604D01*
X11030952Y-134293604D02*
X11154761Y-134293604D01*
X11154761Y-134293604D02*
X11340476Y-134355509D01*
X11340476Y-134355509D02*
X11402380Y-134417414D01*
D10*
D11*
X10659523Y-185593604D02*
X10659523Y-184293604D01*
X10659523Y-184293604D02*
X10969047Y-184293604D01*
X10969047Y-184293604D02*
X11154761Y-184355509D01*
X11154761Y-184355509D02*
X11278571Y-184479319D01*
X11278571Y-184479319D02*
X11340476Y-184603128D01*
X11340476Y-184603128D02*
X11402380Y-184850747D01*
X11402380Y-184850747D02*
X11402380Y-185036461D01*
X11402380Y-185036461D02*
X11340476Y-185284080D01*
X11340476Y-185284080D02*
X11278571Y-185407890D01*
X11278571Y-185407890D02*
X11154761Y-185531700D01*
X11154761Y-185531700D02*
X10969047Y-185593604D01*
X10969047Y-185593604D02*
X10659523Y-185593604D01*
D10*
D11*
X287002200Y-60000000D02*
X285002200Y-60000000D01*
D10*
D11*
X287002200Y-110000000D02*
X285002200Y-110000000D01*
D10*
D11*
X287002200Y-160000000D02*
X285002200Y-160000000D01*
D10*
D11*
X285692676Y-35222176D02*
X286311723Y-35222176D01*
X285568866Y-35593604D02*
X286002199Y-34293604D01*
X286002199Y-34293604D02*
X286435533Y-35593604D01*
D10*
D11*
X286095057Y-84912652D02*
X286280771Y-84974557D01*
X286280771Y-84974557D02*
X286342676Y-85036461D01*
X286342676Y-85036461D02*
X286404580Y-85160271D01*
X286404580Y-85160271D02*
X286404580Y-85345985D01*
X286404580Y-85345985D02*
X286342676Y-85469795D01*
X286342676Y-85469795D02*
X286280771Y-85531700D01*
X286280771Y-85531700D02*
X286156961Y-85593604D01*
X286156961Y-85593604D02*
X285661723Y-85593604D01*
X285661723Y-85593604D02*
X285661723Y-84293604D01*
X285661723Y-84293604D02*
X286095057Y-84293604D01*
X286095057Y-84293604D02*
X286218866Y-84355509D01*
X286218866Y-84355509D02*
X286280771Y-84417414D01*
X286280771Y-84417414D02*
X286342676Y-84541223D01*
X286342676Y-84541223D02*
X286342676Y-84665033D01*
X286342676Y-84665033D02*
X286280771Y-84788842D01*
X286280771Y-84788842D02*
X286218866Y-84850747D01*
X286218866Y-84850747D02*
X286095057Y-84912652D01*
X286095057Y-84912652D02*
X285661723Y-84912652D01*
D10*
D11*
X286404580Y-135469795D02*
X286342676Y-135531700D01*
X286342676Y-135531700D02*
X286156961Y-135593604D01*
X286156961Y-135593604D02*
X286033152Y-135593604D01*
X286033152Y-135593604D02*
X285847438Y-135531700D01*
X285847438Y-135531700D02*
X285723628Y-135407890D01*
X285723628Y-135407890D02*
X285661723Y-135284080D01*
X285661723Y-135284080D02*
X285599819Y-135036461D01*
X285599819Y-135036461D02*
X285599819Y-134850747D01*
X285599819Y-134850747D02*
X285661723Y-134603128D01*
X285661723Y-134603128D02*
X285723628Y-134479319D01*
X285723628Y-134479319D02*
X285847438Y-134355509D01*
X285847438Y-134355509D02*
X286033152Y-134293604D01*
X286033152Y-134293604D02*
X286156961Y-134293604D01*
X286156961Y-134293604D02*
X286342676Y-134355509D01*
X286342676Y-134355509D02*
X286404580Y-134417414D01*
D10*
D11*
X285661723Y-185593604D02*
X285661723Y-184293604D01*
X285661723Y-184293604D02*
X285971247Y-184293604D01*
X285971247Y-184293604D02*
X286156961Y-184355509D01*
X286156961Y-184355509D02*
X286280771Y-184479319D01*
X286280771Y-184479319D02*
X286342676Y-184603128D01*
X286342676Y-184603128D02*
X286404580Y-184850747D01*
X286404580Y-184850747D02*
X286404580Y-185036461D01*
X286404580Y-185036461D02*
X286342676Y-185284080D01*
X286342676Y-185284080D02*
X286280771Y-185407890D01*
X286280771Y-185407890D02*
X286156961Y-185531700D01*
X286156961Y-185531700D02*
X285971247Y-185593604D01*
X285971247Y-185593604D02*
X285661723Y-185593604D01*
D10*
D11*
X200458026Y-193793328D02*
X200458026Y-192293328D01*
X200458026Y-192293328D02*
X200815169Y-192293328D01*
X200815169Y-192293328D02*
X201029455Y-192364757D01*
X201029455Y-192364757D02*
X201172312Y-192507614D01*
X201172312Y-192507614D02*
X201243741Y-192650471D01*
X201243741Y-192650471D02*
X201315169Y-192936185D01*
X201315169Y-192936185D02*
X201315169Y-193150471D01*
X201315169Y-193150471D02*
X201243741Y-193436185D01*
X201243741Y-193436185D02*
X201172312Y-193579042D01*
X201172312Y-193579042D02*
X201029455Y-193721900D01*
X201029455Y-193721900D02*
X200815169Y-193793328D01*
X200815169Y-193793328D02*
X200458026Y-193793328D01*
X202600884Y-193793328D02*
X202600884Y-193007614D01*
X202600884Y-193007614D02*
X202529455Y-192864757D01*
X202529455Y-192864757D02*
X202386598Y-192793328D01*
X202386598Y-192793328D02*
X202100884Y-192793328D01*
X202100884Y-192793328D02*
X201958026Y-192864757D01*
X202600884Y-193721900D02*
X202458026Y-193793328D01*
X202458026Y-193793328D02*
X202100884Y-193793328D01*
X202100884Y-193793328D02*
X201958026Y-193721900D01*
X201958026Y-193721900D02*
X201886598Y-193579042D01*
X201886598Y-193579042D02*
X201886598Y-193436185D01*
X201886598Y-193436185D02*
X201958026Y-193293328D01*
X201958026Y-193293328D02*
X202100884Y-193221900D01*
X202100884Y-193221900D02*
X202458026Y-193221900D01*
X202458026Y-193221900D02*
X202600884Y-193150471D01*
X203100884Y-192793328D02*
X203672312Y-192793328D01*
X203315169Y-192293328D02*
X203315169Y-193579042D01*
X203315169Y-193579042D02*
X203386598Y-193721900D01*
X203386598Y-193721900D02*
X203529455Y-193793328D01*
X203529455Y-193793328D02*
X203672312Y-193793328D01*
X204743741Y-193721900D02*
X204600884Y-193793328D01*
X204600884Y-193793328D02*
X204315170Y-193793328D01*
X204315170Y-193793328D02*
X204172312Y-193721900D01*
X204172312Y-193721900D02*
X204100884Y-193579042D01*
X204100884Y-193579042D02*
X204100884Y-193007614D01*
X204100884Y-193007614D02*
X204172312Y-192864757D01*
X204172312Y-192864757D02*
X204315170Y-192793328D01*
X204315170Y-192793328D02*
X204600884Y-192793328D01*
X204600884Y-192793328D02*
X204743741Y-192864757D01*
X204743741Y-192864757D02*
X204815170Y-193007614D01*
X204815170Y-193007614D02*
X204815170Y-193150471D01*
X204815170Y-193150471D02*
X204100884Y-193293328D01*
X205458026Y-193650471D02*
X205529455Y-193721900D01*
X205529455Y-193721900D02*
X205458026Y-193793328D01*
X205458026Y-193793328D02*
X205386598Y-193721900D01*
X205386598Y-193721900D02*
X205458026Y-193650471D01*
X205458026Y-193650471D02*
X205458026Y-193793328D01*
X205458026Y-192864757D02*
X205529455Y-192936185D01*
X205529455Y-192936185D02*
X205458026Y-193007614D01*
X205458026Y-193007614D02*
X205386598Y-192936185D01*
X205386598Y-192936185D02*
X205458026Y-192864757D01*
X205458026Y-192864757D02*
X205458026Y-193007614D01*
D10*
D11*
X177002200Y-194507200D02*
X285002200Y-194507200D01*
D10*
D11*
X178458026Y-196593328D02*
X178458026Y-195093328D01*
X179315169Y-196593328D02*
X178672312Y-195736185D01*
X179315169Y-195093328D02*
X178458026Y-195950471D01*
X179958026Y-196593328D02*
X179958026Y-195593328D01*
X179958026Y-195093328D02*
X179886598Y-195164757D01*
X179886598Y-195164757D02*
X179958026Y-195236185D01*
X179958026Y-195236185D02*
X180029455Y-195164757D01*
X180029455Y-195164757D02*
X179958026Y-195093328D01*
X179958026Y-195093328D02*
X179958026Y-195236185D01*
X181529455Y-196450471D02*
X181458027Y-196521900D01*
X181458027Y-196521900D02*
X181243741Y-196593328D01*
X181243741Y-196593328D02*
X181100884Y-196593328D01*
X181100884Y-196593328D02*
X180886598Y-196521900D01*
X180886598Y-196521900D02*
X180743741Y-196379042D01*
X180743741Y-196379042D02*
X180672312Y-196236185D01*
X180672312Y-196236185D02*
X180600884Y-195950471D01*
X180600884Y-195950471D02*
X180600884Y-195736185D01*
X180600884Y-195736185D02*
X180672312Y-195450471D01*
X180672312Y-195450471D02*
X180743741Y-195307614D01*
X180743741Y-195307614D02*
X180886598Y-195164757D01*
X180886598Y-195164757D02*
X181100884Y-195093328D01*
X181100884Y-195093328D02*
X181243741Y-195093328D01*
X181243741Y-195093328D02*
X181458027Y-195164757D01*
X181458027Y-195164757D02*
X181529455Y-195236185D01*
X182815170Y-196593328D02*
X182815170Y-195807614D01*
X182815170Y-195807614D02*
X182743741Y-195664757D01*
X182743741Y-195664757D02*
X182600884Y-195593328D01*
X182600884Y-195593328D02*
X182315170Y-195593328D01*
X182315170Y-195593328D02*
X182172312Y-195664757D01*
X182815170Y-196521900D02*
X182672312Y-196593328D01*
X182672312Y-196593328D02*
X182315170Y-196593328D01*
X182315170Y-196593328D02*
X182172312Y-196521900D01*
X182172312Y-196521900D02*
X182100884Y-196379042D01*
X182100884Y-196379042D02*
X182100884Y-196236185D01*
X182100884Y-196236185D02*
X182172312Y-196093328D01*
X182172312Y-196093328D02*
X182315170Y-196021900D01*
X182315170Y-196021900D02*
X182672312Y-196021900D01*
X182672312Y-196021900D02*
X182815170Y-195950471D01*
X184172313Y-196593328D02*
X184172313Y-195093328D01*
X184172313Y-196521900D02*
X184029455Y-196593328D01*
X184029455Y-196593328D02*
X183743741Y-196593328D01*
X183743741Y-196593328D02*
X183600884Y-196521900D01*
X183600884Y-196521900D02*
X183529455Y-196450471D01*
X183529455Y-196450471D02*
X183458027Y-196307614D01*
X183458027Y-196307614D02*
X183458027Y-195879042D01*
X183458027Y-195879042D02*
X183529455Y-195736185D01*
X183529455Y-195736185D02*
X183600884Y-195664757D01*
X183600884Y-195664757D02*
X183743741Y-195593328D01*
X183743741Y-195593328D02*
X184029455Y-195593328D01*
X184029455Y-195593328D02*
X184172313Y-195664757D01*
X186029455Y-195807614D02*
X186529455Y-195807614D01*
X186743741Y-196593328D02*
X186029455Y-196593328D01*
X186029455Y-196593328D02*
X186029455Y-195093328D01*
X186029455Y-195093328D02*
X186743741Y-195093328D01*
X187386598Y-196450471D02*
X187458027Y-196521900D01*
X187458027Y-196521900D02*
X187386598Y-196593328D01*
X187386598Y-196593328D02*
X187315170Y-196521900D01*
X187315170Y-196521900D02*
X187386598Y-196450471D01*
X187386598Y-196450471D02*
X187386598Y-196593328D01*
X188100884Y-196593328D02*
X188100884Y-195093328D01*
X188100884Y-195093328D02*
X188458027Y-195093328D01*
X188458027Y-195093328D02*
X188672313Y-195164757D01*
X188672313Y-195164757D02*
X188815170Y-195307614D01*
X188815170Y-195307614D02*
X188886599Y-195450471D01*
X188886599Y-195450471D02*
X188958027Y-195736185D01*
X188958027Y-195736185D02*
X188958027Y-195950471D01*
X188958027Y-195950471D02*
X188886599Y-196236185D01*
X188886599Y-196236185D02*
X188815170Y-196379042D01*
X188815170Y-196379042D02*
X188672313Y-196521900D01*
X188672313Y-196521900D02*
X188458027Y-196593328D01*
X188458027Y-196593328D02*
X188100884Y-196593328D01*
X189600884Y-196450471D02*
X189672313Y-196521900D01*
X189672313Y-196521900D02*
X189600884Y-196593328D01*
X189600884Y-196593328D02*
X189529456Y-196521900D01*
X189529456Y-196521900D02*
X189600884Y-196450471D01*
X189600884Y-196450471D02*
X189600884Y-196593328D01*
X190243742Y-196164757D02*
X190958028Y-196164757D01*
X190100885Y-196593328D02*
X190600885Y-195093328D01*
X190600885Y-195093328D02*
X191100885Y-196593328D01*
X191600884Y-196450471D02*
X191672313Y-196521900D01*
X191672313Y-196521900D02*
X191600884Y-196593328D01*
X191600884Y-196593328D02*
X191529456Y-196521900D01*
X191529456Y-196521900D02*
X191600884Y-196450471D01*
X191600884Y-196450471D02*
X191600884Y-196593328D01*
X193672313Y-195736185D02*
X193529456Y-195664757D01*
X193529456Y-195664757D02*
X193458027Y-195593328D01*
X193458027Y-195593328D02*
X193386599Y-195450471D01*
X193386599Y-195450471D02*
X193386599Y-195379042D01*
X193386599Y-195379042D02*
X193458027Y-195236185D01*
X193458027Y-195236185D02*
X193529456Y-195164757D01*
X193529456Y-195164757D02*
X193672313Y-195093328D01*
X193672313Y-195093328D02*
X193958027Y-195093328D01*
X193958027Y-195093328D02*
X194100885Y-195164757D01*
X194100885Y-195164757D02*
X194172313Y-195236185D01*
X194172313Y-195236185D02*
X194243742Y-195379042D01*
X194243742Y-195379042D02*
X194243742Y-195450471D01*
X194243742Y-195450471D02*
X194172313Y-195593328D01*
X194172313Y-195593328D02*
X194100885Y-195664757D01*
X194100885Y-195664757D02*
X193958027Y-195736185D01*
X193958027Y-195736185D02*
X193672313Y-195736185D01*
X193672313Y-195736185D02*
X193529456Y-195807614D01*
X193529456Y-195807614D02*
X193458027Y-195879042D01*
X193458027Y-195879042D02*
X193386599Y-196021900D01*
X193386599Y-196021900D02*
X193386599Y-196307614D01*
X193386599Y-196307614D02*
X193458027Y-196450471D01*
X193458027Y-196450471D02*
X193529456Y-196521900D01*
X193529456Y-196521900D02*
X193672313Y-196593328D01*
X193672313Y-196593328D02*
X193958027Y-196593328D01*
X193958027Y-196593328D02*
X194100885Y-196521900D01*
X194100885Y-196521900D02*
X194172313Y-196450471D01*
X194172313Y-196450471D02*
X194243742Y-196307614D01*
X194243742Y-196307614D02*
X194243742Y-196021900D01*
X194243742Y-196021900D02*
X194172313Y-195879042D01*
X194172313Y-195879042D02*
X194100885Y-195807614D01*
X194100885Y-195807614D02*
X193958027Y-195736185D01*
X194886598Y-196450471D02*
X194958027Y-196521900D01*
X194958027Y-196521900D02*
X194886598Y-196593328D01*
X194886598Y-196593328D02*
X194815170Y-196521900D01*
X194815170Y-196521900D02*
X194886598Y-196450471D01*
X194886598Y-196450471D02*
X194886598Y-196593328D01*
X195886599Y-195093328D02*
X196029456Y-195093328D01*
X196029456Y-195093328D02*
X196172313Y-195164757D01*
X196172313Y-195164757D02*
X196243742Y-195236185D01*
X196243742Y-195236185D02*
X196315170Y-195379042D01*
X196315170Y-195379042D02*
X196386599Y-195664757D01*
X196386599Y-195664757D02*
X196386599Y-196021900D01*
X196386599Y-196021900D02*
X196315170Y-196307614D01*
X196315170Y-196307614D02*
X196243742Y-196450471D01*
X196243742Y-196450471D02*
X196172313Y-196521900D01*
X196172313Y-196521900D02*
X196029456Y-196593328D01*
X196029456Y-196593328D02*
X195886599Y-196593328D01*
X195886599Y-196593328D02*
X195743742Y-196521900D01*
X195743742Y-196521900D02*
X195672313Y-196450471D01*
X195672313Y-196450471D02*
X195600884Y-196307614D01*
X195600884Y-196307614D02*
X195529456Y-196021900D01*
X195529456Y-196021900D02*
X195529456Y-195664757D01*
X195529456Y-195664757D02*
X195600884Y-195379042D01*
X195600884Y-195379042D02*
X195672313Y-195236185D01*
X195672313Y-195236185D02*
X195743742Y-195164757D01*
X195743742Y-195164757D02*
X195886599Y-195093328D01*
X197029455Y-196450471D02*
X197100884Y-196521900D01*
X197100884Y-196521900D02*
X197029455Y-196593328D01*
X197029455Y-196593328D02*
X196958027Y-196521900D01*
X196958027Y-196521900D02*
X197029455Y-196450471D01*
X197029455Y-196450471D02*
X197029455Y-196593328D01*
X197600884Y-195093328D02*
X198600884Y-195093328D01*
X198600884Y-195093328D02*
X197958027Y-196593328D01*
D10*
D11*
X177002200Y-191507200D02*
X285002200Y-191507200D01*
D10*
D12*
X264413853Y-193785528D02*
X263913853Y-193071242D01*
X263556710Y-193785528D02*
X263556710Y-192285528D01*
X263556710Y-192285528D02*
X264128139Y-192285528D01*
X264128139Y-192285528D02*
X264270996Y-192356957D01*
X264270996Y-192356957D02*
X264342425Y-192428385D01*
X264342425Y-192428385D02*
X264413853Y-192571242D01*
X264413853Y-192571242D02*
X264413853Y-192785528D01*
X264413853Y-192785528D02*
X264342425Y-192928385D01*
X264342425Y-192928385D02*
X264270996Y-192999814D01*
X264270996Y-192999814D02*
X264128139Y-193071242D01*
X264128139Y-193071242D02*
X263556710Y-193071242D01*
X265628139Y-193714100D02*
X265485282Y-193785528D01*
X265485282Y-193785528D02*
X265199568Y-193785528D01*
X265199568Y-193785528D02*
X265056710Y-193714100D01*
X265056710Y-193714100D02*
X264985282Y-193571242D01*
X264985282Y-193571242D02*
X264985282Y-192999814D01*
X264985282Y-192999814D02*
X265056710Y-192856957D01*
X265056710Y-192856957D02*
X265199568Y-192785528D01*
X265199568Y-192785528D02*
X265485282Y-192785528D01*
X265485282Y-192785528D02*
X265628139Y-192856957D01*
X265628139Y-192856957D02*
X265699568Y-192999814D01*
X265699568Y-192999814D02*
X265699568Y-193142671D01*
X265699568Y-193142671D02*
X264985282Y-193285528D01*
X266199567Y-192785528D02*
X266556710Y-193785528D01*
X266556710Y-193785528D02*
X266913853Y-192785528D01*
X267485281Y-193642671D02*
X267556710Y-193714100D01*
X267556710Y-193714100D02*
X267485281Y-193785528D01*
X267485281Y-193785528D02*
X267413853Y-193714100D01*
X267413853Y-193714100D02*
X267485281Y-193642671D01*
X267485281Y-193642671D02*
X267485281Y-193785528D01*
X267485281Y-192856957D02*
X267556710Y-192928385D01*
X267556710Y-192928385D02*
X267485281Y-192999814D01*
X267485281Y-192999814D02*
X267413853Y-192928385D01*
X267413853Y-192928385D02*
X267485281Y-192856957D01*
X267485281Y-192856957D02*
X267485281Y-192999814D01*
D10*
D11*
X178386598Y-193721900D02*
X178600884Y-193793328D01*
X178600884Y-193793328D02*
X178958026Y-193793328D01*
X178958026Y-193793328D02*
X179100884Y-193721900D01*
X179100884Y-193721900D02*
X179172312Y-193650471D01*
X179172312Y-193650471D02*
X179243741Y-193507614D01*
X179243741Y-193507614D02*
X179243741Y-193364757D01*
X179243741Y-193364757D02*
X179172312Y-193221900D01*
X179172312Y-193221900D02*
X179100884Y-193150471D01*
X179100884Y-193150471D02*
X178958026Y-193079042D01*
X178958026Y-193079042D02*
X178672312Y-193007614D01*
X178672312Y-193007614D02*
X178529455Y-192936185D01*
X178529455Y-192936185D02*
X178458026Y-192864757D01*
X178458026Y-192864757D02*
X178386598Y-192721900D01*
X178386598Y-192721900D02*
X178386598Y-192579042D01*
X178386598Y-192579042D02*
X178458026Y-192436185D01*
X178458026Y-192436185D02*
X178529455Y-192364757D01*
X178529455Y-192364757D02*
X178672312Y-192293328D01*
X178672312Y-192293328D02*
X179029455Y-192293328D01*
X179029455Y-192293328D02*
X179243741Y-192364757D01*
X179886597Y-193793328D02*
X179886597Y-192793328D01*
X179886597Y-192293328D02*
X179815169Y-192364757D01*
X179815169Y-192364757D02*
X179886597Y-192436185D01*
X179886597Y-192436185D02*
X179958026Y-192364757D01*
X179958026Y-192364757D02*
X179886597Y-192293328D01*
X179886597Y-192293328D02*
X179886597Y-192436185D01*
X180458026Y-192793328D02*
X181243741Y-192793328D01*
X181243741Y-192793328D02*
X180458026Y-193793328D01*
X180458026Y-193793328D02*
X181243741Y-193793328D01*
X182386598Y-193721900D02*
X182243741Y-193793328D01*
X182243741Y-193793328D02*
X181958027Y-193793328D01*
X181958027Y-193793328D02*
X181815169Y-193721900D01*
X181815169Y-193721900D02*
X181743741Y-193579042D01*
X181743741Y-193579042D02*
X181743741Y-193007614D01*
X181743741Y-193007614D02*
X181815169Y-192864757D01*
X181815169Y-192864757D02*
X181958027Y-192793328D01*
X181958027Y-192793328D02*
X182243741Y-192793328D01*
X182243741Y-192793328D02*
X182386598Y-192864757D01*
X182386598Y-192864757D02*
X182458027Y-193007614D01*
X182458027Y-193007614D02*
X182458027Y-193150471D01*
X182458027Y-193150471D02*
X181743741Y-193293328D01*
X183100883Y-193650471D02*
X183172312Y-193721900D01*
X183172312Y-193721900D02*
X183100883Y-193793328D01*
X183100883Y-193793328D02*
X183029455Y-193721900D01*
X183029455Y-193721900D02*
X183100883Y-193650471D01*
X183100883Y-193650471D02*
X183100883Y-193793328D01*
X183100883Y-192864757D02*
X183172312Y-192936185D01*
X183172312Y-192936185D02*
X183100883Y-193007614D01*
X183100883Y-193007614D02*
X183029455Y-192936185D01*
X183029455Y-192936185D02*
X183100883Y-192864757D01*
X183100883Y-192864757D02*
X183100883Y-193007614D01*
X184886598Y-193364757D02*
X185600884Y-193364757D01*
X184743741Y-193793328D02*
X185243741Y-192293328D01*
X185243741Y-192293328D02*
X185743741Y-193793328D01*
X186886598Y-192793328D02*
X186886598Y-193793328D01*
X186529455Y-192221900D02*
X186172312Y-193293328D01*
X186172312Y-193293328D02*
X187100883Y-193293328D01*
D10*
D11*
X263458026Y-196593328D02*
X263458026Y-195093328D01*
X264815170Y-196593328D02*
X264815170Y-195093328D01*
X264815170Y-196521900D02*
X264672312Y-196593328D01*
X264672312Y-196593328D02*
X264386598Y-196593328D01*
X264386598Y-196593328D02*
X264243741Y-196521900D01*
X264243741Y-196521900D02*
X264172312Y-196450471D01*
X264172312Y-196450471D02*
X264100884Y-196307614D01*
X264100884Y-196307614D02*
X264100884Y-195879042D01*
X264100884Y-195879042D02*
X264172312Y-195736185D01*
X264172312Y-195736185D02*
X264243741Y-195664757D01*
X264243741Y-195664757D02*
X264386598Y-195593328D01*
X264386598Y-195593328D02*
X264672312Y-195593328D01*
X264672312Y-195593328D02*
X264815170Y-195664757D01*
X265529455Y-196450471D02*
X265600884Y-196521900D01*
X265600884Y-196521900D02*
X265529455Y-196593328D01*
X265529455Y-196593328D02*
X265458027Y-196521900D01*
X265458027Y-196521900D02*
X265529455Y-196450471D01*
X265529455Y-196450471D02*
X265529455Y-196593328D01*
X265529455Y-195664757D02*
X265600884Y-195736185D01*
X265600884Y-195736185D02*
X265529455Y-195807614D01*
X265529455Y-195807614D02*
X265458027Y-195736185D01*
X265458027Y-195736185D02*
X265529455Y-195664757D01*
X265529455Y-195664757D02*
X265529455Y-195807614D01*
X268172313Y-196593328D02*
X267315170Y-196593328D01*
X267743741Y-196593328D02*
X267743741Y-195093328D01*
X267743741Y-195093328D02*
X267600884Y-195307614D01*
X267600884Y-195307614D02*
X267458027Y-195450471D01*
X267458027Y-195450471D02*
X267315170Y-195521900D01*
X269886598Y-195021900D02*
X268600884Y-196950471D01*
X271172313Y-196593328D02*
X270315170Y-196593328D01*
X270743741Y-196593328D02*
X270743741Y-195093328D01*
X270743741Y-195093328D02*
X270600884Y-195307614D01*
X270600884Y-195307614D02*
X270458027Y-195450471D01*
X270458027Y-195450471D02*
X270315170Y-195521900D01*
D10*
D11*
X177002200Y-187507200D02*
X285002200Y-187507200D01*
D10*
D13*
X178693928Y-188211638D02*
X179836785Y-188211638D01*
X179015357Y-190211638D02*
X179265357Y-188211638D01*
X180253452Y-190211638D02*
X180420119Y-188878304D01*
X180503452Y-188211638D02*
X180396309Y-188306876D01*
X180396309Y-188306876D02*
X180479643Y-188402114D01*
X180479643Y-188402114D02*
X180586786Y-188306876D01*
X180586786Y-188306876D02*
X180503452Y-188211638D01*
X180503452Y-188211638D02*
X180479643Y-188402114D01*
X181086786Y-188878304D02*
X181848690Y-188878304D01*
X181455833Y-188211638D02*
X181241548Y-189925923D01*
X181241548Y-189925923D02*
X181312976Y-190116400D01*
X181312976Y-190116400D02*
X181491548Y-190211638D01*
X181491548Y-190211638D02*
X181682024Y-190211638D01*
X182634405Y-190211638D02*
X182455833Y-190116400D01*
X182455833Y-190116400D02*
X182384405Y-189925923D01*
X182384405Y-189925923D02*
X182598690Y-188211638D01*
X184170119Y-190116400D02*
X183967738Y-190211638D01*
X183967738Y-190211638D02*
X183586785Y-190211638D01*
X183586785Y-190211638D02*
X183408214Y-190116400D01*
X183408214Y-190116400D02*
X183336785Y-189925923D01*
X183336785Y-189925923D02*
X183432024Y-189164019D01*
X183432024Y-189164019D02*
X183551071Y-188973542D01*
X183551071Y-188973542D02*
X183753452Y-188878304D01*
X183753452Y-188878304D02*
X184134404Y-188878304D01*
X184134404Y-188878304D02*
X184312976Y-188973542D01*
X184312976Y-188973542D02*
X184384404Y-189164019D01*
X184384404Y-189164019D02*
X184360595Y-189354495D01*
X184360595Y-189354495D02*
X183384404Y-189544971D01*
X185134405Y-190021161D02*
X185217738Y-190116400D01*
X185217738Y-190116400D02*
X185110595Y-190211638D01*
X185110595Y-190211638D02*
X185027262Y-190116400D01*
X185027262Y-190116400D02*
X185134405Y-190021161D01*
X185134405Y-190021161D02*
X185110595Y-190211638D01*
X185265357Y-188973542D02*
X185348690Y-189068780D01*
X185348690Y-189068780D02*
X185241548Y-189164019D01*
X185241548Y-189164019D02*
X185158214Y-189068780D01*
X185158214Y-189068780D02*
X185265357Y-188973542D01*
X185265357Y-188973542D02*
X185241548Y-189164019D01*
D10*
D11*
X178958026Y-185607614D02*
X178458026Y-185607614D01*
X178458026Y-186393328D02*
X178458026Y-184893328D01*
X178458026Y-184893328D02*
X179172312Y-184893328D01*
X179743740Y-186393328D02*
X179743740Y-185393328D01*
X179743740Y-184893328D02*
X179672312Y-184964757D01*
X179672312Y-184964757D02*
X179743740Y-185036185D01*
X179743740Y-185036185D02*
X179815169Y-184964757D01*
X179815169Y-184964757D02*
X179743740Y-184893328D01*
X179743740Y-184893328D02*
X179743740Y-185036185D01*
X180672312Y-186393328D02*
X180529455Y-186321900D01*
X180529455Y-186321900D02*
X180458026Y-186179042D01*
X180458026Y-186179042D02*
X180458026Y-184893328D01*
X181815169Y-186321900D02*
X181672312Y-186393328D01*
X181672312Y-186393328D02*
X181386598Y-186393328D01*
X181386598Y-186393328D02*
X181243740Y-186321900D01*
X181243740Y-186321900D02*
X181172312Y-186179042D01*
X181172312Y-186179042D02*
X181172312Y-185607614D01*
X181172312Y-185607614D02*
X181243740Y-185464757D01*
X181243740Y-185464757D02*
X181386598Y-185393328D01*
X181386598Y-185393328D02*
X181672312Y-185393328D01*
X181672312Y-185393328D02*
X181815169Y-185464757D01*
X181815169Y-185464757D02*
X181886598Y-185607614D01*
X181886598Y-185607614D02*
X181886598Y-185750471D01*
X181886598Y-185750471D02*
X181172312Y-185893328D01*
X182529454Y-186250471D02*
X182600883Y-186321900D01*
X182600883Y-186321900D02*
X182529454Y-186393328D01*
X182529454Y-186393328D02*
X182458026Y-186321900D01*
X182458026Y-186321900D02*
X182529454Y-186250471D01*
X182529454Y-186250471D02*
X182529454Y-186393328D01*
X182529454Y-185464757D02*
X182600883Y-185536185D01*
X182600883Y-185536185D02*
X182529454Y-185607614D01*
X182529454Y-185607614D02*
X182458026Y-185536185D01*
X182458026Y-185536185D02*
X182529454Y-185464757D01*
X182529454Y-185464757D02*
X182529454Y-185607614D01*
X184315169Y-186321900D02*
X184529455Y-186393328D01*
X184529455Y-186393328D02*
X184886597Y-186393328D01*
X184886597Y-186393328D02*
X185029455Y-186321900D01*
X185029455Y-186321900D02*
X185100883Y-186250471D01*
X185100883Y-186250471D02*
X185172312Y-186107614D01*
X185172312Y-186107614D02*
X185172312Y-185964757D01*
X185172312Y-185964757D02*
X185100883Y-185821900D01*
X185100883Y-185821900D02*
X185029455Y-185750471D01*
X185029455Y-185750471D02*
X184886597Y-185679042D01*
X184886597Y-185679042D02*
X184600883Y-185607614D01*
X184600883Y-185607614D02*
X184458026Y-185536185D01*
X184458026Y-185536185D02*
X184386597Y-185464757D01*
X184386597Y-185464757D02*
X184315169Y-185321900D01*
X184315169Y-185321900D02*
X184315169Y-185179042D01*
X184315169Y-185179042D02*
X184386597Y-185036185D01*
X184386597Y-185036185D02*
X184458026Y-184964757D01*
X184458026Y-184964757D02*
X184600883Y-184893328D01*
X184600883Y-184893328D02*
X184958026Y-184893328D01*
X184958026Y-184893328D02*
X185172312Y-184964757D01*
X185600883Y-184893328D02*
X186458026Y-184893328D01*
X186029454Y-186393328D02*
X186029454Y-184893328D01*
X186958025Y-186393328D02*
X186958025Y-184893328D01*
X186958025Y-184893328D02*
X187458025Y-185964757D01*
X187458025Y-185964757D02*
X187958025Y-184893328D01*
X187958025Y-184893328D02*
X187958025Y-186393328D01*
X188529454Y-184893328D02*
X189458026Y-184893328D01*
X189458026Y-184893328D02*
X188958026Y-185464757D01*
X188958026Y-185464757D02*
X189172311Y-185464757D01*
X189172311Y-185464757D02*
X189315169Y-185536185D01*
X189315169Y-185536185D02*
X189386597Y-185607614D01*
X189386597Y-185607614D02*
X189458026Y-185750471D01*
X189458026Y-185750471D02*
X189458026Y-186107614D01*
X189458026Y-186107614D02*
X189386597Y-186250471D01*
X189386597Y-186250471D02*
X189315169Y-186321900D01*
X189315169Y-186321900D02*
X189172311Y-186393328D01*
X189172311Y-186393328D02*
X188743740Y-186393328D01*
X188743740Y-186393328D02*
X188600883Y-186321900D01*
X188600883Y-186321900D02*
X188529454Y-186250471D01*
X190029454Y-185036185D02*
X190100882Y-184964757D01*
X190100882Y-184964757D02*
X190243740Y-184893328D01*
X190243740Y-184893328D02*
X190600882Y-184893328D01*
X190600882Y-184893328D02*
X190743740Y-184964757D01*
X190743740Y-184964757D02*
X190815168Y-185036185D01*
X190815168Y-185036185D02*
X190886597Y-185179042D01*
X190886597Y-185179042D02*
X190886597Y-185321900D01*
X190886597Y-185321900D02*
X190815168Y-185536185D01*
X190815168Y-185536185D02*
X189958025Y-186393328D01*
X189958025Y-186393328D02*
X190886597Y-186393328D01*
X191172311Y-186536185D02*
X192315168Y-186536185D01*
X193315168Y-186393328D02*
X193315168Y-184893328D01*
X193315168Y-186321900D02*
X193172310Y-186393328D01*
X193172310Y-186393328D02*
X192886596Y-186393328D01*
X192886596Y-186393328D02*
X192743739Y-186321900D01*
X192743739Y-186321900D02*
X192672310Y-186250471D01*
X192672310Y-186250471D02*
X192600882Y-186107614D01*
X192600882Y-186107614D02*
X192600882Y-185679042D01*
X192600882Y-185679042D02*
X192672310Y-185536185D01*
X192672310Y-185536185D02*
X192743739Y-185464757D01*
X192743739Y-185464757D02*
X192886596Y-185393328D01*
X192886596Y-185393328D02*
X193172310Y-185393328D01*
X193172310Y-185393328D02*
X193315168Y-185464757D01*
X194600882Y-186321900D02*
X194458025Y-186393328D01*
X194458025Y-186393328D02*
X194172311Y-186393328D01*
X194172311Y-186393328D02*
X194029453Y-186321900D01*
X194029453Y-186321900D02*
X193958025Y-186179042D01*
X193958025Y-186179042D02*
X193958025Y-185607614D01*
X193958025Y-185607614D02*
X194029453Y-185464757D01*
X194029453Y-185464757D02*
X194172311Y-185393328D01*
X194172311Y-185393328D02*
X194458025Y-185393328D01*
X194458025Y-185393328D02*
X194600882Y-185464757D01*
X194600882Y-185464757D02*
X194672311Y-185607614D01*
X194672311Y-185607614D02*
X194672311Y-185750471D01*
X194672311Y-185750471D02*
X193958025Y-185893328D01*
X195172310Y-185393328D02*
X195529453Y-186393328D01*
X195529453Y-186393328D02*
X195886596Y-185393328D01*
X196100882Y-186536185D02*
X197243739Y-186536185D01*
X197600881Y-186393328D02*
X197600881Y-184893328D01*
X197600881Y-185464757D02*
X197743739Y-185393328D01*
X197743739Y-185393328D02*
X198029453Y-185393328D01*
X198029453Y-185393328D02*
X198172310Y-185464757D01*
X198172310Y-185464757D02*
X198243739Y-185536185D01*
X198243739Y-185536185D02*
X198315167Y-185679042D01*
X198315167Y-185679042D02*
X198315167Y-186107614D01*
X198315167Y-186107614D02*
X198243739Y-186250471D01*
X198243739Y-186250471D02*
X198172310Y-186321900D01*
X198172310Y-186321900D02*
X198029453Y-186393328D01*
X198029453Y-186393328D02*
X197743739Y-186393328D01*
X197743739Y-186393328D02*
X197600881Y-186321900D01*
X199172310Y-186393328D02*
X199029453Y-186321900D01*
X199029453Y-186321900D02*
X198958024Y-186250471D01*
X198958024Y-186250471D02*
X198886596Y-186107614D01*
X198886596Y-186107614D02*
X198886596Y-185679042D01*
X198886596Y-185679042D02*
X198958024Y-185536185D01*
X198958024Y-185536185D02*
X199029453Y-185464757D01*
X199029453Y-185464757D02*
X199172310Y-185393328D01*
X199172310Y-185393328D02*
X199386596Y-185393328D01*
X199386596Y-185393328D02*
X199529453Y-185464757D01*
X199529453Y-185464757D02*
X199600882Y-185536185D01*
X199600882Y-185536185D02*
X199672310Y-185679042D01*
X199672310Y-185679042D02*
X199672310Y-186107614D01*
X199672310Y-186107614D02*
X199600882Y-186250471D01*
X199600882Y-186250471D02*
X199529453Y-186321900D01*
X199529453Y-186321900D02*
X199386596Y-186393328D01*
X199386596Y-186393328D02*
X199172310Y-186393328D01*
X200958025Y-186393328D02*
X200958025Y-185607614D01*
X200958025Y-185607614D02*
X200886596Y-185464757D01*
X200886596Y-185464757D02*
X200743739Y-185393328D01*
X200743739Y-185393328D02*
X200458025Y-185393328D01*
X200458025Y-185393328D02*
X200315167Y-185464757D01*
X200958025Y-186321900D02*
X200815167Y-186393328D01*
X200815167Y-186393328D02*
X200458025Y-186393328D01*
X200458025Y-186393328D02*
X200315167Y-186321900D01*
X200315167Y-186321900D02*
X200243739Y-186179042D01*
X200243739Y-186179042D02*
X200243739Y-186036185D01*
X200243739Y-186036185D02*
X200315167Y-185893328D01*
X200315167Y-185893328D02*
X200458025Y-185821900D01*
X200458025Y-185821900D02*
X200815167Y-185821900D01*
X200815167Y-185821900D02*
X200958025Y-185750471D01*
X201672310Y-186393328D02*
X201672310Y-185393328D01*
X201672310Y-185679042D02*
X201743739Y-185536185D01*
X201743739Y-185536185D02*
X201815168Y-185464757D01*
X201815168Y-185464757D02*
X201958025Y-185393328D01*
X201958025Y-185393328D02*
X202100882Y-185393328D01*
X203243739Y-186393328D02*
X203243739Y-184893328D01*
X203243739Y-186321900D02*
X203100881Y-186393328D01*
X203100881Y-186393328D02*
X202815167Y-186393328D01*
X202815167Y-186393328D02*
X202672310Y-186321900D01*
X202672310Y-186321900D02*
X202600881Y-186250471D01*
X202600881Y-186250471D02*
X202529453Y-186107614D01*
X202529453Y-186107614D02*
X202529453Y-185679042D01*
X202529453Y-185679042D02*
X202600881Y-185536185D01*
X202600881Y-185536185D02*
X202672310Y-185464757D01*
X202672310Y-185464757D02*
X202815167Y-185393328D01*
X202815167Y-185393328D02*
X203100881Y-185393328D01*
X203100881Y-185393328D02*
X203243739Y-185464757D01*
X203958024Y-186250471D02*
X204029453Y-186321900D01*
X204029453Y-186321900D02*
X203958024Y-186393328D01*
X203958024Y-186393328D02*
X203886596Y-186321900D01*
X203886596Y-186321900D02*
X203958024Y-186250471D01*
X203958024Y-186250471D02*
X203958024Y-186393328D01*
X204672310Y-186393328D02*
X204672310Y-184893328D01*
X204815168Y-185821900D02*
X205243739Y-186393328D01*
X205243739Y-185393328D02*
X204672310Y-185964757D01*
X205886596Y-186393328D02*
X205886596Y-185393328D01*
X205886596Y-184893328D02*
X205815168Y-184964757D01*
X205815168Y-184964757D02*
X205886596Y-185036185D01*
X205886596Y-185036185D02*
X205958025Y-184964757D01*
X205958025Y-184964757D02*
X205886596Y-184893328D01*
X205886596Y-184893328D02*
X205886596Y-185036185D01*
X207243740Y-186321900D02*
X207100882Y-186393328D01*
X207100882Y-186393328D02*
X206815168Y-186393328D01*
X206815168Y-186393328D02*
X206672311Y-186321900D01*
X206672311Y-186321900D02*
X206600882Y-186250471D01*
X206600882Y-186250471D02*
X206529454Y-186107614D01*
X206529454Y-186107614D02*
X206529454Y-185679042D01*
X206529454Y-185679042D02*
X206600882Y-185536185D01*
X206600882Y-185536185D02*
X206672311Y-185464757D01*
X206672311Y-185464757D02*
X206815168Y-185393328D01*
X206815168Y-185393328D02*
X207100882Y-185393328D01*
X207100882Y-185393328D02*
X207243740Y-185464757D01*
X208529454Y-186393328D02*
X208529454Y-185607614D01*
X208529454Y-185607614D02*
X208458025Y-185464757D01*
X208458025Y-185464757D02*
X208315168Y-185393328D01*
X208315168Y-185393328D02*
X208029454Y-185393328D01*
X208029454Y-185393328D02*
X207886596Y-185464757D01*
X208529454Y-186321900D02*
X208386596Y-186393328D01*
X208386596Y-186393328D02*
X208029454Y-186393328D01*
X208029454Y-186393328D02*
X207886596Y-186321900D01*
X207886596Y-186321900D02*
X207815168Y-186179042D01*
X207815168Y-186179042D02*
X207815168Y-186036185D01*
X207815168Y-186036185D02*
X207886596Y-185893328D01*
X207886596Y-185893328D02*
X208029454Y-185821900D01*
X208029454Y-185821900D02*
X208386596Y-185821900D01*
X208386596Y-185821900D02*
X208529454Y-185750471D01*
X209886597Y-186393328D02*
X209886597Y-184893328D01*
X209886597Y-186321900D02*
X209743739Y-186393328D01*
X209743739Y-186393328D02*
X209458025Y-186393328D01*
X209458025Y-186393328D02*
X209315168Y-186321900D01*
X209315168Y-186321900D02*
X209243739Y-186250471D01*
X209243739Y-186250471D02*
X209172311Y-186107614D01*
X209172311Y-186107614D02*
X209172311Y-185679042D01*
X209172311Y-185679042D02*
X209243739Y-185536185D01*
X209243739Y-185536185D02*
X209315168Y-185464757D01*
X209315168Y-185464757D02*
X209458025Y-185393328D01*
X209458025Y-185393328D02*
X209743739Y-185393328D01*
X209743739Y-185393328D02*
X209886597Y-185464757D01*
X210243740Y-186536185D02*
X211386597Y-186536185D01*
X211743739Y-185393328D02*
X211743739Y-186893328D01*
X211743739Y-185464757D02*
X211886597Y-185393328D01*
X211886597Y-185393328D02*
X212172311Y-185393328D01*
X212172311Y-185393328D02*
X212315168Y-185464757D01*
X212315168Y-185464757D02*
X212386597Y-185536185D01*
X212386597Y-185536185D02*
X212458025Y-185679042D01*
X212458025Y-185679042D02*
X212458025Y-186107614D01*
X212458025Y-186107614D02*
X212386597Y-186250471D01*
X212386597Y-186250471D02*
X212315168Y-186321900D01*
X212315168Y-186321900D02*
X212172311Y-186393328D01*
X212172311Y-186393328D02*
X211886597Y-186393328D01*
X211886597Y-186393328D02*
X211743739Y-186321900D01*
X213743740Y-186321900D02*
X213600882Y-186393328D01*
X213600882Y-186393328D02*
X213315168Y-186393328D01*
X213315168Y-186393328D02*
X213172311Y-186321900D01*
X213172311Y-186321900D02*
X213100882Y-186250471D01*
X213100882Y-186250471D02*
X213029454Y-186107614D01*
X213029454Y-186107614D02*
X213029454Y-185679042D01*
X213029454Y-185679042D02*
X213100882Y-185536185D01*
X213100882Y-185536185D02*
X213172311Y-185464757D01*
X213172311Y-185464757D02*
X213315168Y-185393328D01*
X213315168Y-185393328D02*
X213600882Y-185393328D01*
X213600882Y-185393328D02*
X213743740Y-185464757D01*
X214386596Y-186393328D02*
X214386596Y-184893328D01*
X214386596Y-185464757D02*
X214529454Y-185393328D01*
X214529454Y-185393328D02*
X214815168Y-185393328D01*
X214815168Y-185393328D02*
X214958025Y-185464757D01*
X214958025Y-185464757D02*
X215029454Y-185536185D01*
X215029454Y-185536185D02*
X215100882Y-185679042D01*
X215100882Y-185679042D02*
X215100882Y-186107614D01*
X215100882Y-186107614D02*
X215029454Y-186250471D01*
X215029454Y-186250471D02*
X214958025Y-186321900D01*
X214958025Y-186321900D02*
X214815168Y-186393328D01*
X214815168Y-186393328D02*
X214529454Y-186393328D01*
X214529454Y-186393328D02*
X214386596Y-186321900D01*
D10*
D11*
X177002200Y-181507200D02*
X285002200Y-181507200D01*
D10*
D11*
X178386598Y-183621900D02*
X178600884Y-183693328D01*
X178600884Y-183693328D02*
X178958026Y-183693328D01*
X178958026Y-183693328D02*
X179100884Y-183621900D01*
X179100884Y-183621900D02*
X179172312Y-183550471D01*
X179172312Y-183550471D02*
X179243741Y-183407614D01*
X179243741Y-183407614D02*
X179243741Y-183264757D01*
X179243741Y-183264757D02*
X179172312Y-183121900D01*
X179172312Y-183121900D02*
X179100884Y-183050471D01*
X179100884Y-183050471D02*
X178958026Y-182979042D01*
X178958026Y-182979042D02*
X178672312Y-182907614D01*
X178672312Y-182907614D02*
X178529455Y-182836185D01*
X178529455Y-182836185D02*
X178458026Y-182764757D01*
X178458026Y-182764757D02*
X178386598Y-182621900D01*
X178386598Y-182621900D02*
X178386598Y-182479042D01*
X178386598Y-182479042D02*
X178458026Y-182336185D01*
X178458026Y-182336185D02*
X178529455Y-182264757D01*
X178529455Y-182264757D02*
X178672312Y-182193328D01*
X178672312Y-182193328D02*
X179029455Y-182193328D01*
X179029455Y-182193328D02*
X179243741Y-182264757D01*
X179886597Y-183693328D02*
X179886597Y-182193328D01*
X180529455Y-183693328D02*
X180529455Y-182907614D01*
X180529455Y-182907614D02*
X180458026Y-182764757D01*
X180458026Y-182764757D02*
X180315169Y-182693328D01*
X180315169Y-182693328D02*
X180100883Y-182693328D01*
X180100883Y-182693328D02*
X179958026Y-182764757D01*
X179958026Y-182764757D02*
X179886597Y-182836185D01*
X181815169Y-183621900D02*
X181672312Y-183693328D01*
X181672312Y-183693328D02*
X181386598Y-183693328D01*
X181386598Y-183693328D02*
X181243740Y-183621900D01*
X181243740Y-183621900D02*
X181172312Y-183479042D01*
X181172312Y-183479042D02*
X181172312Y-182907614D01*
X181172312Y-182907614D02*
X181243740Y-182764757D01*
X181243740Y-182764757D02*
X181386598Y-182693328D01*
X181386598Y-182693328D02*
X181672312Y-182693328D01*
X181672312Y-182693328D02*
X181815169Y-182764757D01*
X181815169Y-182764757D02*
X181886598Y-182907614D01*
X181886598Y-182907614D02*
X181886598Y-183050471D01*
X181886598Y-183050471D02*
X181172312Y-183193328D01*
X183100883Y-183621900D02*
X182958026Y-183693328D01*
X182958026Y-183693328D02*
X182672312Y-183693328D01*
X182672312Y-183693328D02*
X182529454Y-183621900D01*
X182529454Y-183621900D02*
X182458026Y-183479042D01*
X182458026Y-183479042D02*
X182458026Y-182907614D01*
X182458026Y-182907614D02*
X182529454Y-182764757D01*
X182529454Y-182764757D02*
X182672312Y-182693328D01*
X182672312Y-182693328D02*
X182958026Y-182693328D01*
X182958026Y-182693328D02*
X183100883Y-182764757D01*
X183100883Y-182764757D02*
X183172312Y-182907614D01*
X183172312Y-182907614D02*
X183172312Y-183050471D01*
X183172312Y-183050471D02*
X182458026Y-183193328D01*
X183600883Y-182693328D02*
X184172311Y-182693328D01*
X183815168Y-182193328D02*
X183815168Y-183479042D01*
X183815168Y-183479042D02*
X183886597Y-183621900D01*
X183886597Y-183621900D02*
X184029454Y-183693328D01*
X184029454Y-183693328D02*
X184172311Y-183693328D01*
X184672311Y-183550471D02*
X184743740Y-183621900D01*
X184743740Y-183621900D02*
X184672311Y-183693328D01*
X184672311Y-183693328D02*
X184600883Y-183621900D01*
X184600883Y-183621900D02*
X184672311Y-183550471D01*
X184672311Y-183550471D02*
X184672311Y-183693328D01*
X184672311Y-182764757D02*
X184743740Y-182836185D01*
X184743740Y-182836185D02*
X184672311Y-182907614D01*
X184672311Y-182907614D02*
X184600883Y-182836185D01*
X184600883Y-182836185D02*
X184672311Y-182764757D01*
X184672311Y-182764757D02*
X184672311Y-182907614D01*
D10*
D11*
X197002200Y-191507200D02*
X197002200Y-194507200D01*
D10*
D11*
X261002200Y-191507200D02*
X261002200Y-198007200D01*
D14*
%TO.N,GND*%
%TO.C,H1*%
X132650000Y-77000000D03*
X132166726Y-78166726D03*
X132166726Y-75833274D03*
X131000000Y-78650000D03*
D15*
X131000000Y-77000000D03*
D14*
X131000000Y-75350000D03*
X129833274Y-78166726D03*
X129833274Y-75833274D03*
X129350000Y-77000000D03*
%TD*%
%TO.N,GND*%
%TO.C,H4*%
X173350000Y-128000000D03*
X173833274Y-126833274D03*
X173833274Y-129166726D03*
X175000000Y-126350000D03*
D15*
X175000000Y-128000000D03*
D14*
X175000000Y-129650000D03*
X176166726Y-126833274D03*
X176166726Y-129166726D03*
X176650000Y-128000000D03*
%TD*%
D16*
%TO.N,+3.3V*%
%TO.C,J3*%
X135000000Y-81000000D03*
D17*
%TO.N,/GPIO1*%
X135000000Y-83540000D03*
%TO.N,/GPIO2*%
X135000000Y-86080000D03*
%TO.N,/GPIO3*%
X135000000Y-88620000D03*
%TO.N,/GPIO4*%
X135000000Y-91160000D03*
%TO.N,/GPIO5*%
X135000000Y-93700000D03*
%TO.N,/GPIO6*%
X135000000Y-96240000D03*
%TO.N,/GPIO7*%
X135000000Y-98780000D03*
%TO.N,/GPIO8*%
X135000000Y-101320000D03*
%TO.N,/GPIO9*%
X135000000Y-103860000D03*
%TO.N,/GPIO10*%
X135000000Y-106400000D03*
%TO.N,/I2C2_SCL*%
X135000000Y-108940000D03*
%TO.N,/I2C2_SDA*%
X135000000Y-111480000D03*
%TO.N,/GPIO11*%
X135000000Y-114020000D03*
%TO.N,/SPI2_SCK*%
X135000000Y-116560000D03*
%TO.N,/SPI2_MISO*%
X135000000Y-119100000D03*
%TO.N,/SPI2_MOSI*%
X135000000Y-121640000D03*
%TO.N,GND*%
X135000000Y-124180000D03*
%TD*%
D18*
%TO.N,unconnected-(J1-Shield-Pad6)_2*%
%TO.C,J1*%
X149125000Y-128950000D03*
D19*
X149275000Y-125150000D03*
X156725000Y-125150000D03*
D18*
X156875000Y-128950000D03*
%TD*%
D14*
%TO.N,GND*%
%TO.C,H3*%
X173350000Y-77000000D03*
X173833274Y-75833274D03*
X173833274Y-78166726D03*
X175000000Y-75350000D03*
D15*
X175000000Y-77000000D03*
D14*
X175000000Y-78650000D03*
X176166726Y-75833274D03*
X176166726Y-78166726D03*
X176650000Y-77000000D03*
%TD*%
%TO.N,GND*%
%TO.C,H2*%
X129350000Y-128000000D03*
X129833274Y-126833274D03*
X129833274Y-129166726D03*
X131000000Y-126350000D03*
D15*
X131000000Y-128000000D03*
D14*
X131000000Y-129650000D03*
X132166726Y-126833274D03*
X132166726Y-129166726D03*
X132650000Y-128000000D03*
%TD*%
D16*
%TO.N,+3.3V*%
%TO.C,J4*%
X171000000Y-81000000D03*
D17*
%TO.N,GND*%
X171000000Y-83540000D03*
%TO.N,/GPIO21*%
X171000000Y-86080000D03*
%TO.N,/GPIO20*%
X171000000Y-88620000D03*
%TO.N,/GPIO19*%
X171000000Y-91160000D03*
%TO.N,/GPIO18*%
X171000000Y-93700000D03*
%TO.N,/I2C1_SDA*%
X171000000Y-96240000D03*
%TO.N,/I2C1_SCL*%
X171000000Y-98780000D03*
%TO.N,/USART1_RX*%
X171000000Y-101320000D03*
%TO.N,/USART1_TX*%
X171000000Y-103860000D03*
%TO.N,GND*%
X171000000Y-106400000D03*
%TO.N,/GPIO17*%
X171000000Y-108940000D03*
%TO.N,/GPIO16*%
X171000000Y-111480000D03*
%TO.N,/GPIO15*%
X171000000Y-114020000D03*
%TO.N,/GPIO14*%
X171000000Y-116560000D03*
%TO.N,/GPIO13*%
X171000000Y-119100000D03*
%TO.N,/GPIO12*%
X171000000Y-121640000D03*
%TO.N,VBUS*%
X171000000Y-124180000D03*
%TD*%
D20*
%TO.N,GND*%
X162000000Y-109250000D03*
X160650000Y-116950000D03*
X156340000Y-93110000D03*
X148000000Y-87000000D03*
X129000000Y-111000000D03*
X129000000Y-84500000D03*
X154750000Y-112150000D03*
X148000000Y-83000000D03*
X145850000Y-124525000D03*
X144025000Y-95050000D03*
X152000000Y-87000000D03*
X168000000Y-102500000D03*
X140000000Y-111250000D03*
X154000000Y-89000000D03*
X153270000Y-95349999D03*
X162350000Y-89750000D03*
X140000000Y-101000000D03*
X138000000Y-120750000D03*
X146500000Y-110500000D03*
X140525000Y-94975000D03*
X162500000Y-106750000D03*
X164550000Y-122220000D03*
X177000000Y-87500000D03*
X152809820Y-104164337D03*
X138000000Y-89000000D03*
X152000000Y-89000000D03*
X151699047Y-102014855D03*
X163550000Y-112700000D03*
X164000000Y-97000000D03*
X137750000Y-85500000D03*
X152000000Y-79000000D03*
X157000000Y-91000000D03*
X166900000Y-117550000D03*
X155200000Y-109790000D03*
X166750000Y-125500000D03*
X144250000Y-112750000D03*
X155029560Y-103974871D03*
X149140000Y-97240000D03*
X159000000Y-98550000D03*
X155500000Y-119750000D03*
X151380000Y-91410000D03*
X177000000Y-110500000D03*
X150955000Y-104944732D03*
X163000001Y-75000000D03*
X129000000Y-103000000D03*
X148000000Y-75000000D03*
X159407333Y-106484841D03*
X156000000Y-130000000D03*
X166000000Y-95000000D03*
X163000001Y-130000000D03*
X144500000Y-85500000D03*
X129000000Y-115000000D03*
X158999999Y-75000000D03*
X163000000Y-79000000D03*
X151000000Y-117250000D03*
X166000000Y-90000000D03*
X166500000Y-114100000D03*
X167000001Y-75000000D03*
X140250000Y-82750000D03*
X171000000Y-75000000D03*
X159800000Y-91850000D03*
X129000000Y-80000000D03*
X138000000Y-95350000D03*
X177000000Y-80000000D03*
X177000000Y-115000000D03*
X177000000Y-84000000D03*
X129000000Y-123000000D03*
X160000000Y-87000000D03*
X152000000Y-130000000D03*
X151000000Y-110250000D03*
X149490000Y-122340000D03*
X129000000Y-87750000D03*
X160000000Y-94000000D03*
X143000000Y-92000000D03*
X142750000Y-97425000D03*
X129000000Y-100000000D03*
X177000000Y-107000000D03*
X152930000Y-122570000D03*
X155500000Y-121750000D03*
X138500000Y-104250000D03*
X171000000Y-130000000D03*
X154310000Y-123780000D03*
X129000000Y-95250000D03*
X144000000Y-79000000D03*
X144000000Y-75000000D03*
X162020000Y-96280000D03*
X139250000Y-127025000D03*
X144000000Y-83000000D03*
X137750000Y-123500000D03*
X147000000Y-90000000D03*
X166237207Y-86836726D03*
X153910001Y-114630000D03*
X163000000Y-100500000D03*
X177000000Y-118250000D03*
X140025000Y-97425000D03*
X134475000Y-127025000D03*
X137975000Y-92475000D03*
X144250000Y-117500000D03*
X129000000Y-107250000D03*
X144900000Y-121970000D03*
X150000000Y-91000000D03*
X153560282Y-101366724D03*
X159760000Y-100780000D03*
X168250000Y-112750000D03*
X139425000Y-106575000D03*
X152750000Y-110750000D03*
X151650000Y-115400000D03*
X168250000Y-123500000D03*
X159900000Y-110150000D03*
X140000001Y-75000000D03*
X166900000Y-110150000D03*
X161250000Y-104250000D03*
X145800000Y-93900000D03*
X163000000Y-94000000D03*
X166000000Y-92000000D03*
X137500000Y-102500000D03*
X148410000Y-122350000D03*
X177000000Y-100000000D03*
X142250000Y-106500000D03*
X158999999Y-130000000D03*
X151136526Y-101181421D03*
X177000000Y-92000000D03*
X171000000Y-79000000D03*
X160700000Y-112350000D03*
X164950000Y-108250000D03*
X177000000Y-102750000D03*
X138750000Y-113250000D03*
X167250000Y-121250000D03*
X167000001Y-130000000D03*
X156000000Y-87000000D03*
X148000000Y-79000000D03*
X146250001Y-105020000D03*
X140000000Y-91000000D03*
X168150000Y-115900000D03*
X148000000Y-130000000D03*
X163000000Y-86000000D03*
X146229999Y-128700000D03*
X151750000Y-112200000D03*
X155024084Y-100566955D03*
X147300000Y-126350000D03*
X152000000Y-75000000D03*
X140750000Y-88500000D03*
X144000000Y-130000000D03*
X164750000Y-102500000D03*
X167000000Y-83000000D03*
X137955596Y-98944719D03*
X164400000Y-92250000D03*
X135999999Y-130000000D03*
X152000000Y-83000000D03*
X160040000Y-81900000D03*
X144250000Y-98725000D03*
X146064487Y-100301654D03*
X151990000Y-96090000D03*
X156000000Y-75000000D03*
X129000000Y-92000000D03*
X148500000Y-111500000D03*
X162750000Y-115500000D03*
X140250000Y-84500000D03*
X135999999Y-75000000D03*
X162020000Y-97470000D03*
X164100000Y-116750000D03*
X137500000Y-116250000D03*
X151650000Y-113800000D03*
X146750000Y-113750000D03*
X167000000Y-79000000D03*
X162250000Y-92000000D03*
X166000000Y-100000000D03*
X163000000Y-83000000D03*
X177000000Y-123000000D03*
X153950000Y-113300000D03*
X148505337Y-99395000D03*
X156150533Y-89068984D03*
X140000001Y-79000000D03*
X129000000Y-119000000D03*
X177000000Y-96000000D03*
X147549792Y-97220208D03*
X150000000Y-93000000D03*
X144910000Y-123030000D03*
X156229999Y-94530000D03*
X155500000Y-118150000D03*
X144300000Y-126410000D03*
X165750000Y-105500000D03*
X168250000Y-107500000D03*
X140000001Y-130000000D03*
X142500000Y-86750000D03*
X149275000Y-115400000D03*
X147900000Y-92075000D03*
X168113278Y-100558706D03*
%TD*%
%TA.AperFunction,Conductor*%
%TO.N,GND*%
G36*
X128426826Y-128455320D02*
G01*
X128447288Y-128494307D01*
X128470938Y-128623363D01*
X128564514Y-128923656D01*
X128693604Y-129210483D01*
X128693609Y-129210492D01*
X128856331Y-129479668D01*
X129050315Y-129727270D01*
X129073134Y-129750089D01*
X130138097Y-128685125D01*
X130160967Y-128716602D01*
X130283398Y-128839033D01*
X130314874Y-128861901D01*
X129249910Y-129926865D01*
X129272729Y-129949684D01*
X129520331Y-130143668D01*
X129789507Y-130306390D01*
X129789516Y-130306395D01*
X130076343Y-130435485D01*
X130376636Y-130529061D01*
X130505693Y-130552712D01*
X130553255Y-130583463D01*
X130565142Y-130638839D01*
X130534391Y-130686401D01*
X130492354Y-130699500D01*
X130002636Y-130699500D01*
X129997357Y-130699311D01*
X129763419Y-130682579D01*
X129752968Y-130681077D01*
X129526363Y-130631782D01*
X129516233Y-130628807D01*
X129298963Y-130547770D01*
X129289358Y-130543384D01*
X129085826Y-130432246D01*
X129076945Y-130426538D01*
X128891301Y-130287567D01*
X128883321Y-130280653D01*
X128719346Y-130116678D01*
X128712432Y-130108698D01*
X128573461Y-129923054D01*
X128567753Y-129914173D01*
X128523481Y-129833095D01*
X128456613Y-129710637D01*
X128452229Y-129701036D01*
X128446493Y-129685657D01*
X128371189Y-129483757D01*
X128368219Y-129473645D01*
X128318921Y-129247030D01*
X128317420Y-129236580D01*
X128300689Y-129002642D01*
X128300500Y-128997363D01*
X128300500Y-128507646D01*
X128322174Y-128455320D01*
X128374500Y-128433646D01*
X128426826Y-128455320D01*
G37*
%TD.AperFunction*%
%TA.AperFunction,Conductor*%
G36*
X174544680Y-74322174D02*
G01*
X174566354Y-74374500D01*
X174544680Y-74426826D01*
X174505693Y-74447288D01*
X174376636Y-74470938D01*
X174076343Y-74564514D01*
X173789516Y-74693604D01*
X173789507Y-74693609D01*
X173520331Y-74856331D01*
X173272729Y-75050315D01*
X173249910Y-75073133D01*
X174314874Y-76138097D01*
X174283398Y-76160967D01*
X174160967Y-76283398D01*
X174138097Y-76314874D01*
X173073133Y-75249910D01*
X173050315Y-75272729D01*
X172856331Y-75520331D01*
X172693609Y-75789507D01*
X172693604Y-75789516D01*
X172564514Y-76076343D01*
X172470938Y-76376636D01*
X172414239Y-76686033D01*
X172395248Y-77000000D01*
X172414239Y-77313966D01*
X172470938Y-77623363D01*
X172564514Y-77923656D01*
X172693604Y-78210483D01*
X172693609Y-78210492D01*
X172856331Y-78479668D01*
X173050315Y-78727270D01*
X173073134Y-78750089D01*
X174138097Y-77685125D01*
X174160967Y-77716602D01*
X174283398Y-77839033D01*
X174314874Y-77861901D01*
X173249910Y-78926865D01*
X173272729Y-78949684D01*
X173520331Y-79143668D01*
X173789507Y-79306390D01*
X173789516Y-79306395D01*
X174076343Y-79435485D01*
X174376636Y-79529061D01*
X174686033Y-79585760D01*
X175000000Y-79604751D01*
X175313966Y-79585760D01*
X175623363Y-79529061D01*
X175923656Y-79435485D01*
X176210483Y-79306395D01*
X176210492Y-79306390D01*
X176479671Y-79143666D01*
X176479675Y-79143663D01*
X176727266Y-78949688D01*
X176750088Y-78926864D01*
X175685125Y-77861901D01*
X175716602Y-77839033D01*
X175839033Y-77716602D01*
X175861901Y-77685125D01*
X176926864Y-78750088D01*
X176949688Y-78727266D01*
X177143663Y-78479675D01*
X177143666Y-78479671D01*
X177306390Y-78210492D01*
X177306395Y-78210483D01*
X177435485Y-77923656D01*
X177529061Y-77623363D01*
X177552712Y-77494307D01*
X177583463Y-77446745D01*
X177638839Y-77434858D01*
X177686401Y-77465609D01*
X177699500Y-77507646D01*
X177699500Y-127492353D01*
X177677826Y-127544679D01*
X177625500Y-127566353D01*
X177573174Y-127544679D01*
X177552712Y-127505692D01*
X177529061Y-127376636D01*
X177435485Y-127076343D01*
X177306395Y-126789516D01*
X177306390Y-126789507D01*
X177143668Y-126520331D01*
X176949684Y-126272729D01*
X176926865Y-126249910D01*
X175861901Y-127314873D01*
X175839033Y-127283398D01*
X175716602Y-127160967D01*
X175685125Y-127138097D01*
X176750089Y-126073134D01*
X176727270Y-126050315D01*
X176479668Y-125856331D01*
X176210492Y-125693609D01*
X176210483Y-125693604D01*
X175923656Y-125564514D01*
X175623363Y-125470938D01*
X175313966Y-125414239D01*
X175000000Y-125395248D01*
X174686033Y-125414239D01*
X174376636Y-125470938D01*
X174076343Y-125564514D01*
X173789516Y-125693604D01*
X173789507Y-125693609D01*
X173520331Y-125856331D01*
X173272729Y-126050315D01*
X173249910Y-126073133D01*
X174314874Y-127138097D01*
X174283398Y-127160967D01*
X174160967Y-127283398D01*
X174138097Y-127314874D01*
X173073133Y-126249910D01*
X173050315Y-126272729D01*
X172856331Y-126520331D01*
X172693609Y-126789507D01*
X172693604Y-126789516D01*
X172564514Y-127076343D01*
X172470938Y-127376636D01*
X172414239Y-127686033D01*
X172395248Y-128000000D01*
X172414239Y-128313966D01*
X172470938Y-128623363D01*
X172564514Y-128923656D01*
X172693604Y-129210483D01*
X172693609Y-129210492D01*
X172856331Y-129479668D01*
X173050315Y-129727270D01*
X173073134Y-129750089D01*
X174138097Y-128685125D01*
X174160967Y-128716602D01*
X174283398Y-128839033D01*
X174314874Y-128861901D01*
X173249910Y-129926865D01*
X173272729Y-129949684D01*
X173520331Y-130143668D01*
X173789507Y-130306390D01*
X173789516Y-130306395D01*
X174076343Y-130435485D01*
X174376636Y-130529061D01*
X174505693Y-130552712D01*
X174553255Y-130583463D01*
X174565142Y-130638839D01*
X174534391Y-130686401D01*
X174492354Y-130699500D01*
X131507646Y-130699500D01*
X131455320Y-130677826D01*
X131433646Y-130625500D01*
X131455320Y-130573174D01*
X131494307Y-130552712D01*
X131623363Y-130529061D01*
X131923656Y-130435485D01*
X132210483Y-130306395D01*
X132210492Y-130306390D01*
X132479671Y-130143666D01*
X132479675Y-130143663D01*
X132727266Y-129949688D01*
X132750088Y-129926864D01*
X131685125Y-128861901D01*
X131716602Y-128839033D01*
X131839033Y-128716602D01*
X131861901Y-128685125D01*
X132926864Y-129750088D01*
X132949688Y-129727266D01*
X133143663Y-129479675D01*
X133143666Y-129479671D01*
X133306390Y-129210492D01*
X133306395Y-129210483D01*
X133435485Y-128923656D01*
X133529061Y-128623363D01*
X133544563Y-128538771D01*
X148249500Y-128538771D01*
X148249500Y-129361228D01*
X148283143Y-129530367D01*
X148283146Y-129530378D01*
X148349140Y-129689702D01*
X148374239Y-129727266D01*
X148444955Y-129833099D01*
X148566901Y-129955045D01*
X148710295Y-130050858D01*
X148869626Y-130116855D01*
X149038771Y-130150500D01*
X149038772Y-130150500D01*
X149211228Y-130150500D01*
X149211229Y-130150500D01*
X149380374Y-130116855D01*
X149539705Y-130050858D01*
X149683099Y-129955045D01*
X149805045Y-129833099D01*
X149900858Y-129689705D01*
X149966855Y-129530374D01*
X150000500Y-129361229D01*
X150000500Y-128538771D01*
X155999500Y-128538771D01*
X155999500Y-129361228D01*
X156033143Y-129530367D01*
X156033146Y-129530378D01*
X156099140Y-129689702D01*
X156124239Y-129727266D01*
X156194955Y-129833099D01*
X156316901Y-129955045D01*
X156460295Y-130050858D01*
X156619626Y-130116855D01*
X156788771Y-130150500D01*
X156788772Y-130150500D01*
X156961228Y-130150500D01*
X156961229Y-130150500D01*
X157130374Y-130116855D01*
X157289705Y-130050858D01*
X157433099Y-129955045D01*
X157555045Y-129833099D01*
X157650858Y-129689705D01*
X157716855Y-129530374D01*
X157750500Y-129361229D01*
X157750500Y-128538771D01*
X157716855Y-128369626D01*
X157650858Y-128210295D01*
X157555045Y-128066901D01*
X157433099Y-127944955D01*
X157289705Y-127849142D01*
X157289704Y-127849141D01*
X157289702Y-127849140D01*
X157130378Y-127783146D01*
X157130367Y-127783143D01*
X157002942Y-127757797D01*
X156961229Y-127749500D01*
X156788771Y-127749500D01*
X156755309Y-127756155D01*
X156619632Y-127783143D01*
X156619621Y-127783146D01*
X156460297Y-127849140D01*
X156316904Y-127944952D01*
X156194952Y-128066904D01*
X156099140Y-128210297D01*
X156033146Y-128369621D01*
X156033143Y-128369632D01*
X155999500Y-128538771D01*
X150000500Y-128538771D01*
X149966855Y-128369626D01*
X149900858Y-128210295D01*
X149805045Y-128066901D01*
X149683099Y-127944955D01*
X149539705Y-127849142D01*
X149539704Y-127849141D01*
X149539702Y-127849140D01*
X149380378Y-127783146D01*
X149380367Y-127783143D01*
X149252942Y-127757797D01*
X149211229Y-127749500D01*
X149038771Y-127749500D01*
X149005309Y-127756155D01*
X148869632Y-127783143D01*
X148869621Y-127783146D01*
X148710297Y-127849140D01*
X148566904Y-127944952D01*
X148444952Y-128066904D01*
X148349140Y-128210297D01*
X148283146Y-128369621D01*
X148283143Y-128369632D01*
X148249500Y-128538771D01*
X133544563Y-128538771D01*
X133585760Y-128313966D01*
X133604751Y-128000000D01*
X133585760Y-127686033D01*
X133529061Y-127376636D01*
X133435485Y-127076343D01*
X133306395Y-126789516D01*
X133306390Y-126789507D01*
X133143668Y-126520331D01*
X132949684Y-126272729D01*
X132926865Y-126249910D01*
X131861901Y-127314873D01*
X131839033Y-127283398D01*
X131716602Y-127160967D01*
X131685125Y-127138097D01*
X132750089Y-126073134D01*
X132727270Y-126050315D01*
X132479668Y-125856331D01*
X132210492Y-125693609D01*
X132210483Y-125693604D01*
X131923656Y-125564514D01*
X131623363Y-125470938D01*
X131313966Y-125414239D01*
X131000000Y-125395248D01*
X130686033Y-125414239D01*
X130376636Y-125470938D01*
X130076343Y-125564514D01*
X129789516Y-125693604D01*
X129789507Y-125693609D01*
X129520331Y-125856331D01*
X129272729Y-126050315D01*
X129249910Y-126073133D01*
X130314874Y-127138097D01*
X130283398Y-127160967D01*
X130160967Y-127283398D01*
X130138097Y-127314874D01*
X129073133Y-126249910D01*
X129050315Y-126272729D01*
X128856331Y-126520331D01*
X128693609Y-126789507D01*
X128693604Y-126789516D01*
X128564514Y-127076343D01*
X128470938Y-127376636D01*
X128447288Y-127505692D01*
X128416537Y-127553254D01*
X128361161Y-127565141D01*
X128313599Y-127534390D01*
X128300500Y-127492353D01*
X128300500Y-124054999D01*
X133756160Y-124054999D01*
X133756161Y-124055000D01*
X134515856Y-124055000D01*
X134500000Y-124114174D01*
X134500000Y-124245826D01*
X134515856Y-124305000D01*
X133756161Y-124305000D01*
X133764287Y-124397885D01*
X133764288Y-124397893D01*
X133820895Y-124609153D01*
X133913334Y-124807388D01*
X134038785Y-124986551D01*
X134193448Y-125141214D01*
X134372611Y-125266665D01*
X134570846Y-125359104D01*
X134782106Y-125415711D01*
X134782113Y-125415712D01*
X134875000Y-125423838D01*
X134875000Y-124664144D01*
X134934174Y-124680000D01*
X135065826Y-124680000D01*
X135125000Y-124664144D01*
X135125000Y-125423837D01*
X135217886Y-125415712D01*
X135217893Y-125415711D01*
X135429153Y-125359104D01*
X135627388Y-125266665D01*
X135806551Y-125141214D01*
X135961214Y-124986551D01*
X136086665Y-124807388D01*
X136102236Y-124773997D01*
X148249500Y-124773997D01*
X148249500Y-125526003D01*
X148252326Y-125540209D01*
X148288907Y-125724120D01*
X148288909Y-125724127D01*
X148366214Y-125910756D01*
X148446643Y-126031128D01*
X148478442Y-126078718D01*
X148621282Y-126221558D01*
X148789244Y-126333786D01*
X148975873Y-126411091D01*
X149173997Y-126450500D01*
X149173998Y-126450500D01*
X149376002Y-126450500D01*
X149376003Y-126450500D01*
X149574127Y-126411091D01*
X149725550Y-126348369D01*
X149782187Y-126348369D01*
X149822236Y-126388417D01*
X149823060Y-126390495D01*
X149875181Y-126527929D01*
X149875182Y-126527930D01*
X149971817Y-126667929D01*
X150099148Y-126780734D01*
X150249775Y-126859790D01*
X150414944Y-126900500D01*
X150414948Y-126900500D01*
X150585052Y-126900500D01*
X150585056Y-126900500D01*
X150750225Y-126859790D01*
X150900852Y-126780734D01*
X151028183Y-126667929D01*
X151124818Y-126527930D01*
X151185140Y-126368872D01*
X151199585Y-126249910D01*
X151205645Y-126200003D01*
X151205645Y-126199996D01*
X154794355Y-126199996D01*
X154794355Y-126200003D01*
X154814859Y-126368871D01*
X154875181Y-126527929D01*
X154875182Y-126527930D01*
X154971817Y-126667929D01*
X155099148Y-126780734D01*
X155249775Y-126859790D01*
X155414944Y-126900500D01*
X155414948Y-126900500D01*
X155585052Y-126900500D01*
X155585056Y-126900500D01*
X155750225Y-126859790D01*
X155900852Y-126780734D01*
X156028183Y-126667929D01*
X156124818Y-126527930D01*
X156154183Y-126450500D01*
X156176940Y-126390495D01*
X156215760Y-126349255D01*
X156272371Y-126347544D01*
X156274397Y-126348347D01*
X156425873Y-126411091D01*
X156623997Y-126450500D01*
X156623998Y-126450500D01*
X156826002Y-126450500D01*
X156826003Y-126450500D01*
X157024127Y-126411091D01*
X157210756Y-126333786D01*
X157378718Y-126221558D01*
X157521558Y-126078718D01*
X157633786Y-125910756D01*
X157711091Y-125724127D01*
X157750500Y-125526003D01*
X157750500Y-124773997D01*
X157728032Y-124661042D01*
X158532050Y-124661042D01*
X158532050Y-124888957D01*
X158567703Y-125114059D01*
X158567706Y-125114072D01*
X158638130Y-125330815D01*
X158638132Y-125330821D01*
X158741600Y-125533887D01*
X158741603Y-125533893D01*
X158857644Y-125693609D01*
X158875566Y-125718276D01*
X159036724Y-125879434D01*
X159221109Y-126013398D01*
X159417113Y-126113267D01*
X159424178Y-126116867D01*
X159424182Y-126116869D01*
X159640927Y-126187293D01*
X159640933Y-126187294D01*
X159640938Y-126187296D01*
X159753491Y-126205123D01*
X159866042Y-126222950D01*
X159866044Y-126222950D01*
X160093958Y-126222950D01*
X160183998Y-126208688D01*
X160319062Y-126187296D01*
X160319069Y-126187293D01*
X160319072Y-126187293D01*
X160535817Y-126116869D01*
X160535817Y-126116868D01*
X160535820Y-126116868D01*
X160738891Y-126013398D01*
X160923276Y-125879434D01*
X161084434Y-125718276D01*
X161218398Y-125533891D01*
X161321868Y-125330820D01*
X161321973Y-125330499D01*
X161392293Y-125114072D01*
X161392293Y-125114069D01*
X161392296Y-125114062D01*
X161427950Y-124888956D01*
X161427950Y-124661044D01*
X161427950Y-124661042D01*
X161707050Y-124661042D01*
X161707050Y-124888957D01*
X161742703Y-125114059D01*
X161742706Y-125114072D01*
X161813130Y-125330815D01*
X161813132Y-125330821D01*
X161916600Y-125533887D01*
X161916603Y-125533893D01*
X162032644Y-125693609D01*
X162050566Y-125718276D01*
X162211724Y-125879434D01*
X162396109Y-126013398D01*
X162592113Y-126113267D01*
X162599178Y-126116867D01*
X162599182Y-126116869D01*
X162815927Y-126187293D01*
X162815933Y-126187294D01*
X162815938Y-126187296D01*
X162928491Y-126205123D01*
X163041042Y-126222950D01*
X163041044Y-126222950D01*
X163268958Y-126222950D01*
X163358998Y-126208688D01*
X163494062Y-126187296D01*
X163494069Y-126187293D01*
X163494072Y-126187293D01*
X163710817Y-126116869D01*
X163710817Y-126116868D01*
X163710820Y-126116868D01*
X163913891Y-126013398D01*
X164098276Y-125879434D01*
X164259434Y-125718276D01*
X164393398Y-125533891D01*
X164496868Y-125330820D01*
X164496973Y-125330499D01*
X164567293Y-125114072D01*
X164567293Y-125114069D01*
X164567296Y-125114062D01*
X164602950Y-124888956D01*
X164602950Y-124661044D01*
X164600555Y-124645925D01*
X164567296Y-124435940D01*
X164567293Y-124435927D01*
X164496869Y-124219182D01*
X164496867Y-124219178D01*
X164476903Y-124179996D01*
X169844571Y-124179996D01*
X169844571Y-124180003D01*
X169864242Y-124392303D01*
X169864243Y-124392309D01*
X169922593Y-124597383D01*
X169922596Y-124597393D01*
X170017632Y-124788252D01*
X170017634Y-124788255D01*
X170146128Y-124958407D01*
X170303698Y-125102052D01*
X170484981Y-125214298D01*
X170683802Y-125291321D01*
X170893390Y-125330500D01*
X171106610Y-125330500D01*
X171316198Y-125291321D01*
X171515019Y-125214298D01*
X171696302Y-125102052D01*
X171853872Y-124958407D01*
X171982366Y-124788255D01*
X172077405Y-124597389D01*
X172135756Y-124392310D01*
X172136041Y-124389243D01*
X172155429Y-124180003D01*
X172155429Y-124179996D01*
X172135757Y-123967696D01*
X172135756Y-123967690D01*
X172098875Y-123838070D01*
X172077405Y-123762611D01*
X172071548Y-123750849D01*
X171982367Y-123571747D01*
X171982363Y-123571741D01*
X171948986Y-123527543D01*
X171853872Y-123401593D01*
X171848423Y-123396626D01*
X171811212Y-123362703D01*
X171696302Y-123257948D01*
X171515019Y-123145702D01*
X171316198Y-123068679D01*
X171224150Y-123051472D01*
X171106613Y-123029500D01*
X171106610Y-123029500D01*
X170893390Y-123029500D01*
X170893386Y-123029500D01*
X170736670Y-123058796D01*
X170683802Y-123068679D01*
X170683800Y-123068679D01*
X170683798Y-123068680D01*
X170550035Y-123120500D01*
X170484981Y-123145702D01*
X170484976Y-123145704D01*
X170484976Y-123145705D01*
X170303700Y-123257946D01*
X170146130Y-123401590D01*
X170017636Y-123571741D01*
X170017632Y-123571747D01*
X169922596Y-123762606D01*
X169922593Y-123762616D01*
X169864243Y-123967690D01*
X169864242Y-123967696D01*
X169844571Y-124179996D01*
X164476903Y-124179996D01*
X164472064Y-124170499D01*
X164393398Y-124016109D01*
X164365531Y-123977754D01*
X164259437Y-123831728D01*
X164259436Y-123831727D01*
X164259434Y-123831724D01*
X164098276Y-123670566D01*
X164098273Y-123670563D01*
X164098271Y-123670562D01*
X163913893Y-123536603D01*
X163913887Y-123536600D01*
X163710821Y-123433132D01*
X163710817Y-123433130D01*
X163494072Y-123362706D01*
X163494059Y-123362703D01*
X163268958Y-123327050D01*
X163268956Y-123327050D01*
X163041044Y-123327050D01*
X163041042Y-123327050D01*
X162815940Y-123362703D01*
X162815927Y-123362706D01*
X162599182Y-123433130D01*
X162599178Y-123433132D01*
X162396112Y-123536600D01*
X162396106Y-123536603D01*
X162211728Y-123670562D01*
X162050562Y-123831728D01*
X161916603Y-124016106D01*
X161916600Y-124016112D01*
X161813132Y-124219178D01*
X161813130Y-124219182D01*
X161742706Y-124435927D01*
X161742703Y-124435940D01*
X161707050Y-124661042D01*
X161427950Y-124661042D01*
X161425555Y-124645925D01*
X161392296Y-124435940D01*
X161392293Y-124435927D01*
X161321869Y-124219182D01*
X161321867Y-124219178D01*
X161297064Y-124170499D01*
X161218398Y-124016109D01*
X161190531Y-123977754D01*
X161084437Y-123831728D01*
X161084436Y-123831727D01*
X161084434Y-123831724D01*
X160923276Y-123670566D01*
X160923273Y-123670563D01*
X160923271Y-123670562D01*
X160738893Y-123536603D01*
X160738887Y-123536600D01*
X160535821Y-123433132D01*
X160535817Y-123433130D01*
X160319072Y-123362706D01*
X160319059Y-123362703D01*
X160093958Y-123327050D01*
X160093956Y-123327050D01*
X159866044Y-123327050D01*
X159866042Y-123327050D01*
X159640940Y-123362703D01*
X159640927Y-123362706D01*
X159424182Y-123433130D01*
X159424178Y-123433132D01*
X159221112Y-123536600D01*
X159221106Y-123536603D01*
X159036728Y-123670562D01*
X158875562Y-123831728D01*
X158741603Y-124016106D01*
X158741600Y-124016112D01*
X158638132Y-124219178D01*
X158638130Y-124219182D01*
X158567706Y-124435927D01*
X158567703Y-124435940D01*
X158532050Y-124661042D01*
X157728032Y-124661042D01*
X157711091Y-124575873D01*
X157633786Y-124389244D01*
X157521558Y-124221282D01*
X157378718Y-124078442D01*
X157343634Y-124055000D01*
X157210756Y-123966214D01*
X157024127Y-123888909D01*
X157024120Y-123888907D01*
X156874862Y-123859218D01*
X156826003Y-123849500D01*
X156623997Y-123849500D01*
X156584803Y-123857296D01*
X156425879Y-123888907D01*
X156425872Y-123888909D01*
X156239243Y-123966214D01*
X156071282Y-124078441D01*
X156071281Y-124078443D01*
X155928443Y-124221281D01*
X155928441Y-124221282D01*
X155816214Y-124389243D01*
X155738909Y-124575872D01*
X155738907Y-124575879D01*
X155699500Y-124773997D01*
X155699500Y-125433253D01*
X155677826Y-125485579D01*
X155625500Y-125507253D01*
X155607793Y-125505103D01*
X155585063Y-125499501D01*
X155585058Y-125499500D01*
X155585056Y-125499500D01*
X155414944Y-125499500D01*
X155414941Y-125499500D01*
X155249777Y-125540209D01*
X155099146Y-125619267D01*
X155099143Y-125619269D01*
X154971816Y-125732071D01*
X154875181Y-125872070D01*
X154814859Y-126031128D01*
X154794355Y-126199996D01*
X151205645Y-126199996D01*
X151185140Y-126031128D01*
X151124818Y-125872070D01*
X151028183Y-125732071D01*
X150900856Y-125619269D01*
X150900853Y-125619267D01*
X150900852Y-125619266D01*
X150750225Y-125540210D01*
X150750222Y-125540209D01*
X150585058Y-125499500D01*
X150585056Y-125499500D01*
X150414944Y-125499500D01*
X150414941Y-125499500D01*
X150414936Y-125499501D01*
X150392207Y-125505103D01*
X150336215Y-125496580D01*
X150302650Y-125450960D01*
X150300500Y-125433253D01*
X150300500Y-124773997D01*
X150267711Y-124609153D01*
X150261091Y-124575873D01*
X150183786Y-124389244D01*
X150071558Y-124221282D01*
X149928718Y-124078442D01*
X149893634Y-124055000D01*
X149760756Y-123966214D01*
X149574127Y-123888909D01*
X149574120Y-123888907D01*
X149424862Y-123859218D01*
X149376003Y-123849500D01*
X149173997Y-123849500D01*
X149134803Y-123857296D01*
X148975879Y-123888907D01*
X148975872Y-123888909D01*
X148789243Y-123966214D01*
X148621282Y-124078441D01*
X148621281Y-124078443D01*
X148478443Y-124221281D01*
X148478441Y-124221282D01*
X148366214Y-124389243D01*
X148288909Y-124575872D01*
X148288907Y-124575879D01*
X148268197Y-124680000D01*
X148249500Y-124773997D01*
X136102236Y-124773997D01*
X136179104Y-124609153D01*
X136235711Y-124397893D01*
X136235712Y-124397885D01*
X136243839Y-124305000D01*
X135484144Y-124305000D01*
X135500000Y-124245826D01*
X135500000Y-124114174D01*
X135484144Y-124055000D01*
X136243839Y-124055000D01*
X136243839Y-124054999D01*
X136235712Y-123962114D01*
X136235711Y-123962106D01*
X136179105Y-123750849D01*
X136179100Y-123750838D01*
X136141404Y-123670000D01*
X141404353Y-123670000D01*
X141424834Y-123812454D01*
X141424834Y-123812455D01*
X141424835Y-123812457D01*
X141484623Y-123943373D01*
X141578868Y-124052139D01*
X141578869Y-124052140D01*
X141578872Y-124052143D01*
X141699947Y-124129953D01*
X141806403Y-124161211D01*
X141838035Y-124170499D01*
X141838037Y-124170500D01*
X141838039Y-124170500D01*
X141981963Y-124170500D01*
X141981964Y-124170499D01*
X142120053Y-124129953D01*
X142241128Y-124052143D01*
X142335377Y-123943373D01*
X142395165Y-123812457D01*
X142415647Y-123670000D01*
X142395165Y-123527543D01*
X142335377Y-123396627D01*
X142241128Y-123287857D01*
X142184182Y-123251260D01*
X142120054Y-123210047D01*
X142120050Y-123210046D01*
X142006008Y-123176560D01*
X164304200Y-123176560D01*
X164304200Y-123325439D01*
X164333243Y-123471452D01*
X164333245Y-123471459D01*
X164390218Y-123609005D01*
X164437656Y-123680000D01*
X164472932Y-123732794D01*
X164578206Y-123838068D01*
X164701994Y-123920781D01*
X164839541Y-123977755D01*
X164985560Y-124006800D01*
X164985561Y-124006800D01*
X165134439Y-124006800D01*
X165134440Y-124006800D01*
X165280459Y-123977755D01*
X165418006Y-123920781D01*
X165541794Y-123838068D01*
X165647068Y-123732794D01*
X165729781Y-123609006D01*
X165786755Y-123471459D01*
X165815800Y-123325440D01*
X165815800Y-123176560D01*
X165786755Y-123030541D01*
X165729781Y-122892994D01*
X165647068Y-122769206D01*
X165541794Y-122663932D01*
X165541790Y-122663929D01*
X165418005Y-122581218D01*
X165280459Y-122524245D01*
X165280452Y-122524243D01*
X165170450Y-122502362D01*
X165134440Y-122495200D01*
X164985560Y-122495200D01*
X164956674Y-122500945D01*
X164839547Y-122524243D01*
X164839540Y-122524245D01*
X164701994Y-122581218D01*
X164578209Y-122663929D01*
X164472929Y-122769209D01*
X164390218Y-122892994D01*
X164333245Y-123030540D01*
X164333243Y-123030547D01*
X164304200Y-123176560D01*
X142006008Y-123176560D01*
X141981964Y-123169500D01*
X141981961Y-123169500D01*
X141838039Y-123169500D01*
X141838036Y-123169500D01*
X141699949Y-123210046D01*
X141699945Y-123210047D01*
X141578875Y-123287855D01*
X141578868Y-123287860D01*
X141484623Y-123396626D01*
X141424834Y-123527545D01*
X141404353Y-123670000D01*
X136141404Y-123670000D01*
X136086665Y-123552612D01*
X135961212Y-123373445D01*
X135806551Y-123218785D01*
X135806552Y-123218785D01*
X135627388Y-123093334D01*
X135429153Y-123000895D01*
X135217893Y-122944288D01*
X135217886Y-122944287D01*
X135120248Y-122935745D01*
X135070011Y-122909593D01*
X135052980Y-122855577D01*
X135079132Y-122805340D01*
X135113100Y-122789287D01*
X135137645Y-122784698D01*
X135316198Y-122751321D01*
X135515019Y-122674298D01*
X135521960Y-122670000D01*
X157744867Y-122670000D01*
X157763302Y-122798223D01*
X157763302Y-122798224D01*
X157763303Y-122798226D01*
X157817118Y-122916063D01*
X157901951Y-123013967D01*
X158010931Y-123084004D01*
X158135228Y-123120500D01*
X158264772Y-123120500D01*
X158389069Y-123084004D01*
X158498049Y-123013967D01*
X158582882Y-122916063D01*
X158636697Y-122798226D01*
X158655133Y-122670000D01*
X158636697Y-122541774D01*
X158582882Y-122423937D01*
X158498049Y-122326033D01*
X158431032Y-122282964D01*
X158389068Y-122255995D01*
X158264772Y-122219500D01*
X158135228Y-122219500D01*
X158010931Y-122255995D01*
X157901954Y-122326031D01*
X157901950Y-122326034D01*
X157817119Y-122423935D01*
X157763302Y-122541776D01*
X157744867Y-122670000D01*
X135521960Y-122670000D01*
X135696302Y-122562052D01*
X135853872Y-122418407D01*
X135982366Y-122248255D01*
X136077405Y-122057389D01*
X136135756Y-121852310D01*
X136146163Y-121740000D01*
X141374353Y-121740000D01*
X141394834Y-121882454D01*
X141454623Y-122013373D01*
X141548868Y-122122139D01*
X141548869Y-122122140D01*
X141548872Y-122122143D01*
X141669947Y-122199953D01*
X141736519Y-122219500D01*
X141808035Y-122240499D01*
X141808037Y-122240500D01*
X141808039Y-122240500D01*
X141951963Y-122240500D01*
X141951964Y-122240499D01*
X142090053Y-122199953D01*
X142151350Y-122160560D01*
X159224200Y-122160560D01*
X159224200Y-122309439D01*
X159253243Y-122455452D01*
X159253245Y-122455459D01*
X159310218Y-122593005D01*
X159392929Y-122716790D01*
X159392932Y-122716794D01*
X159498206Y-122822068D01*
X159621994Y-122904781D01*
X159759541Y-122961755D01*
X159905560Y-122990800D01*
X159905561Y-122990800D01*
X160054439Y-122990800D01*
X160054440Y-122990800D01*
X160200459Y-122961755D01*
X160338006Y-122904781D01*
X160461794Y-122822068D01*
X160567068Y-122716794D01*
X160649781Y-122593006D01*
X160706755Y-122455459D01*
X160735800Y-122309440D01*
X160735800Y-122160560D01*
X160706755Y-122014541D01*
X160649781Y-121876994D01*
X160567068Y-121753206D01*
X160461794Y-121647932D01*
X160461790Y-121647929D01*
X160338005Y-121565218D01*
X160200459Y-121508245D01*
X160200452Y-121508243D01*
X160090450Y-121486362D01*
X160054440Y-121479200D01*
X159905560Y-121479200D01*
X159876674Y-121484945D01*
X159759547Y-121508243D01*
X159759540Y-121508245D01*
X159621994Y-121565218D01*
X159498209Y-121647929D01*
X159392929Y-121753209D01*
X159310218Y-121876994D01*
X159253245Y-122014540D01*
X159253243Y-122014547D01*
X159224200Y-122160560D01*
X142151350Y-122160560D01*
X142211128Y-122122143D01*
X142305377Y-122013373D01*
X142365165Y-121882457D01*
X142385647Y-121740000D01*
X142365165Y-121597543D01*
X142305377Y-121466627D01*
X142211128Y-121357857D01*
X142154182Y-121321260D01*
X142090054Y-121280047D01*
X142090050Y-121280046D01*
X141951964Y-121239500D01*
X141951961Y-121239500D01*
X141808039Y-121239500D01*
X141808036Y-121239500D01*
X141669949Y-121280046D01*
X141669945Y-121280047D01*
X141548875Y-121357855D01*
X141548868Y-121357860D01*
X141454623Y-121466626D01*
X141394834Y-121597545D01*
X141374353Y-121740000D01*
X136146163Y-121740000D01*
X136154695Y-121647929D01*
X136155429Y-121640003D01*
X136155429Y-121639996D01*
X136135757Y-121427696D01*
X136135756Y-121427690D01*
X136097558Y-121293440D01*
X136077405Y-121222611D01*
X136061415Y-121190499D01*
X135982367Y-121031747D01*
X135982363Y-121031741D01*
X135957291Y-120998541D01*
X135853872Y-120861593D01*
X135696302Y-120717948D01*
X135515019Y-120605702D01*
X135316198Y-120528679D01*
X135224150Y-120511472D01*
X135106613Y-120489500D01*
X135106610Y-120489500D01*
X134893390Y-120489500D01*
X134893386Y-120489500D01*
X134736670Y-120518796D01*
X134683802Y-120528679D01*
X134683800Y-120528679D01*
X134683798Y-120528680D01*
X134484986Y-120605700D01*
X134484981Y-120605702D01*
X134484976Y-120605704D01*
X134484976Y-120605705D01*
X134303700Y-120717946D01*
X134146130Y-120861590D01*
X134017636Y-121031741D01*
X134017632Y-121031747D01*
X133922596Y-121222606D01*
X133922593Y-121222616D01*
X133864243Y-121427690D01*
X133864242Y-121427696D01*
X133844571Y-121639996D01*
X133844571Y-121640003D01*
X133864242Y-121852303D01*
X133864243Y-121852309D01*
X133922593Y-122057383D01*
X133922596Y-122057393D01*
X134017632Y-122248252D01*
X134017634Y-122248255D01*
X134146128Y-122418407D01*
X134303698Y-122562052D01*
X134484981Y-122674298D01*
X134683802Y-122751321D01*
X134839161Y-122780362D01*
X134886899Y-122789287D01*
X134934351Y-122820207D01*
X134946041Y-122875625D01*
X134915121Y-122923077D01*
X134879751Y-122935745D01*
X134782113Y-122944287D01*
X134782106Y-122944288D01*
X134570849Y-123000894D01*
X134570838Y-123000899D01*
X134372612Y-123093334D01*
X134193445Y-123218787D01*
X134038787Y-123373445D01*
X133913334Y-123552612D01*
X133820899Y-123750838D01*
X133820894Y-123750849D01*
X133764288Y-123962106D01*
X133764287Y-123962114D01*
X133756160Y-124054999D01*
X128300500Y-124054999D01*
X128300500Y-119099996D01*
X133844571Y-119099996D01*
X133844571Y-119100003D01*
X133864242Y-119312303D01*
X133864243Y-119312309D01*
X133922593Y-119517383D01*
X133922596Y-119517393D01*
X134017632Y-119708252D01*
X134017634Y-119708255D01*
X134146128Y-119878407D01*
X134303698Y-120022052D01*
X134484981Y-120134298D01*
X134683802Y-120211321D01*
X134893390Y-120250500D01*
X135106610Y-120250500D01*
X135316198Y-120211321D01*
X135515019Y-120134298D01*
X135696302Y-120022052D01*
X135853872Y-119878407D01*
X135982366Y-119708255D01*
X135996435Y-119680000D01*
X144414353Y-119680000D01*
X144434834Y-119822454D01*
X144494623Y-119953373D01*
X144588868Y-120062139D01*
X144588869Y-120062140D01*
X144588872Y-120062143D01*
X144683174Y-120122747D01*
X144715476Y-120169270D01*
X144705420Y-120225007D01*
X144683174Y-120247252D01*
X144677631Y-120250815D01*
X144588875Y-120307855D01*
X144588868Y-120307860D01*
X144494623Y-120416626D01*
X144434834Y-120547545D01*
X144414353Y-120690000D01*
X144434834Y-120832454D01*
X144494623Y-120963373D01*
X144588868Y-121072139D01*
X144588869Y-121072140D01*
X144588872Y-121072143D01*
X144709947Y-121149953D01*
X144816403Y-121181211D01*
X144848035Y-121190499D01*
X144848037Y-121190500D01*
X144848039Y-121190500D01*
X144991963Y-121190500D01*
X144991964Y-121190499D01*
X145130053Y-121149953D01*
X145138445Y-121144560D01*
X164304200Y-121144560D01*
X164304200Y-121293439D01*
X164333243Y-121439452D01*
X164333245Y-121439459D01*
X164390218Y-121577005D01*
X164472929Y-121700790D01*
X164472932Y-121700794D01*
X164578206Y-121806068D01*
X164701994Y-121888781D01*
X164839541Y-121945755D01*
X164985560Y-121974800D01*
X164985561Y-121974800D01*
X165134439Y-121974800D01*
X165134440Y-121974800D01*
X165280459Y-121945755D01*
X165418006Y-121888781D01*
X165541794Y-121806068D01*
X165647068Y-121700794D01*
X165687692Y-121639996D01*
X169844571Y-121639996D01*
X169844571Y-121640003D01*
X169864242Y-121852303D01*
X169864243Y-121852309D01*
X169922593Y-122057383D01*
X169922596Y-122057393D01*
X170017632Y-122248252D01*
X170017634Y-122248255D01*
X170146128Y-122418407D01*
X170303698Y-122562052D01*
X170484981Y-122674298D01*
X170683802Y-122751321D01*
X170893390Y-122790500D01*
X171106610Y-122790500D01*
X171316198Y-122751321D01*
X171515019Y-122674298D01*
X171696302Y-122562052D01*
X171853872Y-122418407D01*
X171982366Y-122248255D01*
X172077405Y-122057389D01*
X172135756Y-121852310D01*
X172154695Y-121647929D01*
X172155429Y-121640003D01*
X172155429Y-121639996D01*
X172135757Y-121427696D01*
X172135756Y-121427690D01*
X172097558Y-121293440D01*
X172077405Y-121222611D01*
X172061415Y-121190499D01*
X171982367Y-121031747D01*
X171982363Y-121031741D01*
X171957291Y-120998541D01*
X171853872Y-120861593D01*
X171696302Y-120717948D01*
X171515019Y-120605702D01*
X171316198Y-120528679D01*
X171224150Y-120511472D01*
X171106613Y-120489500D01*
X171106610Y-120489500D01*
X170893390Y-120489500D01*
X170893386Y-120489500D01*
X170736670Y-120518796D01*
X170683802Y-120528679D01*
X170683800Y-120528679D01*
X170683798Y-120528680D01*
X170484986Y-120605700D01*
X170484981Y-120605702D01*
X170484976Y-120605704D01*
X170484976Y-120605705D01*
X170303700Y-120717946D01*
X170146130Y-120861590D01*
X170017636Y-121031741D01*
X170017632Y-121031747D01*
X169922596Y-121222606D01*
X169922593Y-121222616D01*
X169864243Y-121427690D01*
X169864242Y-121427696D01*
X169844571Y-121639996D01*
X165687692Y-121639996D01*
X165729781Y-121577006D01*
X165786755Y-121439459D01*
X165815800Y-121293440D01*
X165815800Y-121144560D01*
X165786755Y-120998541D01*
X165729781Y-120860994D01*
X165647068Y-120737206D01*
X165541794Y-120631932D01*
X165502543Y-120605705D01*
X165418005Y-120549218D01*
X165280459Y-120492245D01*
X165280452Y-120492243D01*
X165170450Y-120470362D01*
X165134440Y-120463200D01*
X164985560Y-120463200D01*
X164956674Y-120468945D01*
X164839547Y-120492243D01*
X164839540Y-120492245D01*
X164701994Y-120549218D01*
X164578209Y-120631929D01*
X164472929Y-120737209D01*
X164390218Y-120860994D01*
X164333245Y-120998540D01*
X164333243Y-120998547D01*
X164304200Y-121144560D01*
X145138445Y-121144560D01*
X145251128Y-121072143D01*
X145345377Y-120963373D01*
X145405165Y-120832457D01*
X145425647Y-120690000D01*
X145405165Y-120547543D01*
X145345377Y-120416627D01*
X145251128Y-120307857D01*
X145156824Y-120247251D01*
X145124523Y-120200730D01*
X145134579Y-120144993D01*
X145156822Y-120122749D01*
X145251128Y-120062143D01*
X145345377Y-119953373D01*
X145405165Y-119822457D01*
X145425647Y-119680000D01*
X145411419Y-119581042D01*
X158532050Y-119581042D01*
X158532050Y-119808957D01*
X158567703Y-120034059D01*
X158567706Y-120034072D01*
X158638130Y-120250815D01*
X158638132Y-120250821D01*
X158741600Y-120453887D01*
X158741603Y-120453893D01*
X158875562Y-120638271D01*
X158875566Y-120638276D01*
X159036724Y-120799434D01*
X159221109Y-120933398D01*
X159417113Y-121033267D01*
X159424178Y-121036867D01*
X159424182Y-121036869D01*
X159640927Y-121107293D01*
X159640933Y-121107294D01*
X159640938Y-121107296D01*
X159753491Y-121125123D01*
X159866042Y-121142950D01*
X159866044Y-121142950D01*
X160093958Y-121142950D01*
X160183998Y-121128688D01*
X160319062Y-121107296D01*
X160319069Y-121107293D01*
X160319072Y-121107293D01*
X160535817Y-121036869D01*
X160535817Y-121036868D01*
X160535820Y-121036868D01*
X160738891Y-120933398D01*
X160923276Y-120799434D01*
X161084434Y-120638276D01*
X161218398Y-120453891D01*
X161321868Y-120250820D01*
X161321973Y-120250499D01*
X161392293Y-120034072D01*
X161392293Y-120034069D01*
X161392296Y-120034062D01*
X161427950Y-119808956D01*
X161427950Y-119581044D01*
X161427950Y-119581042D01*
X161707050Y-119581042D01*
X161707050Y-119808957D01*
X161742703Y-120034059D01*
X161742706Y-120034072D01*
X161813130Y-120250815D01*
X161813132Y-120250821D01*
X161916600Y-120453887D01*
X161916603Y-120453893D01*
X162050562Y-120638271D01*
X162050566Y-120638276D01*
X162211724Y-120799434D01*
X162396109Y-120933398D01*
X162592113Y-121033267D01*
X162599178Y-121036867D01*
X162599182Y-121036869D01*
X162815927Y-121107293D01*
X162815933Y-121107294D01*
X162815938Y-121107296D01*
X162928491Y-121125123D01*
X163041042Y-121142950D01*
X163041044Y-121142950D01*
X163268958Y-121142950D01*
X163358998Y-121128688D01*
X163494062Y-121107296D01*
X163494069Y-121107293D01*
X163494072Y-121107293D01*
X163710817Y-121036869D01*
X163710817Y-121036868D01*
X163710820Y-121036868D01*
X163913891Y-120933398D01*
X164098276Y-120799434D01*
X164259434Y-120638276D01*
X164393398Y-120453891D01*
X164496868Y-120250820D01*
X164496973Y-120250499D01*
X164567293Y-120034072D01*
X164567293Y-120034069D01*
X164567296Y-120034062D01*
X164602950Y-119808956D01*
X164602950Y-119581044D01*
X164592868Y-119517393D01*
X164585123Y-119468491D01*
X164567296Y-119355938D01*
X164567294Y-119355933D01*
X164567293Y-119355927D01*
X164496869Y-119139182D01*
X164496867Y-119139178D01*
X164476903Y-119099996D01*
X169844571Y-119099996D01*
X169844571Y-119100003D01*
X169864242Y-119312303D01*
X169864243Y-119312309D01*
X169922593Y-119517383D01*
X169922596Y-119517393D01*
X170017632Y-119708252D01*
X170017634Y-119708255D01*
X170146128Y-119878407D01*
X170303698Y-120022052D01*
X170484981Y-120134298D01*
X170683802Y-120211321D01*
X170893390Y-120250500D01*
X171106610Y-120250500D01*
X171316198Y-120211321D01*
X171515019Y-120134298D01*
X171696302Y-120022052D01*
X171853872Y-119878407D01*
X171982366Y-119708255D01*
X172077405Y-119517389D01*
X172135756Y-119312310D01*
X172137096Y-119297857D01*
X172155429Y-119100003D01*
X172155429Y-119099996D01*
X172135757Y-118887696D01*
X172135756Y-118887690D01*
X172097071Y-118751728D01*
X172077405Y-118682611D01*
X172059944Y-118647545D01*
X171982367Y-118491747D01*
X171982363Y-118491741D01*
X171919016Y-118407857D01*
X171853872Y-118321593D01*
X171696302Y-118177948D01*
X171515019Y-118065702D01*
X171316198Y-117988679D01*
X171224150Y-117971472D01*
X171106613Y-117949500D01*
X171106610Y-117949500D01*
X170893390Y-117949500D01*
X170893386Y-117949500D01*
X170736670Y-117978796D01*
X170683802Y-117988679D01*
X170683800Y-117988679D01*
X170683798Y-117988680D01*
X170484986Y-118065700D01*
X170484981Y-118065702D01*
X170484976Y-118065704D01*
X170484976Y-118065705D01*
X170303700Y-118177946D01*
X170146130Y-118321590D01*
X170017636Y-118491741D01*
X170017632Y-118491747D01*
X169922596Y-118682606D01*
X169922593Y-118682616D01*
X169864243Y-118887690D01*
X169864242Y-118887696D01*
X169844571Y-119099996D01*
X164476903Y-119099996D01*
X164458242Y-119063373D01*
X164393398Y-118936109D01*
X164390742Y-118932454D01*
X164259437Y-118751728D01*
X164259436Y-118751727D01*
X164259434Y-118751724D01*
X164098276Y-118590566D01*
X164098273Y-118590563D01*
X164098271Y-118590562D01*
X163913893Y-118456603D01*
X163913887Y-118456600D01*
X163710821Y-118353132D01*
X163710817Y-118353130D01*
X163494072Y-118282706D01*
X163494059Y-118282703D01*
X163268958Y-118247050D01*
X163268956Y-118247050D01*
X163041044Y-118247050D01*
X163041042Y-118247050D01*
X162815940Y-118282703D01*
X162815927Y-118282706D01*
X162599182Y-118353130D01*
X162599178Y-118353132D01*
X162396112Y-118456600D01*
X162396106Y-118456603D01*
X162211728Y-118590562D01*
X162050562Y-118751728D01*
X161916603Y-118936106D01*
X161916600Y-118936112D01*
X161813132Y-119139178D01*
X161813130Y-119139182D01*
X161742706Y-119355927D01*
X161742703Y-119355940D01*
X161707050Y-119581042D01*
X161427950Y-119581042D01*
X161417868Y-119517393D01*
X161410123Y-119468491D01*
X161392296Y-119355938D01*
X161392294Y-119355933D01*
X161392293Y-119355927D01*
X161321869Y-119139182D01*
X161321867Y-119139178D01*
X161283242Y-119063373D01*
X161218398Y-118936109D01*
X161215742Y-118932454D01*
X161084437Y-118751728D01*
X161084436Y-118751727D01*
X161084434Y-118751724D01*
X160923276Y-118590566D01*
X160923273Y-118590563D01*
X160923271Y-118590562D01*
X160738893Y-118456603D01*
X160738887Y-118456600D01*
X160535821Y-118353132D01*
X160535817Y-118353130D01*
X160319072Y-118282706D01*
X160319059Y-118282703D01*
X160093958Y-118247050D01*
X160093956Y-118247050D01*
X159866044Y-118247050D01*
X159866042Y-118247050D01*
X159640940Y-118282703D01*
X159640927Y-118282706D01*
X159424182Y-118353130D01*
X159424178Y-118353132D01*
X159221112Y-118456600D01*
X159221106Y-118456603D01*
X159036728Y-118590562D01*
X158875562Y-118751728D01*
X158741603Y-118936106D01*
X158741600Y-118936112D01*
X158638132Y-119139178D01*
X158638130Y-119139182D01*
X158567706Y-119355927D01*
X158567703Y-119355940D01*
X158532050Y-119581042D01*
X145411419Y-119581042D01*
X145405165Y-119537543D01*
X145345377Y-119406627D01*
X145301446Y-119355927D01*
X145251131Y-119297860D01*
X145251129Y-119297859D01*
X145251128Y-119297857D01*
X145176586Y-119249952D01*
X145130054Y-119220047D01*
X145130050Y-119220046D01*
X144991964Y-119179500D01*
X144991961Y-119179500D01*
X144848039Y-119179500D01*
X144848036Y-119179500D01*
X144709949Y-119220046D01*
X144709945Y-119220047D01*
X144588875Y-119297855D01*
X144588868Y-119297860D01*
X144494623Y-119406626D01*
X144434834Y-119537545D01*
X144414353Y-119680000D01*
X135996435Y-119680000D01*
X136077405Y-119517389D01*
X136135756Y-119312310D01*
X136137096Y-119297857D01*
X136155429Y-119100003D01*
X136155429Y-119099996D01*
X136135757Y-118887696D01*
X136135756Y-118887690D01*
X136107960Y-118790000D01*
X141394353Y-118790000D01*
X141414834Y-118932454D01*
X141414834Y-118932455D01*
X141414835Y-118932457D01*
X141474623Y-119063373D01*
X141568868Y-119172139D01*
X141568869Y-119172140D01*
X141568872Y-119172143D01*
X141689947Y-119249953D01*
X141796403Y-119281211D01*
X141828035Y-119290499D01*
X141828037Y-119290500D01*
X141828039Y-119290500D01*
X141971963Y-119290500D01*
X141971964Y-119290499D01*
X142110053Y-119249953D01*
X142231128Y-119172143D01*
X142325377Y-119063373D01*
X142385165Y-118932457D01*
X142405647Y-118790000D01*
X142385165Y-118647543D01*
X142325377Y-118516627D01*
X142273366Y-118456603D01*
X142231131Y-118407860D01*
X142231129Y-118407859D01*
X142231128Y-118407857D01*
X142145971Y-118353130D01*
X142110054Y-118330047D01*
X142110050Y-118330046D01*
X141971964Y-118289500D01*
X141971961Y-118289500D01*
X141828039Y-118289500D01*
X141828036Y-118289500D01*
X141689949Y-118330046D01*
X141689945Y-118330047D01*
X141568875Y-118407855D01*
X141568868Y-118407860D01*
X141474623Y-118516626D01*
X141414834Y-118647545D01*
X141394353Y-118790000D01*
X136107960Y-118790000D01*
X136097071Y-118751728D01*
X136077405Y-118682611D01*
X136059944Y-118647545D01*
X135982367Y-118491747D01*
X135982363Y-118491741D01*
X135919016Y-118407857D01*
X135853872Y-118321593D01*
X135696302Y-118177948D01*
X135515019Y-118065702D01*
X135316198Y-117988679D01*
X135224150Y-117971472D01*
X135106613Y-117949500D01*
X135106610Y-117949500D01*
X134893390Y-117949500D01*
X134893386Y-117949500D01*
X134736670Y-117978796D01*
X134683802Y-117988679D01*
X134683800Y-117988679D01*
X134683798Y-117988680D01*
X134484986Y-118065700D01*
X134484981Y-118065702D01*
X134484976Y-118065704D01*
X134484976Y-118065705D01*
X134303700Y-118177946D01*
X134146130Y-118321590D01*
X134017636Y-118491741D01*
X134017632Y-118491747D01*
X133922596Y-118682606D01*
X133922593Y-118682616D01*
X133864243Y-118887690D01*
X133864242Y-118887696D01*
X133844571Y-119099996D01*
X128300500Y-119099996D01*
X128300500Y-116559996D01*
X133844571Y-116559996D01*
X133844571Y-116560003D01*
X133864242Y-116772303D01*
X133864243Y-116772309D01*
X133922593Y-116977383D01*
X133922596Y-116977393D01*
X134017632Y-117168252D01*
X134017634Y-117168255D01*
X134146128Y-117338407D01*
X134303698Y-117482052D01*
X134484981Y-117594298D01*
X134683802Y-117671321D01*
X134893390Y-117710500D01*
X135106610Y-117710500D01*
X135316198Y-117671321D01*
X135515019Y-117594298D01*
X135696302Y-117482052D01*
X135853872Y-117338407D01*
X135982366Y-117168255D01*
X136077405Y-116977389D01*
X136135756Y-116772310D01*
X136144264Y-116680500D01*
X136155429Y-116560003D01*
X136155429Y-116559996D01*
X136135757Y-116347696D01*
X136135756Y-116347690D01*
X136102270Y-116230000D01*
X154724865Y-116230000D01*
X154743300Y-116358223D01*
X154743300Y-116358224D01*
X154743301Y-116358226D01*
X154797116Y-116476063D01*
X154881949Y-116573967D01*
X154990929Y-116644004D01*
X155115226Y-116680500D01*
X155244770Y-116680500D01*
X155369067Y-116644004D01*
X155478047Y-116573967D01*
X155490153Y-116559996D01*
X169844571Y-116559996D01*
X169844571Y-116560003D01*
X169864242Y-116772303D01*
X169864243Y-116772309D01*
X169922593Y-116977383D01*
X169922596Y-116977393D01*
X170017632Y-117168252D01*
X170017634Y-117168255D01*
X170146128Y-117338407D01*
X170303698Y-117482052D01*
X170484981Y-117594298D01*
X170683802Y-117671321D01*
X170893390Y-117710500D01*
X171106610Y-117710500D01*
X171316198Y-117671321D01*
X171515019Y-117594298D01*
X171696302Y-117482052D01*
X171853872Y-117338407D01*
X171982366Y-117168255D01*
X172077405Y-116977389D01*
X172135756Y-116772310D01*
X172144264Y-116680500D01*
X172155429Y-116560003D01*
X172155429Y-116559996D01*
X172135757Y-116347696D01*
X172135756Y-116347690D01*
X172077405Y-116142611D01*
X171982366Y-115951745D01*
X171853872Y-115781593D01*
X171696302Y-115637948D01*
X171515019Y-115525702D01*
X171316198Y-115448679D01*
X171224150Y-115431472D01*
X171106613Y-115409500D01*
X171106610Y-115409500D01*
X170893390Y-115409500D01*
X170893386Y-115409500D01*
X170736670Y-115438796D01*
X170683802Y-115448679D01*
X170683800Y-115448679D01*
X170683798Y-115448680D01*
X170484986Y-115525700D01*
X170484981Y-115525702D01*
X170484976Y-115525704D01*
X170484976Y-115525705D01*
X170303700Y-115637946D01*
X170146130Y-115781590D01*
X170017636Y-115951741D01*
X170017632Y-115951747D01*
X169922596Y-116142606D01*
X169922593Y-116142616D01*
X169864243Y-116347690D01*
X169864242Y-116347696D01*
X169844571Y-116559996D01*
X155490153Y-116559996D01*
X155562880Y-116476063D01*
X155616695Y-116358226D01*
X155635131Y-116230000D01*
X155616695Y-116101774D01*
X155562880Y-115983937D01*
X155478047Y-115886033D01*
X155411030Y-115842964D01*
X155369066Y-115815995D01*
X155244770Y-115779500D01*
X155115226Y-115779500D01*
X154990929Y-115815995D01*
X154881952Y-115886031D01*
X154881948Y-115886034D01*
X154797117Y-115983935D01*
X154743300Y-116101776D01*
X154724865Y-116230000D01*
X136102270Y-116230000D01*
X136077405Y-116142611D01*
X135982366Y-115951745D01*
X135853872Y-115781593D01*
X135696302Y-115637948D01*
X135515019Y-115525702D01*
X135316198Y-115448679D01*
X135224150Y-115431472D01*
X135106613Y-115409500D01*
X135106610Y-115409500D01*
X134893390Y-115409500D01*
X134893386Y-115409500D01*
X134736670Y-115438796D01*
X134683802Y-115448679D01*
X134683800Y-115448679D01*
X134683798Y-115448680D01*
X134484986Y-115525700D01*
X134484981Y-115525702D01*
X134484976Y-115525704D01*
X134484976Y-115525705D01*
X134303700Y-115637946D01*
X134146130Y-115781590D01*
X134017636Y-115951741D01*
X134017632Y-115951747D01*
X133922596Y-116142606D01*
X133922593Y-116142616D01*
X133864243Y-116347690D01*
X133864242Y-116347696D01*
X133844571Y-116559996D01*
X128300500Y-116559996D01*
X128300500Y-114019996D01*
X133844571Y-114019996D01*
X133844571Y-114020003D01*
X133864242Y-114232303D01*
X133864243Y-114232309D01*
X133922593Y-114437383D01*
X133922596Y-114437393D01*
X134017632Y-114628252D01*
X134017634Y-114628255D01*
X134146128Y-114798407D01*
X134303698Y-114942052D01*
X134484981Y-115054298D01*
X134683802Y-115131321D01*
X134893390Y-115170500D01*
X135106610Y-115170500D01*
X135316198Y-115131321D01*
X135515019Y-115054298D01*
X135696302Y-114942052D01*
X135853872Y-114798407D01*
X135982366Y-114628255D01*
X136077405Y-114437389D01*
X136135756Y-114232310D01*
X136155429Y-114020000D01*
X136155429Y-114019996D01*
X169844571Y-114019996D01*
X169844571Y-114020003D01*
X169864242Y-114232303D01*
X169864243Y-114232309D01*
X169922593Y-114437383D01*
X169922596Y-114437393D01*
X170017632Y-114628252D01*
X170017634Y-114628255D01*
X170146128Y-114798407D01*
X170303698Y-114942052D01*
X170484981Y-115054298D01*
X170683802Y-115131321D01*
X170893390Y-115170500D01*
X171106610Y-115170500D01*
X171316198Y-115131321D01*
X171515019Y-115054298D01*
X171696302Y-114942052D01*
X171853872Y-114798407D01*
X171982366Y-114628255D01*
X172077405Y-114437389D01*
X172135756Y-114232310D01*
X172155429Y-114020000D01*
X172135756Y-113807690D01*
X172077405Y-113602611D01*
X171982366Y-113411745D01*
X171853872Y-113241593D01*
X171696302Y-113097948D01*
X171515019Y-112985702D01*
X171316198Y-112908679D01*
X171224150Y-112891472D01*
X171106613Y-112869500D01*
X171106610Y-112869500D01*
X170893390Y-112869500D01*
X170893386Y-112869500D01*
X170736670Y-112898796D01*
X170683802Y-112908679D01*
X170683800Y-112908679D01*
X170683798Y-112908680D01*
X170484986Y-112985700D01*
X170484981Y-112985702D01*
X170484976Y-112985704D01*
X170484976Y-112985705D01*
X170303700Y-113097946D01*
X170146130Y-113241590D01*
X170017636Y-113411741D01*
X170017632Y-113411747D01*
X169922596Y-113602606D01*
X169922593Y-113602616D01*
X169864243Y-113807690D01*
X169864242Y-113807696D01*
X169844571Y-114019996D01*
X136155429Y-114019996D01*
X136135756Y-113807690D01*
X136077405Y-113602611D01*
X135982366Y-113411745D01*
X135853872Y-113241593D01*
X135696302Y-113097948D01*
X135515019Y-112985702D01*
X135316198Y-112908679D01*
X135224150Y-112891472D01*
X135106613Y-112869500D01*
X135106610Y-112869500D01*
X134893390Y-112869500D01*
X134893386Y-112869500D01*
X134736670Y-112898796D01*
X134683802Y-112908679D01*
X134683800Y-112908679D01*
X134683798Y-112908680D01*
X134484986Y-112985700D01*
X134484981Y-112985702D01*
X134484976Y-112985704D01*
X134484976Y-112985705D01*
X134303700Y-113097946D01*
X134146130Y-113241590D01*
X134017636Y-113411741D01*
X134017632Y-113411747D01*
X133922596Y-113602606D01*
X133922593Y-113602616D01*
X133864243Y-113807690D01*
X133864242Y-113807696D01*
X133844571Y-114019996D01*
X128300500Y-114019996D01*
X128300500Y-111479996D01*
X133844571Y-111479996D01*
X133844571Y-111480003D01*
X133864242Y-111692303D01*
X133864243Y-111692309D01*
X133922593Y-111897383D01*
X133922596Y-111897393D01*
X134017632Y-112088252D01*
X134017634Y-112088255D01*
X134146128Y-112258407D01*
X134303698Y-112402052D01*
X134484981Y-112514298D01*
X134683802Y-112591321D01*
X134893390Y-112630500D01*
X135106610Y-112630500D01*
X135316198Y-112591321D01*
X135515019Y-112514298D01*
X135696302Y-112402052D01*
X135808247Y-112300000D01*
X155369865Y-112300000D01*
X155388300Y-112428223D01*
X155388300Y-112428224D01*
X155388301Y-112428226D01*
X155442116Y-112546063D01*
X155526949Y-112643967D01*
X155635929Y-112714004D01*
X155760226Y-112750500D01*
X155889770Y-112750500D01*
X156014067Y-112714004D01*
X156123047Y-112643967D01*
X156207880Y-112546063D01*
X156261695Y-112428226D01*
X156280131Y-112300000D01*
X156261695Y-112171774D01*
X156207880Y-112053937D01*
X156123047Y-111956033D01*
X156031786Y-111897383D01*
X156014066Y-111885995D01*
X155889770Y-111849500D01*
X155760226Y-111849500D01*
X155635929Y-111885995D01*
X155526952Y-111956031D01*
X155526948Y-111956034D01*
X155442117Y-112053935D01*
X155388300Y-112171776D01*
X155369865Y-112300000D01*
X135808247Y-112300000D01*
X135853872Y-112258407D01*
X135982366Y-112088255D01*
X136077405Y-111897389D01*
X136135756Y-111692310D01*
X136155429Y-111480000D01*
X136155429Y-111479996D01*
X169844571Y-111479996D01*
X169844571Y-111480003D01*
X169864242Y-111692303D01*
X169864243Y-111692309D01*
X169922593Y-111897383D01*
X169922596Y-111897393D01*
X170017632Y-112088252D01*
X170017634Y-112088255D01*
X170146128Y-112258407D01*
X170303698Y-112402052D01*
X170484981Y-112514298D01*
X170683802Y-112591321D01*
X170893390Y-112630500D01*
X171106610Y-112630500D01*
X171316198Y-112591321D01*
X171515019Y-112514298D01*
X171696302Y-112402052D01*
X171853872Y-112258407D01*
X171982366Y-112088255D01*
X172077405Y-111897389D01*
X172135756Y-111692310D01*
X172155429Y-111480000D01*
X172135756Y-111267690D01*
X172077405Y-111062611D01*
X171982366Y-110871745D01*
X171853872Y-110701593D01*
X171696302Y-110557948D01*
X171515019Y-110445702D01*
X171316198Y-110368679D01*
X171224150Y-110351472D01*
X171106613Y-110329500D01*
X171106610Y-110329500D01*
X170893390Y-110329500D01*
X170893386Y-110329500D01*
X170736670Y-110358796D01*
X170683802Y-110368679D01*
X170683800Y-110368679D01*
X170683798Y-110368680D01*
X170484986Y-110445700D01*
X170484981Y-110445702D01*
X170484976Y-110445704D01*
X170484976Y-110445705D01*
X170303700Y-110557946D01*
X170146130Y-110701590D01*
X170017636Y-110871741D01*
X170017632Y-110871747D01*
X169922596Y-111062606D01*
X169922593Y-111062616D01*
X169864243Y-111267690D01*
X169864242Y-111267696D01*
X169844571Y-111479996D01*
X136155429Y-111479996D01*
X136135756Y-111267690D01*
X136077405Y-111062611D01*
X135982366Y-110871745D01*
X135853872Y-110701593D01*
X135696302Y-110557948D01*
X135515019Y-110445702D01*
X135316198Y-110368679D01*
X135224150Y-110351472D01*
X135106613Y-110329500D01*
X135106610Y-110329500D01*
X134893390Y-110329500D01*
X134893386Y-110329500D01*
X134736670Y-110358796D01*
X134683802Y-110368679D01*
X134683800Y-110368679D01*
X134683798Y-110368680D01*
X134484986Y-110445700D01*
X134484981Y-110445702D01*
X134484976Y-110445704D01*
X134484976Y-110445705D01*
X134303700Y-110557946D01*
X134146130Y-110701590D01*
X134017636Y-110871741D01*
X134017632Y-110871747D01*
X133922596Y-111062606D01*
X133922593Y-111062616D01*
X133864243Y-111267690D01*
X133864242Y-111267696D01*
X133844571Y-111479996D01*
X128300500Y-111479996D01*
X128300500Y-108939996D01*
X133844571Y-108939996D01*
X133844571Y-108940003D01*
X133864242Y-109152303D01*
X133864243Y-109152309D01*
X133922593Y-109357383D01*
X133922596Y-109357393D01*
X134017632Y-109548252D01*
X134017636Y-109548258D01*
X134053737Y-109596063D01*
X134146128Y-109718407D01*
X134303698Y-109862052D01*
X134484981Y-109974298D01*
X134683802Y-110051321D01*
X134893390Y-110090500D01*
X135106610Y-110090500D01*
X135316198Y-110051321D01*
X135515019Y-109974298D01*
X135696302Y-109862052D01*
X135753400Y-109810000D01*
X155714867Y-109810000D01*
X155733302Y-109938223D01*
X155733302Y-109938224D01*
X155733303Y-109938226D01*
X155787118Y-110056063D01*
X155871951Y-110153967D01*
X155980931Y-110224004D01*
X156105228Y-110260500D01*
X156234772Y-110260500D01*
X156359069Y-110224004D01*
X156468049Y-110153967D01*
X156552882Y-110056063D01*
X156606697Y-109938226D01*
X156625133Y-109810000D01*
X156606697Y-109681774D01*
X156552882Y-109563937D01*
X156468049Y-109466033D01*
X156401032Y-109422964D01*
X156359068Y-109395995D01*
X156234772Y-109359500D01*
X156105228Y-109359500D01*
X155980931Y-109395995D01*
X155871954Y-109466031D01*
X155871950Y-109466034D01*
X155787119Y-109563935D01*
X155733302Y-109681776D01*
X155714867Y-109810000D01*
X135753400Y-109810000D01*
X135853872Y-109718407D01*
X135982366Y-109548255D01*
X136077405Y-109357389D01*
X136079507Y-109350000D01*
X138734867Y-109350000D01*
X138753302Y-109478223D01*
X138753302Y-109478224D01*
X138753303Y-109478226D01*
X138807118Y-109596063D01*
X138891951Y-109693967D01*
X139000931Y-109764004D01*
X139125228Y-109800500D01*
X139254772Y-109800500D01*
X139379069Y-109764004D01*
X139488049Y-109693967D01*
X139572882Y-109596063D01*
X139626697Y-109478226D01*
X139645133Y-109350000D01*
X139626697Y-109221774D01*
X139572882Y-109103937D01*
X139488049Y-109006033D01*
X139379069Y-108935996D01*
X139379068Y-108935995D01*
X139379067Y-108935995D01*
X139367064Y-108932471D01*
X139322963Y-108896934D01*
X139316908Y-108840621D01*
X139352445Y-108796520D01*
X139367064Y-108790465D01*
X139377070Y-108787527D01*
X139389069Y-108784004D01*
X139498049Y-108713967D01*
X139582882Y-108616063D01*
X139636697Y-108498226D01*
X139655133Y-108370000D01*
X139636697Y-108241774D01*
X139582882Y-108123937D01*
X139498049Y-108026033D01*
X139431032Y-107982964D01*
X139389068Y-107955995D01*
X139264772Y-107919500D01*
X139135228Y-107919500D01*
X139010931Y-107955995D01*
X138901954Y-108026031D01*
X138901950Y-108026034D01*
X138817119Y-108123935D01*
X138763302Y-108241776D01*
X138744867Y-108370000D01*
X138763302Y-108498223D01*
X138763302Y-108498224D01*
X138763303Y-108498226D01*
X138817118Y-108616063D01*
X138901951Y-108713967D01*
X139010931Y-108784004D01*
X139022933Y-108787528D01*
X139067034Y-108823063D01*
X139073092Y-108879375D01*
X139037556Y-108923477D01*
X139022938Y-108929533D01*
X139000933Y-108935994D01*
X138891954Y-109006031D01*
X138891950Y-109006034D01*
X138807119Y-109103935D01*
X138753302Y-109221776D01*
X138734867Y-109350000D01*
X136079507Y-109350000D01*
X136135756Y-109152310D01*
X136140239Y-109103937D01*
X136155429Y-108940003D01*
X136155429Y-108939996D01*
X136135757Y-108727696D01*
X136135756Y-108727690D01*
X136077406Y-108522616D01*
X136077405Y-108522611D01*
X136065261Y-108498223D01*
X135982367Y-108331747D01*
X135982363Y-108331741D01*
X135914422Y-108241774D01*
X135853872Y-108161593D01*
X135696302Y-108017948D01*
X135515019Y-107905702D01*
X135316198Y-107828679D01*
X135224150Y-107811472D01*
X135106613Y-107789500D01*
X135106610Y-107789500D01*
X134893390Y-107789500D01*
X134893386Y-107789500D01*
X134736670Y-107818796D01*
X134683802Y-107828679D01*
X134683800Y-107828679D01*
X134683798Y-107828680D01*
X134484986Y-107905700D01*
X134484981Y-107905702D01*
X134484976Y-107905704D01*
X134484976Y-107905705D01*
X134303700Y-108017946D01*
X134146130Y-108161590D01*
X134017636Y-108331741D01*
X134017632Y-108331747D01*
X133922596Y-108522606D01*
X133922593Y-108522616D01*
X133864243Y-108727690D01*
X133864242Y-108727696D01*
X133844571Y-108939996D01*
X128300500Y-108939996D01*
X128300500Y-106399996D01*
X133844571Y-106399996D01*
X133844571Y-106400003D01*
X133864242Y-106612303D01*
X133864243Y-106612309D01*
X133922593Y-106817383D01*
X133922596Y-106817393D01*
X134017632Y-107008252D01*
X134017634Y-107008255D01*
X134146128Y-107178407D01*
X134303698Y-107322052D01*
X134484981Y-107434298D01*
X134683802Y-107511321D01*
X134893390Y-107550500D01*
X135106610Y-107550500D01*
X135316198Y-107511321D01*
X135515019Y-107434298D01*
X135696302Y-107322052D01*
X135853872Y-107178407D01*
X135982366Y-107008255D01*
X136077405Y-106817389D01*
X136135756Y-106612310D01*
X136143847Y-106525000D01*
X136155429Y-106400003D01*
X136155429Y-106399996D01*
X136135757Y-106187696D01*
X136135756Y-106187690D01*
X136115991Y-106118226D01*
X136079507Y-105990000D01*
X145764867Y-105990000D01*
X145783302Y-106118223D01*
X145783302Y-106118224D01*
X145783303Y-106118226D01*
X145837118Y-106236063D01*
X145921951Y-106333967D01*
X146030931Y-106404004D01*
X146155228Y-106440500D01*
X146284772Y-106440500D01*
X146409069Y-106404004D01*
X146518049Y-106333967D01*
X146569144Y-106274999D01*
X169756160Y-106274999D01*
X169756161Y-106275000D01*
X170515856Y-106275000D01*
X170500000Y-106334174D01*
X170500000Y-106465826D01*
X170515856Y-106525000D01*
X169756161Y-106525000D01*
X169764287Y-106617885D01*
X169764288Y-106617893D01*
X169820895Y-106829153D01*
X169913334Y-107027388D01*
X170038785Y-107206551D01*
X170193448Y-107361214D01*
X170372611Y-107486665D01*
X170570846Y-107579104D01*
X170782106Y-107635711D01*
X170782113Y-107635712D01*
X170879750Y-107644254D01*
X170929988Y-107670405D01*
X170947019Y-107724421D01*
X170920868Y-107774659D01*
X170886899Y-107790712D01*
X170715095Y-107822829D01*
X170683802Y-107828679D01*
X170683800Y-107828679D01*
X170683798Y-107828680D01*
X170484986Y-107905700D01*
X170484981Y-107905702D01*
X170484976Y-107905704D01*
X170484976Y-107905705D01*
X170303700Y-108017946D01*
X170146130Y-108161590D01*
X170017636Y-108331741D01*
X170017632Y-108331747D01*
X169922596Y-108522606D01*
X169922593Y-108522616D01*
X169864243Y-108727690D01*
X169864242Y-108727696D01*
X169844571Y-108939996D01*
X169844571Y-108940003D01*
X169864242Y-109152303D01*
X169864243Y-109152309D01*
X169922593Y-109357383D01*
X169922596Y-109357393D01*
X170017632Y-109548252D01*
X170017636Y-109548258D01*
X170053737Y-109596063D01*
X170146128Y-109718407D01*
X170303698Y-109862052D01*
X170484981Y-109974298D01*
X170683802Y-110051321D01*
X170893390Y-110090500D01*
X171106610Y-110090500D01*
X171316198Y-110051321D01*
X171515019Y-109974298D01*
X171696302Y-109862052D01*
X171853872Y-109718407D01*
X171982366Y-109548255D01*
X172077405Y-109357389D01*
X172135756Y-109152310D01*
X172140239Y-109103937D01*
X172155429Y-108940003D01*
X172155429Y-108939996D01*
X172135757Y-108727696D01*
X172135756Y-108727690D01*
X172077406Y-108522616D01*
X172077405Y-108522611D01*
X172065261Y-108498223D01*
X171982367Y-108331747D01*
X171982363Y-108331741D01*
X171914422Y-108241774D01*
X171853872Y-108161593D01*
X171696302Y-108017948D01*
X171515019Y-107905702D01*
X171316198Y-107828679D01*
X171261711Y-107818493D01*
X171113100Y-107790712D01*
X171065648Y-107759792D01*
X171053958Y-107704374D01*
X171084878Y-107656922D01*
X171120249Y-107644254D01*
X171217886Y-107635712D01*
X171217893Y-107635711D01*
X171429153Y-107579104D01*
X171627388Y-107486665D01*
X171806551Y-107361214D01*
X171961214Y-107206551D01*
X172086665Y-107027388D01*
X172179104Y-106829153D01*
X172235711Y-106617893D01*
X172235712Y-106617885D01*
X172243839Y-106525000D01*
X171484144Y-106525000D01*
X171500000Y-106465826D01*
X171500000Y-106334174D01*
X171484144Y-106275000D01*
X172243839Y-106275000D01*
X172243839Y-106274999D01*
X172235712Y-106182114D01*
X172235711Y-106182106D01*
X172179105Y-105970849D01*
X172179100Y-105970838D01*
X172086665Y-105772612D01*
X171961212Y-105593445D01*
X171806551Y-105438785D01*
X171806552Y-105438785D01*
X171627388Y-105313334D01*
X171429153Y-105220895D01*
X171217893Y-105164288D01*
X171217886Y-105164287D01*
X171120248Y-105155745D01*
X171070011Y-105129593D01*
X171052980Y-105075577D01*
X171079132Y-105025340D01*
X171113100Y-105009287D01*
X171145538Y-105003223D01*
X171316198Y-104971321D01*
X171515019Y-104894298D01*
X171696302Y-104782052D01*
X171853872Y-104638407D01*
X171982366Y-104468255D01*
X172077405Y-104277389D01*
X172135756Y-104072310D01*
X172155429Y-103860000D01*
X172155429Y-103859996D01*
X172135757Y-103647696D01*
X172135756Y-103647690D01*
X172134696Y-103643965D01*
X172077405Y-103442611D01*
X172070242Y-103428226D01*
X171982367Y-103251747D01*
X171982363Y-103251741D01*
X171944425Y-103201504D01*
X171853872Y-103081593D01*
X171696302Y-102937948D01*
X171660407Y-102915723D01*
X171612395Y-102885995D01*
X171515019Y-102825702D01*
X171316198Y-102748679D01*
X171224150Y-102731472D01*
X171106613Y-102709500D01*
X171106610Y-102709500D01*
X170893390Y-102709500D01*
X170893386Y-102709500D01*
X170736670Y-102738796D01*
X170683802Y-102748679D01*
X170683800Y-102748679D01*
X170683798Y-102748680D01*
X170484986Y-102825700D01*
X170484981Y-102825702D01*
X170484976Y-102825704D01*
X170484976Y-102825705D01*
X170303700Y-102937946D01*
X170146130Y-103081590D01*
X170017636Y-103251741D01*
X170017632Y-103251747D01*
X169922596Y-103442606D01*
X169922593Y-103442616D01*
X169864243Y-103647690D01*
X169864242Y-103647696D01*
X169844571Y-103859996D01*
X169844571Y-103860003D01*
X169864242Y-104072303D01*
X169864243Y-104072309D01*
X169922593Y-104277383D01*
X169922596Y-104277393D01*
X170017632Y-104468252D01*
X170017636Y-104468258D01*
X170062814Y-104528082D01*
X170146128Y-104638407D01*
X170303698Y-104782052D01*
X170484981Y-104894298D01*
X170683802Y-104971321D01*
X170839161Y-105000362D01*
X170886899Y-105009287D01*
X170934351Y-105040207D01*
X170946041Y-105095625D01*
X170915121Y-105143077D01*
X170879751Y-105155745D01*
X170782113Y-105164287D01*
X170782106Y-105164288D01*
X170570849Y-105220894D01*
X170570838Y-105220899D01*
X170372612Y-105313334D01*
X170193445Y-105438787D01*
X170038787Y-105593445D01*
X169913334Y-105772612D01*
X169820899Y-105970838D01*
X169820894Y-105970849D01*
X169764288Y-106182106D01*
X169764287Y-106182114D01*
X169756160Y-106274999D01*
X146569144Y-106274999D01*
X146602882Y-106236063D01*
X146656697Y-106118226D01*
X146675133Y-105990000D01*
X146656697Y-105861774D01*
X146602882Y-105743937D01*
X146586473Y-105725000D01*
X158469867Y-105725000D01*
X158488302Y-105853223D01*
X158488302Y-105853224D01*
X158488303Y-105853226D01*
X158542118Y-105971063D01*
X158626951Y-106068967D01*
X158735931Y-106139004D01*
X158860228Y-106175500D01*
X158989772Y-106175500D01*
X159114069Y-106139004D01*
X159223049Y-106068967D01*
X159307882Y-105971063D01*
X159361697Y-105853226D01*
X159380133Y-105725000D01*
X159361697Y-105596774D01*
X159307882Y-105478937D01*
X159223049Y-105381033D01*
X159136638Y-105325500D01*
X159114068Y-105310995D01*
X158989772Y-105274500D01*
X158860228Y-105274500D01*
X158735931Y-105310995D01*
X158626954Y-105381031D01*
X158626950Y-105381034D01*
X158542119Y-105478935D01*
X158488302Y-105596776D01*
X158469867Y-105725000D01*
X146586473Y-105725000D01*
X146518049Y-105646033D01*
X146451032Y-105602964D01*
X146409068Y-105575995D01*
X146284772Y-105539500D01*
X146155228Y-105539500D01*
X146030931Y-105575995D01*
X145921954Y-105646031D01*
X145921950Y-105646034D01*
X145837119Y-105743935D01*
X145783302Y-105861776D01*
X145764867Y-105990000D01*
X136079507Y-105990000D01*
X136077405Y-105982611D01*
X136071655Y-105971064D01*
X135982367Y-105791747D01*
X135982363Y-105791741D01*
X135872328Y-105646033D01*
X135853872Y-105621593D01*
X135696302Y-105477948D01*
X135515019Y-105365702D01*
X135316198Y-105288679D01*
X135224150Y-105271472D01*
X135106613Y-105249500D01*
X135106610Y-105249500D01*
X134893390Y-105249500D01*
X134893386Y-105249500D01*
X134754303Y-105275500D01*
X134683802Y-105288679D01*
X134683800Y-105288679D01*
X134683798Y-105288680D01*
X134484986Y-105365700D01*
X134484981Y-105365702D01*
X134484976Y-105365704D01*
X134484976Y-105365705D01*
X134303700Y-105477946D01*
X134146130Y-105621590D01*
X134017636Y-105791741D01*
X134017632Y-105791747D01*
X133922596Y-105982606D01*
X133922593Y-105982616D01*
X133864243Y-106187690D01*
X133864242Y-106187696D01*
X133844571Y-106399996D01*
X128300500Y-106399996D01*
X128300500Y-103859996D01*
X133844571Y-103859996D01*
X133844571Y-103860003D01*
X133864242Y-104072303D01*
X133864243Y-104072309D01*
X133922593Y-104277383D01*
X133922596Y-104277393D01*
X134017632Y-104468252D01*
X134017636Y-104468258D01*
X134062814Y-104528082D01*
X134146128Y-104638407D01*
X134303698Y-104782052D01*
X134484981Y-104894298D01*
X134683802Y-104971321D01*
X134893390Y-105010500D01*
X135106610Y-105010500D01*
X135316198Y-104971321D01*
X135515019Y-104894298D01*
X135546186Y-104875000D01*
X151794867Y-104875000D01*
X151813302Y-105003223D01*
X151813302Y-105003224D01*
X151813303Y-105003226D01*
X151867118Y-105121063D01*
X151951951Y-105218967D01*
X152060931Y-105289004D01*
X152185228Y-105325500D01*
X152314772Y-105325500D01*
X152439069Y-105289004D01*
X152548049Y-105218967D01*
X152632882Y-105121063D01*
X152686697Y-105003226D01*
X152705133Y-104875000D01*
X152699382Y-104835000D01*
X152954867Y-104835000D01*
X152973302Y-104963223D01*
X152973302Y-104963224D01*
X152973303Y-104963226D01*
X153027118Y-105081063D01*
X153111951Y-105178967D01*
X153220931Y-105249004D01*
X153345228Y-105285500D01*
X153474772Y-105285500D01*
X153599069Y-105249004D01*
X153708049Y-105178967D01*
X153792882Y-105081063D01*
X153846697Y-104963226D01*
X153865133Y-104835000D01*
X153863695Y-104825000D01*
X154869867Y-104825000D01*
X154888302Y-104953223D01*
X154888302Y-104953224D01*
X154888303Y-104953226D01*
X154942118Y-105071063D01*
X155026951Y-105168967D01*
X155135931Y-105239004D01*
X155260228Y-105275500D01*
X155389772Y-105275500D01*
X155514069Y-105239004D01*
X155623049Y-105168967D01*
X155707882Y-105071063D01*
X155761697Y-104953226D01*
X155780133Y-104825000D01*
X155761697Y-104696774D01*
X155707882Y-104578937D01*
X155623049Y-104481033D01*
X155535082Y-104424500D01*
X155514068Y-104410995D01*
X155389772Y-104374500D01*
X155260228Y-104374500D01*
X155135931Y-104410995D01*
X155026954Y-104481031D01*
X155026950Y-104481034D01*
X154942119Y-104578935D01*
X154942118Y-104578936D01*
X154942118Y-104578937D01*
X154915210Y-104637855D01*
X154888302Y-104696776D01*
X154869867Y-104825000D01*
X153863695Y-104825000D01*
X153846697Y-104706774D01*
X153792882Y-104588937D01*
X153708049Y-104491033D01*
X153641032Y-104447964D01*
X153599068Y-104420995D01*
X153474772Y-104384500D01*
X153345228Y-104384500D01*
X153220931Y-104420995D01*
X153111954Y-104491031D01*
X153111950Y-104491034D01*
X153027119Y-104588935D01*
X152973302Y-104706776D01*
X152954867Y-104835000D01*
X152699382Y-104835000D01*
X152686697Y-104746774D01*
X152632882Y-104628937D01*
X152548049Y-104531033D01*
X152450369Y-104468258D01*
X152439068Y-104460995D01*
X152314772Y-104424500D01*
X152185228Y-104424500D01*
X152060931Y-104460995D01*
X151951954Y-104531031D01*
X151951950Y-104531034D01*
X151867119Y-104628935D01*
X151813302Y-104746776D01*
X151794867Y-104875000D01*
X135546186Y-104875000D01*
X135696302Y-104782052D01*
X135853872Y-104638407D01*
X135982366Y-104468255D01*
X136077405Y-104277389D01*
X136135756Y-104072310D01*
X136136103Y-104068564D01*
X150294124Y-104068564D01*
X150312559Y-104196787D01*
X150312559Y-104196788D01*
X150312560Y-104196790D01*
X150366375Y-104314627D01*
X150451208Y-104412531D01*
X150560188Y-104482568D01*
X150684485Y-104519064D01*
X150814029Y-104519064D01*
X150938326Y-104482568D01*
X151047306Y-104412531D01*
X151132139Y-104314627D01*
X151185954Y-104196790D01*
X151204390Y-104068564D01*
X151185954Y-103940338D01*
X151132139Y-103822501D01*
X151047306Y-103724597D01*
X150980289Y-103681528D01*
X150938325Y-103654559D01*
X150814029Y-103618064D01*
X150684485Y-103618064D01*
X150560188Y-103654559D01*
X150451211Y-103724595D01*
X150451207Y-103724598D01*
X150366376Y-103822499D01*
X150312559Y-103940340D01*
X150294124Y-104068564D01*
X136136103Y-104068564D01*
X136155429Y-103860000D01*
X136155429Y-103859996D01*
X136135757Y-103647696D01*
X136135756Y-103647690D01*
X136134696Y-103643965D01*
X136077405Y-103442611D01*
X136070242Y-103428226D01*
X136006394Y-103300000D01*
X155169867Y-103300000D01*
X155188302Y-103428223D01*
X155188302Y-103428224D01*
X155188303Y-103428226D01*
X155242118Y-103546063D01*
X155326951Y-103643967D01*
X155435931Y-103714004D01*
X155560228Y-103750500D01*
X155689772Y-103750500D01*
X155814069Y-103714004D01*
X155923049Y-103643967D01*
X156007882Y-103546063D01*
X156061697Y-103428226D01*
X156080133Y-103300000D01*
X156061697Y-103171774D01*
X156007882Y-103053937D01*
X155923049Y-102956033D01*
X155856032Y-102912964D01*
X155814068Y-102885995D01*
X155689772Y-102849500D01*
X155560228Y-102849500D01*
X155435931Y-102885995D01*
X155326954Y-102956031D01*
X155326950Y-102956034D01*
X155242119Y-103053935D01*
X155188302Y-103171776D01*
X155169867Y-103300000D01*
X136006394Y-103300000D01*
X135982367Y-103251747D01*
X135982363Y-103251741D01*
X135944425Y-103201504D01*
X135853872Y-103081593D01*
X135696302Y-102937948D01*
X135660407Y-102915723D01*
X135612395Y-102885995D01*
X135515019Y-102825702D01*
X135416407Y-102787500D01*
X150782367Y-102787500D01*
X150800802Y-102915723D01*
X150800802Y-102915724D01*
X150800803Y-102915726D01*
X150854618Y-103033563D01*
X150939451Y-103131467D01*
X151048431Y-103201504D01*
X151172728Y-103238000D01*
X151302272Y-103238000D01*
X151426569Y-103201504D01*
X151535549Y-103131467D01*
X151620382Y-103033563D01*
X151674197Y-102915726D01*
X151692633Y-102787500D01*
X151674197Y-102659274D01*
X151620382Y-102541437D01*
X151535549Y-102443533D01*
X151468532Y-102400464D01*
X151426568Y-102373495D01*
X151302272Y-102337000D01*
X151172728Y-102337000D01*
X151048431Y-102373495D01*
X150939454Y-102443531D01*
X150939450Y-102443534D01*
X150854619Y-102541435D01*
X150800802Y-102659276D01*
X150782367Y-102787500D01*
X135416407Y-102787500D01*
X135316198Y-102748679D01*
X135224150Y-102731472D01*
X135106613Y-102709500D01*
X135106610Y-102709500D01*
X134893390Y-102709500D01*
X134893386Y-102709500D01*
X134736670Y-102738796D01*
X134683802Y-102748679D01*
X134683800Y-102748679D01*
X134683798Y-102748680D01*
X134484986Y-102825700D01*
X134484981Y-102825702D01*
X134484976Y-102825704D01*
X134484976Y-102825705D01*
X134303700Y-102937946D01*
X134146130Y-103081590D01*
X134017636Y-103251741D01*
X134017632Y-103251747D01*
X133922596Y-103442606D01*
X133922593Y-103442616D01*
X133864243Y-103647690D01*
X133864242Y-103647696D01*
X133844571Y-103859996D01*
X128300500Y-103859996D01*
X128300500Y-101319996D01*
X133844571Y-101319996D01*
X133844571Y-101320003D01*
X133864242Y-101532303D01*
X133864243Y-101532309D01*
X133922593Y-101737383D01*
X133922596Y-101737393D01*
X134017632Y-101928252D01*
X134017634Y-101928255D01*
X134146128Y-102098407D01*
X134303698Y-102242052D01*
X134484981Y-102354298D01*
X134683802Y-102431321D01*
X134893390Y-102470500D01*
X135106610Y-102470500D01*
X135316198Y-102431321D01*
X135515019Y-102354298D01*
X135696302Y-102242052D01*
X135853872Y-102098407D01*
X135982366Y-101928255D01*
X136077405Y-101737389D01*
X136135756Y-101532310D01*
X136145654Y-101425500D01*
X136155429Y-101320003D01*
X136155429Y-101319996D01*
X136135757Y-101107696D01*
X136135756Y-101107690D01*
X136112228Y-101025000D01*
X146144867Y-101025000D01*
X146163302Y-101153223D01*
X146163302Y-101153224D01*
X146163303Y-101153226D01*
X146217118Y-101271063D01*
X146301951Y-101368967D01*
X146410931Y-101439004D01*
X146535228Y-101475500D01*
X146664772Y-101475500D01*
X146789069Y-101439004D01*
X146898049Y-101368967D01*
X146982882Y-101271063D01*
X147036697Y-101153226D01*
X147055133Y-101025000D01*
X147047944Y-100975000D01*
X152294867Y-100975000D01*
X152313302Y-101103223D01*
X152313302Y-101103224D01*
X152313303Y-101103226D01*
X152367118Y-101221063D01*
X152451951Y-101318967D01*
X152560931Y-101389004D01*
X152685228Y-101425500D01*
X152814772Y-101425500D01*
X152939069Y-101389004D01*
X153048049Y-101318967D01*
X153073149Y-101290000D01*
X155104867Y-101290000D01*
X155123302Y-101418223D01*
X155123302Y-101418224D01*
X155123303Y-101418226D01*
X155177118Y-101536063D01*
X155261951Y-101633967D01*
X155370931Y-101704004D01*
X155495228Y-101740500D01*
X155624772Y-101740500D01*
X155749069Y-101704004D01*
X155858049Y-101633967D01*
X155942882Y-101536063D01*
X155996697Y-101418226D01*
X156010820Y-101319996D01*
X169844571Y-101319996D01*
X169844571Y-101320003D01*
X169864242Y-101532303D01*
X169864243Y-101532309D01*
X169922593Y-101737383D01*
X169922596Y-101737393D01*
X170017632Y-101928252D01*
X170017634Y-101928255D01*
X170146128Y-102098407D01*
X170303698Y-102242052D01*
X170484981Y-102354298D01*
X170683802Y-102431321D01*
X170893390Y-102470500D01*
X171106610Y-102470500D01*
X171316198Y-102431321D01*
X171515019Y-102354298D01*
X171696302Y-102242052D01*
X171853872Y-102098407D01*
X171982366Y-101928255D01*
X172077405Y-101737389D01*
X172135756Y-101532310D01*
X172145654Y-101425500D01*
X172155429Y-101320003D01*
X172155429Y-101319996D01*
X172135757Y-101107696D01*
X172135756Y-101107690D01*
X172089759Y-100946031D01*
X172077405Y-100902611D01*
X172064152Y-100875996D01*
X171982367Y-100711747D01*
X171982363Y-100711741D01*
X171950841Y-100670000D01*
X171853872Y-100541593D01*
X171696302Y-100397948D01*
X171515019Y-100285702D01*
X171382471Y-100234353D01*
X171316201Y-100208680D01*
X171316200Y-100208679D01*
X171316198Y-100208679D01*
X171224150Y-100191472D01*
X171106613Y-100169500D01*
X171106610Y-100169500D01*
X170893390Y-100169500D01*
X170893386Y-100169500D01*
X170736670Y-100198796D01*
X170683802Y-100208679D01*
X170683800Y-100208679D01*
X170683798Y-100208680D01*
X170520928Y-100271776D01*
X170484981Y-100285702D01*
X170484976Y-100285704D01*
X170484976Y-100285705D01*
X170303700Y-100397946D01*
X170146130Y-100541590D01*
X170017636Y-100711741D01*
X170017632Y-100711747D01*
X169922596Y-100902606D01*
X169922593Y-100902616D01*
X169864243Y-101107690D01*
X169864242Y-101107696D01*
X169844571Y-101319996D01*
X156010820Y-101319996D01*
X156015133Y-101290000D01*
X155996697Y-101161774D01*
X155942882Y-101043937D01*
X155858049Y-100946033D01*
X155790475Y-100902606D01*
X155749068Y-100875995D01*
X155624772Y-100839500D01*
X155495228Y-100839500D01*
X155370931Y-100875995D01*
X155261954Y-100946031D01*
X155261950Y-100946034D01*
X155177119Y-101043935D01*
X155123302Y-101161776D01*
X155104867Y-101290000D01*
X153073149Y-101290000D01*
X153132882Y-101221063D01*
X153186697Y-101103226D01*
X153205133Y-100975000D01*
X153186697Y-100846774D01*
X153132882Y-100728937D01*
X153081814Y-100670000D01*
X153674867Y-100670000D01*
X153693302Y-100798223D01*
X153693302Y-100798224D01*
X153693303Y-100798226D01*
X153747118Y-100916063D01*
X153831951Y-101013967D01*
X153940931Y-101084004D01*
X154065228Y-101120500D01*
X154194772Y-101120500D01*
X154319069Y-101084004D01*
X154428049Y-101013967D01*
X154512882Y-100916063D01*
X154566697Y-100798226D01*
X154585133Y-100670000D01*
X154566697Y-100541774D01*
X154512882Y-100423937D01*
X154428049Y-100326033D01*
X154343620Y-100271774D01*
X154319068Y-100255995D01*
X154194772Y-100219500D01*
X154065228Y-100219500D01*
X153940931Y-100255995D01*
X153831954Y-100326031D01*
X153831950Y-100326034D01*
X153747119Y-100423935D01*
X153693302Y-100541776D01*
X153674867Y-100670000D01*
X153081814Y-100670000D01*
X153048049Y-100631033D01*
X152960082Y-100574500D01*
X152939068Y-100560995D01*
X152814772Y-100524500D01*
X152685228Y-100524500D01*
X152560931Y-100560995D01*
X152451954Y-100631031D01*
X152451950Y-100631034D01*
X152367119Y-100728935D01*
X152367118Y-100728936D01*
X152367118Y-100728937D01*
X152340210Y-100787855D01*
X152313302Y-100846776D01*
X152294867Y-100975000D01*
X147047944Y-100975000D01*
X147036697Y-100896774D01*
X146982882Y-100778937D01*
X146898049Y-100681033D01*
X146820244Y-100631031D01*
X146789068Y-100610995D01*
X146664772Y-100574500D01*
X146535228Y-100574500D01*
X146410931Y-100610995D01*
X146301954Y-100681031D01*
X146301950Y-100681034D01*
X146217119Y-100778935D01*
X146163302Y-100896776D01*
X146144867Y-101025000D01*
X136112228Y-101025000D01*
X136089759Y-100946031D01*
X136077405Y-100902611D01*
X136064152Y-100875996D01*
X135982367Y-100711747D01*
X135982363Y-100711741D01*
X135950841Y-100670000D01*
X135853872Y-100541593D01*
X135698553Y-100400000D01*
X150234867Y-100400000D01*
X150253302Y-100528223D01*
X150253302Y-100528224D01*
X150253303Y-100528226D01*
X150307118Y-100646063D01*
X150391951Y-100743967D01*
X150500931Y-100814004D01*
X150625228Y-100850500D01*
X150754772Y-100850500D01*
X150879069Y-100814004D01*
X150988049Y-100743967D01*
X151072882Y-100646063D01*
X151126697Y-100528226D01*
X151145133Y-100400000D01*
X151126697Y-100271774D01*
X151072882Y-100153937D01*
X150988049Y-100056033D01*
X150921032Y-100012964D01*
X150879068Y-99985995D01*
X150754772Y-99949500D01*
X150625228Y-99949500D01*
X150500931Y-99985995D01*
X150391954Y-100056031D01*
X150391950Y-100056034D01*
X150307119Y-100153935D01*
X150253302Y-100271776D01*
X150234867Y-100400000D01*
X135698553Y-100400000D01*
X135696302Y-100397948D01*
X135515019Y-100285702D01*
X135382471Y-100234353D01*
X135316201Y-100208680D01*
X135316200Y-100208679D01*
X135316198Y-100208679D01*
X135224150Y-100191472D01*
X135106613Y-100169500D01*
X135106610Y-100169500D01*
X134893390Y-100169500D01*
X134893386Y-100169500D01*
X134736670Y-100198796D01*
X134683802Y-100208679D01*
X134683800Y-100208679D01*
X134683798Y-100208680D01*
X134520928Y-100271776D01*
X134484981Y-100285702D01*
X134484976Y-100285704D01*
X134484976Y-100285705D01*
X134303700Y-100397946D01*
X134146130Y-100541590D01*
X134017636Y-100711741D01*
X134017632Y-100711747D01*
X133922596Y-100902606D01*
X133922593Y-100902616D01*
X133864243Y-101107690D01*
X133864242Y-101107696D01*
X133844571Y-101319996D01*
X128300500Y-101319996D01*
X128300500Y-98779996D01*
X133844571Y-98779996D01*
X133844571Y-98780003D01*
X133864242Y-98992303D01*
X133864243Y-98992309D01*
X133922593Y-99197383D01*
X133922596Y-99197393D01*
X134017632Y-99388252D01*
X134017634Y-99388255D01*
X134146128Y-99558407D01*
X134303698Y-99702052D01*
X134484981Y-99814298D01*
X134683802Y-99891321D01*
X134893390Y-99930500D01*
X135106610Y-99930500D01*
X135316198Y-99891321D01*
X135515019Y-99814298D01*
X135696302Y-99702052D01*
X135725976Y-99675000D01*
X147194867Y-99675000D01*
X147213302Y-99803223D01*
X147213302Y-99803224D01*
X147213303Y-99803226D01*
X147267118Y-99921063D01*
X147351951Y-100018967D01*
X147460931Y-100089004D01*
X147585228Y-100125500D01*
X147714772Y-100125500D01*
X147839069Y-100089004D01*
X147948049Y-100018967D01*
X148032882Y-99921063D01*
X148086697Y-99803226D01*
X148087161Y-99800000D01*
X159384867Y-99800000D01*
X159403302Y-99928223D01*
X159403302Y-99928224D01*
X159403303Y-99928226D01*
X159457118Y-100046063D01*
X159541951Y-100143967D01*
X159650931Y-100214004D01*
X159775228Y-100250500D01*
X159904772Y-100250500D01*
X160029069Y-100214004D01*
X160138049Y-100143967D01*
X160222882Y-100046063D01*
X160276697Y-99928226D01*
X160280755Y-99900000D01*
X167044867Y-99900000D01*
X167063302Y-100028223D01*
X167063302Y-100028224D01*
X167063303Y-100028226D01*
X167117118Y-100146063D01*
X167201951Y-100243967D01*
X167310931Y-100314004D01*
X167435228Y-100350500D01*
X167564772Y-100350500D01*
X167689069Y-100314004D01*
X167798049Y-100243967D01*
X167882882Y-100146063D01*
X167936697Y-100028226D01*
X167955133Y-99900000D01*
X167936697Y-99771774D01*
X167882882Y-99653937D01*
X167798049Y-99556033D01*
X167731032Y-99512964D01*
X167689068Y-99485995D01*
X167564772Y-99449500D01*
X167435228Y-99449500D01*
X167310931Y-99485995D01*
X167201954Y-99556031D01*
X167201950Y-99556034D01*
X167117119Y-99653935D01*
X167063302Y-99771776D01*
X167044867Y-99900000D01*
X160280755Y-99900000D01*
X160295133Y-99800000D01*
X160276697Y-99671774D01*
X160222882Y-99553937D01*
X160138049Y-99456033D01*
X160032589Y-99388258D01*
X160029068Y-99385995D01*
X159904772Y-99349500D01*
X159775228Y-99349500D01*
X159650931Y-99385995D01*
X159541954Y-99456031D01*
X159541950Y-99456034D01*
X159457119Y-99553935D01*
X159403302Y-99671776D01*
X159384867Y-99800000D01*
X148087161Y-99800000D01*
X148105133Y-99675000D01*
X148086697Y-99546774D01*
X148032882Y-99428937D01*
X147948049Y-99331033D01*
X147881032Y-99287964D01*
X147839068Y-99260995D01*
X147714772Y-99224500D01*
X147585228Y-99224500D01*
X147460931Y-99260995D01*
X147351954Y-99331031D01*
X147351950Y-99331034D01*
X147267119Y-99428935D01*
X147213302Y-99546776D01*
X147194867Y-99675000D01*
X135725976Y-99675000D01*
X135853872Y-99558407D01*
X135982366Y-99388255D01*
X136077405Y-99197389D01*
X136135756Y-98992310D01*
X136155429Y-98780000D01*
X136155429Y-98779996D01*
X169844571Y-98779996D01*
X169844571Y-98780003D01*
X169864242Y-98992303D01*
X169864243Y-98992309D01*
X169922593Y-99197383D01*
X169922596Y-99197393D01*
X170017632Y-99388252D01*
X170017634Y-99388255D01*
X170146128Y-99558407D01*
X170303698Y-99702052D01*
X170484981Y-99814298D01*
X170683802Y-99891321D01*
X170893390Y-99930500D01*
X171106610Y-99930500D01*
X171316198Y-99891321D01*
X171515019Y-99814298D01*
X171696302Y-99702052D01*
X171853872Y-99558407D01*
X171982366Y-99388255D01*
X172077405Y-99197389D01*
X172135756Y-98992310D01*
X172155429Y-98780000D01*
X172135756Y-98567690D01*
X172077405Y-98362611D01*
X172058767Y-98325181D01*
X171982367Y-98171747D01*
X171982363Y-98171741D01*
X171893451Y-98054004D01*
X171853872Y-98001593D01*
X171834538Y-97983968D01*
X171798255Y-97950891D01*
X171696302Y-97857948D01*
X171515019Y-97745702D01*
X171316198Y-97668679D01*
X171224150Y-97651472D01*
X171106613Y-97629500D01*
X171106610Y-97629500D01*
X170893390Y-97629500D01*
X170893386Y-97629500D01*
X170736670Y-97658796D01*
X170683802Y-97668679D01*
X170683800Y-97668679D01*
X170683798Y-97668680D01*
X170484986Y-97745700D01*
X170484981Y-97745702D01*
X170484976Y-97745704D01*
X170484976Y-97745705D01*
X170303700Y-97857946D01*
X170146130Y-98001590D01*
X170017636Y-98171741D01*
X170017632Y-98171747D01*
X169922596Y-98362606D01*
X169922593Y-98362616D01*
X169864243Y-98567690D01*
X169864242Y-98567696D01*
X169844571Y-98779996D01*
X136155429Y-98779996D01*
X136135756Y-98567690D01*
X136077405Y-98362611D01*
X136058767Y-98325181D01*
X135982367Y-98171747D01*
X135982363Y-98171741D01*
X135893451Y-98054004D01*
X135853872Y-98001593D01*
X135834538Y-97983968D01*
X135798255Y-97950891D01*
X135696302Y-97857948D01*
X135515019Y-97745702D01*
X135316198Y-97668679D01*
X135224150Y-97651472D01*
X135162782Y-97640000D01*
X156554867Y-97640000D01*
X156573302Y-97768223D01*
X156573302Y-97768224D01*
X156573303Y-97768226D01*
X156627118Y-97886063D01*
X156711951Y-97983967D01*
X156820931Y-98054004D01*
X156945228Y-98090500D01*
X157074772Y-98090500D01*
X157113540Y-98079117D01*
X167044867Y-98079117D01*
X167063302Y-98207340D01*
X167063302Y-98207341D01*
X167063303Y-98207343D01*
X167117118Y-98325180D01*
X167201951Y-98423084D01*
X167310931Y-98493121D01*
X167435228Y-98529617D01*
X167564772Y-98529617D01*
X167689069Y-98493121D01*
X167798049Y-98423084D01*
X167882882Y-98325180D01*
X167936697Y-98207343D01*
X167955133Y-98079117D01*
X167936697Y-97950891D01*
X167882882Y-97833054D01*
X167798049Y-97735150D01*
X167731032Y-97692081D01*
X167689068Y-97665112D01*
X167564772Y-97628617D01*
X167435228Y-97628617D01*
X167310931Y-97665112D01*
X167201954Y-97735148D01*
X167201950Y-97735151D01*
X167117119Y-97833052D01*
X167063302Y-97950893D01*
X167044867Y-98079117D01*
X157113540Y-98079117D01*
X157199069Y-98054004D01*
X157308049Y-97983967D01*
X157392882Y-97886063D01*
X157446697Y-97768226D01*
X157465133Y-97640000D01*
X157446697Y-97511774D01*
X157392882Y-97393937D01*
X157308049Y-97296033D01*
X157241032Y-97252964D01*
X157199068Y-97225995D01*
X157074772Y-97189500D01*
X156945228Y-97189500D01*
X156820931Y-97225995D01*
X156711954Y-97296031D01*
X156711950Y-97296034D01*
X156627119Y-97393935D01*
X156573302Y-97511776D01*
X156554867Y-97640000D01*
X135162782Y-97640000D01*
X135106613Y-97629500D01*
X135106610Y-97629500D01*
X134893390Y-97629500D01*
X134893386Y-97629500D01*
X134736670Y-97658796D01*
X134683802Y-97668679D01*
X134683800Y-97668679D01*
X134683798Y-97668680D01*
X134484986Y-97745700D01*
X134484981Y-97745702D01*
X134484976Y-97745704D01*
X134484976Y-97745705D01*
X134303700Y-97857946D01*
X134146130Y-98001590D01*
X134017636Y-98171741D01*
X134017632Y-98171747D01*
X133922596Y-98362606D01*
X133922593Y-98362616D01*
X133864243Y-98567690D01*
X133864242Y-98567696D01*
X133844571Y-98779996D01*
X128300500Y-98779996D01*
X128300500Y-96239996D01*
X133844571Y-96239996D01*
X133844571Y-96240003D01*
X133864242Y-96452303D01*
X133864243Y-96452309D01*
X133922593Y-96657383D01*
X133922596Y-96657393D01*
X134017632Y-96848252D01*
X134017636Y-96848258D01*
X134062814Y-96908082D01*
X134146128Y-97018407D01*
X134303698Y-97162052D01*
X134484981Y-97274298D01*
X134683802Y-97351321D01*
X134893390Y-97390500D01*
X135106610Y-97390500D01*
X135316198Y-97351321D01*
X135515019Y-97274298D01*
X135696302Y-97162052D01*
X135853872Y-97018407D01*
X135982366Y-96848255D01*
X136077405Y-96657389D01*
X136096579Y-96590000D01*
X157694867Y-96590000D01*
X157713302Y-96718223D01*
X157713302Y-96718224D01*
X157713303Y-96718226D01*
X157767118Y-96836063D01*
X157851951Y-96933967D01*
X157960931Y-97004004D01*
X158085228Y-97040500D01*
X158214772Y-97040500D01*
X158339069Y-97004004D01*
X158376419Y-96980001D01*
X167044867Y-96980001D01*
X167063302Y-97108224D01*
X167063302Y-97108225D01*
X167063303Y-97108227D01*
X167117118Y-97226064D01*
X167201951Y-97323968D01*
X167310931Y-97394005D01*
X167435228Y-97430501D01*
X167564772Y-97430501D01*
X167689069Y-97394005D01*
X167798049Y-97323968D01*
X167882882Y-97226064D01*
X167936697Y-97108227D01*
X167955133Y-96980001D01*
X167936697Y-96851775D01*
X167882882Y-96733938D01*
X167798049Y-96636034D01*
X167726419Y-96590000D01*
X167689068Y-96565996D01*
X167564772Y-96529501D01*
X167435228Y-96529501D01*
X167310931Y-96565996D01*
X167201954Y-96636032D01*
X167201950Y-96636035D01*
X167117119Y-96733936D01*
X167063302Y-96851777D01*
X167044867Y-96980001D01*
X158376419Y-96980001D01*
X158448049Y-96933967D01*
X158532882Y-96836063D01*
X158586697Y-96718226D01*
X158605133Y-96590000D01*
X158586697Y-96461774D01*
X158532882Y-96343937D01*
X158448049Y-96246033D01*
X158438655Y-96239996D01*
X169844571Y-96239996D01*
X169844571Y-96240003D01*
X169864242Y-96452303D01*
X169864243Y-96452309D01*
X169922593Y-96657383D01*
X169922596Y-96657393D01*
X170017632Y-96848252D01*
X170017636Y-96848258D01*
X170062814Y-96908082D01*
X170146128Y-97018407D01*
X170303698Y-97162052D01*
X170484981Y-97274298D01*
X170683802Y-97351321D01*
X170893390Y-97390500D01*
X171106610Y-97390500D01*
X171316198Y-97351321D01*
X171515019Y-97274298D01*
X171696302Y-97162052D01*
X171853872Y-97018407D01*
X171982366Y-96848255D01*
X172077405Y-96657389D01*
X172135756Y-96452310D01*
X172145799Y-96343935D01*
X172155429Y-96240003D01*
X172155429Y-96239996D01*
X172135757Y-96027696D01*
X172135756Y-96027690D01*
X172118836Y-95968223D01*
X172077405Y-95822611D01*
X172022216Y-95711776D01*
X171982367Y-95631747D01*
X171982363Y-95631741D01*
X171953813Y-95593935D01*
X171853872Y-95461593D01*
X171696302Y-95317948D01*
X171515019Y-95205702D01*
X171316198Y-95128679D01*
X171224150Y-95111472D01*
X171106613Y-95089500D01*
X171106610Y-95089500D01*
X170893390Y-95089500D01*
X170893386Y-95089500D01*
X170736670Y-95118796D01*
X170683802Y-95128679D01*
X170683800Y-95128679D01*
X170683798Y-95128680D01*
X170484986Y-95205700D01*
X170484981Y-95205702D01*
X170484976Y-95205704D01*
X170484976Y-95205705D01*
X170303700Y-95317946D01*
X170146130Y-95461590D01*
X170017636Y-95631741D01*
X170017632Y-95631747D01*
X169922596Y-95822606D01*
X169922593Y-95822616D01*
X169864243Y-96027690D01*
X169864242Y-96027696D01*
X169844571Y-96239996D01*
X158438655Y-96239996D01*
X158351474Y-96183968D01*
X158339068Y-96175995D01*
X158214772Y-96139500D01*
X158085228Y-96139500D01*
X157960931Y-96175995D01*
X157851954Y-96246031D01*
X157851950Y-96246034D01*
X157767119Y-96343935D01*
X157713302Y-96461776D01*
X157694867Y-96590000D01*
X136096579Y-96590000D01*
X136135756Y-96452310D01*
X136145799Y-96343935D01*
X136155429Y-96240003D01*
X136155429Y-96239996D01*
X136135757Y-96027696D01*
X136135756Y-96027690D01*
X136118836Y-95968223D01*
X136082353Y-95840000D01*
X146604867Y-95840000D01*
X146623302Y-95968223D01*
X146623302Y-95968224D01*
X146623303Y-95968226D01*
X146677118Y-96086063D01*
X146761951Y-96183967D01*
X146870931Y-96254004D01*
X146995228Y-96290500D01*
X147124772Y-96290500D01*
X147249069Y-96254004D01*
X147358049Y-96183967D01*
X147442882Y-96086063D01*
X147496697Y-95968226D01*
X147515133Y-95840000D01*
X147496697Y-95711774D01*
X147442882Y-95593937D01*
X147358049Y-95496033D01*
X147291032Y-95452964D01*
X147249068Y-95425995D01*
X147124772Y-95389500D01*
X146995228Y-95389500D01*
X146870931Y-95425995D01*
X146761954Y-95496031D01*
X146761950Y-95496034D01*
X146677119Y-95593935D01*
X146623302Y-95711776D01*
X146604867Y-95840000D01*
X136082353Y-95840000D01*
X136077405Y-95822611D01*
X136022216Y-95711776D01*
X135982367Y-95631747D01*
X135982363Y-95631741D01*
X135953813Y-95593935D01*
X135853872Y-95461593D01*
X135696302Y-95317948D01*
X135515019Y-95205702D01*
X135316198Y-95128679D01*
X135224150Y-95111472D01*
X135106613Y-95089500D01*
X135106610Y-95089500D01*
X134893390Y-95089500D01*
X134893386Y-95089500D01*
X134736670Y-95118796D01*
X134683802Y-95128679D01*
X134683800Y-95128679D01*
X134683798Y-95128680D01*
X134484986Y-95205700D01*
X134484981Y-95205702D01*
X134484976Y-95205704D01*
X134484976Y-95205705D01*
X134303700Y-95317946D01*
X134146130Y-95461590D01*
X134017636Y-95631741D01*
X134017632Y-95631747D01*
X133922596Y-95822606D01*
X133922593Y-95822616D01*
X133864243Y-96027690D01*
X133864242Y-96027696D01*
X133844571Y-96239996D01*
X128300500Y-96239996D01*
X128300500Y-93699996D01*
X133844571Y-93699996D01*
X133844571Y-93700003D01*
X133864242Y-93912303D01*
X133864243Y-93912309D01*
X133922593Y-94117383D01*
X133922596Y-94117393D01*
X134017632Y-94308252D01*
X134017634Y-94308255D01*
X134146128Y-94478407D01*
X134303698Y-94622052D01*
X134484981Y-94734298D01*
X134683802Y-94811321D01*
X134893390Y-94850500D01*
X135106610Y-94850500D01*
X135316198Y-94811321D01*
X135515019Y-94734298D01*
X135696302Y-94622052D01*
X135853872Y-94478407D01*
X135982366Y-94308255D01*
X136077405Y-94117389D01*
X136105115Y-94020000D01*
X146574867Y-94020000D01*
X146593302Y-94148223D01*
X146593302Y-94148224D01*
X146593303Y-94148226D01*
X146647118Y-94266063D01*
X146731951Y-94363967D01*
X146840931Y-94434004D01*
X146965228Y-94470500D01*
X147094772Y-94470500D01*
X147219069Y-94434004D01*
X147328049Y-94363967D01*
X147412882Y-94266063D01*
X147466697Y-94148226D01*
X147485133Y-94020000D01*
X147466697Y-93891774D01*
X147412882Y-93773937D01*
X147348813Y-93699996D01*
X169844571Y-93699996D01*
X169844571Y-93700003D01*
X169864242Y-93912303D01*
X169864243Y-93912309D01*
X169922593Y-94117383D01*
X169922596Y-94117393D01*
X170017632Y-94308252D01*
X170017634Y-94308255D01*
X170146128Y-94478407D01*
X170303698Y-94622052D01*
X170484981Y-94734298D01*
X170683802Y-94811321D01*
X170893390Y-94850500D01*
X171106610Y-94850500D01*
X171316198Y-94811321D01*
X171515019Y-94734298D01*
X171696302Y-94622052D01*
X171853872Y-94478407D01*
X171982366Y-94308255D01*
X172077405Y-94117389D01*
X172135756Y-93912310D01*
X172155429Y-93700000D01*
X172155429Y-93699996D01*
X172135757Y-93487696D01*
X172135756Y-93487690D01*
X172077406Y-93282616D01*
X172077405Y-93282611D01*
X171982366Y-93091745D01*
X171853872Y-92921593D01*
X171696302Y-92777948D01*
X171515019Y-92665702D01*
X171316198Y-92588679D01*
X171224150Y-92571472D01*
X171106613Y-92549500D01*
X171106610Y-92549500D01*
X170893390Y-92549500D01*
X170893386Y-92549500D01*
X170736670Y-92578796D01*
X170683802Y-92588679D01*
X170683800Y-92588679D01*
X170683798Y-92588680D01*
X170484986Y-92665700D01*
X170484981Y-92665702D01*
X170484976Y-92665704D01*
X170484976Y-92665705D01*
X170303700Y-92777946D01*
X170146130Y-92921590D01*
X170017636Y-93091741D01*
X170017632Y-93091747D01*
X169922596Y-93282606D01*
X169922593Y-93282616D01*
X169864243Y-93487690D01*
X169864242Y-93487696D01*
X169844571Y-93699996D01*
X147348813Y-93699996D01*
X147328049Y-93676033D01*
X147261032Y-93632964D01*
X147219068Y-93605995D01*
X147094772Y-93569500D01*
X146965228Y-93569500D01*
X146840931Y-93605995D01*
X146731954Y-93676031D01*
X146731950Y-93676034D01*
X146647119Y-93773935D01*
X146593302Y-93891776D01*
X146574867Y-94020000D01*
X136105115Y-94020000D01*
X136135756Y-93912310D01*
X136155429Y-93700000D01*
X136155429Y-93699996D01*
X136135757Y-93487696D01*
X136135756Y-93487690D01*
X136077406Y-93282616D01*
X136077405Y-93282611D01*
X135982366Y-93091745D01*
X135853872Y-92921593D01*
X135696302Y-92777948D01*
X135515019Y-92665702D01*
X135316198Y-92588679D01*
X135224150Y-92571472D01*
X135106613Y-92549500D01*
X135106610Y-92549500D01*
X134893390Y-92549500D01*
X134893386Y-92549500D01*
X134736670Y-92578796D01*
X134683802Y-92588679D01*
X134683800Y-92588679D01*
X134683798Y-92588680D01*
X134484986Y-92665700D01*
X134484981Y-92665702D01*
X134484976Y-92665704D01*
X134484976Y-92665705D01*
X134303700Y-92777946D01*
X134146130Y-92921590D01*
X134017636Y-93091741D01*
X134017632Y-93091747D01*
X133922596Y-93282606D01*
X133922593Y-93282616D01*
X133864243Y-93487690D01*
X133864242Y-93487696D01*
X133844571Y-93699996D01*
X128300500Y-93699996D01*
X128300500Y-91159996D01*
X133844571Y-91159996D01*
X133844571Y-91160003D01*
X133864242Y-91372303D01*
X133864243Y-91372309D01*
X133922593Y-91577383D01*
X133922596Y-91577393D01*
X134017632Y-91768252D01*
X134017634Y-91768255D01*
X134146128Y-91938407D01*
X134303698Y-92082052D01*
X134484981Y-92194298D01*
X134683802Y-92271321D01*
X134893390Y-92310500D01*
X135106610Y-92310500D01*
X135316198Y-92271321D01*
X135515019Y-92194298D01*
X135696302Y-92082052D01*
X135853872Y-91938407D01*
X135982366Y-91768255D01*
X136077405Y-91577389D01*
X136135756Y-91372310D01*
X136155429Y-91160000D01*
X136155429Y-91159996D01*
X169844571Y-91159996D01*
X169844571Y-91160003D01*
X169864242Y-91372303D01*
X169864243Y-91372309D01*
X169922593Y-91577383D01*
X169922596Y-91577393D01*
X170017632Y-91768252D01*
X170017634Y-91768255D01*
X170146128Y-91938407D01*
X170303698Y-92082052D01*
X170484981Y-92194298D01*
X170683802Y-92271321D01*
X170893390Y-92310500D01*
X171106610Y-92310500D01*
X171316198Y-92271321D01*
X171515019Y-92194298D01*
X171696302Y-92082052D01*
X171853872Y-91938407D01*
X171982366Y-91768255D01*
X172077405Y-91577389D01*
X172135756Y-91372310D01*
X172155429Y-91160000D01*
X172135756Y-90947690D01*
X172077405Y-90742611D01*
X171982366Y-90551745D01*
X171853872Y-90381593D01*
X171696302Y-90237948D01*
X171515019Y-90125702D01*
X171316198Y-90048679D01*
X171224150Y-90031472D01*
X171106613Y-90009500D01*
X171106610Y-90009500D01*
X170893390Y-90009500D01*
X170893386Y-90009500D01*
X170736670Y-90038796D01*
X170683802Y-90048679D01*
X170683800Y-90048679D01*
X170683798Y-90048680D01*
X170484986Y-90125700D01*
X170484981Y-90125702D01*
X170484976Y-90125704D01*
X170484976Y-90125705D01*
X170303700Y-90237946D01*
X170146130Y-90381590D01*
X170017636Y-90551741D01*
X170017632Y-90551747D01*
X169922596Y-90742606D01*
X169922593Y-90742616D01*
X169864243Y-90947690D01*
X169864242Y-90947696D01*
X169844571Y-91159996D01*
X136155429Y-91159996D01*
X136135756Y-90947690D01*
X136077405Y-90742611D01*
X135982366Y-90551745D01*
X135853872Y-90381593D01*
X135696302Y-90237948D01*
X135515019Y-90125702D01*
X135316198Y-90048679D01*
X135224150Y-90031472D01*
X135106613Y-90009500D01*
X135106610Y-90009500D01*
X134893390Y-90009500D01*
X134893386Y-90009500D01*
X134736670Y-90038796D01*
X134683802Y-90048679D01*
X134683800Y-90048679D01*
X134683798Y-90048680D01*
X134484986Y-90125700D01*
X134484981Y-90125702D01*
X134484976Y-90125704D01*
X134484976Y-90125705D01*
X134303700Y-90237946D01*
X134146130Y-90381590D01*
X134017636Y-90551741D01*
X134017632Y-90551747D01*
X133922596Y-90742606D01*
X133922593Y-90742616D01*
X133864243Y-90947690D01*
X133864242Y-90947696D01*
X133844571Y-91159996D01*
X128300500Y-91159996D01*
X128300500Y-88619996D01*
X133844571Y-88619996D01*
X133844571Y-88620003D01*
X133864242Y-88832303D01*
X133864243Y-88832309D01*
X133922593Y-89037383D01*
X133922596Y-89037393D01*
X134017632Y-89228252D01*
X134017634Y-89228255D01*
X134146128Y-89398407D01*
X134303698Y-89542052D01*
X134484981Y-89654298D01*
X134683802Y-89731321D01*
X134893390Y-89770500D01*
X135106610Y-89770500D01*
X135316198Y-89731321D01*
X135515019Y-89654298D01*
X135696302Y-89542052D01*
X135853872Y-89398407D01*
X135982366Y-89228255D01*
X136046229Y-89100000D01*
X156594867Y-89100000D01*
X156613302Y-89228223D01*
X156613302Y-89228224D01*
X156613303Y-89228226D01*
X156667118Y-89346063D01*
X156751951Y-89443967D01*
X156860931Y-89514004D01*
X156985228Y-89550500D01*
X157114772Y-89550500D01*
X157239069Y-89514004D01*
X157348049Y-89443967D01*
X157432882Y-89346063D01*
X157486697Y-89228226D01*
X157505133Y-89100000D01*
X157486697Y-88971774D01*
X157432882Y-88853937D01*
X157348049Y-88756033D01*
X157281032Y-88712964D01*
X157239068Y-88685995D01*
X157114772Y-88649500D01*
X156985228Y-88649500D01*
X156860931Y-88685995D01*
X156751954Y-88756031D01*
X156751950Y-88756034D01*
X156667119Y-88853935D01*
X156613302Y-88971776D01*
X156594867Y-89100000D01*
X136046229Y-89100000D01*
X136077405Y-89037389D01*
X136135756Y-88832310D01*
X136152696Y-88649500D01*
X136155429Y-88620003D01*
X136155429Y-88619996D01*
X169844571Y-88619996D01*
X169844571Y-88620003D01*
X169864242Y-88832303D01*
X169864243Y-88832309D01*
X169922593Y-89037383D01*
X169922596Y-89037393D01*
X170017632Y-89228252D01*
X170017634Y-89228255D01*
X170146128Y-89398407D01*
X170303698Y-89542052D01*
X170484981Y-89654298D01*
X170683802Y-89731321D01*
X170893390Y-89770500D01*
X171106610Y-89770500D01*
X171316198Y-89731321D01*
X171515019Y-89654298D01*
X171696302Y-89542052D01*
X171853872Y-89398407D01*
X171982366Y-89228255D01*
X172077405Y-89037389D01*
X172135756Y-88832310D01*
X172152696Y-88649500D01*
X172155429Y-88620003D01*
X172155429Y-88619996D01*
X172135757Y-88407696D01*
X172135756Y-88407690D01*
X172077406Y-88202616D01*
X172077405Y-88202611D01*
X171982366Y-88011745D01*
X171853872Y-87841593D01*
X171696302Y-87697948D01*
X171515019Y-87585702D01*
X171316198Y-87508679D01*
X171224150Y-87491472D01*
X171106613Y-87469500D01*
X171106610Y-87469500D01*
X170893390Y-87469500D01*
X170893386Y-87469500D01*
X170736670Y-87498796D01*
X170683802Y-87508679D01*
X170683800Y-87508679D01*
X170683798Y-87508680D01*
X170484986Y-87585700D01*
X170484981Y-87585702D01*
X170484976Y-87585704D01*
X170484976Y-87585705D01*
X170303700Y-87697946D01*
X170146130Y-87841590D01*
X170017636Y-88011741D01*
X170017632Y-88011747D01*
X169922596Y-88202606D01*
X169922593Y-88202616D01*
X169864243Y-88407690D01*
X169864242Y-88407696D01*
X169844571Y-88619996D01*
X136155429Y-88619996D01*
X136135757Y-88407696D01*
X136135756Y-88407690D01*
X136077406Y-88202616D01*
X136077405Y-88202611D01*
X135982366Y-88011745D01*
X135853872Y-87841593D01*
X135696302Y-87697948D01*
X135515019Y-87585702D01*
X135316198Y-87508679D01*
X135224150Y-87491472D01*
X135106613Y-87469500D01*
X135106610Y-87469500D01*
X134893390Y-87469500D01*
X134893386Y-87469500D01*
X134736670Y-87498796D01*
X134683802Y-87508679D01*
X134683800Y-87508679D01*
X134683798Y-87508680D01*
X134484986Y-87585700D01*
X134484981Y-87585702D01*
X134484976Y-87585704D01*
X134484976Y-87585705D01*
X134303700Y-87697946D01*
X134146130Y-87841590D01*
X134017636Y-88011741D01*
X134017632Y-88011747D01*
X133922596Y-88202606D01*
X133922593Y-88202616D01*
X133864243Y-88407690D01*
X133864242Y-88407696D01*
X133844571Y-88619996D01*
X128300500Y-88619996D01*
X128300500Y-86079996D01*
X133844571Y-86079996D01*
X133844571Y-86080003D01*
X133864242Y-86292303D01*
X133864243Y-86292309D01*
X133922593Y-86497383D01*
X133922596Y-86497393D01*
X134017632Y-86688252D01*
X134017634Y-86688255D01*
X134146128Y-86858407D01*
X134303698Y-87002052D01*
X134484981Y-87114298D01*
X134683802Y-87191321D01*
X134893390Y-87230500D01*
X135106610Y-87230500D01*
X135316198Y-87191321D01*
X135515019Y-87114298D01*
X135696302Y-87002052D01*
X135853872Y-86858407D01*
X135982366Y-86688255D01*
X136077405Y-86497389D01*
X136135756Y-86292310D01*
X136143548Y-86208226D01*
X136155429Y-86080003D01*
X136155429Y-86080000D01*
X165294867Y-86080000D01*
X165313302Y-86208223D01*
X165313302Y-86208224D01*
X165313303Y-86208226D01*
X165367118Y-86326063D01*
X165451951Y-86423967D01*
X165560931Y-86494004D01*
X165685228Y-86530500D01*
X165814772Y-86530500D01*
X165939069Y-86494004D01*
X166048049Y-86423967D01*
X166132882Y-86326063D01*
X166186697Y-86208226D01*
X166205133Y-86080000D01*
X166186697Y-85951774D01*
X166132882Y-85833937D01*
X166048049Y-85736033D01*
X165981032Y-85692964D01*
X165939068Y-85665995D01*
X165814772Y-85629500D01*
X165685228Y-85629500D01*
X165560931Y-85665995D01*
X165451954Y-85736031D01*
X165451950Y-85736034D01*
X165367119Y-85833935D01*
X165313302Y-85951776D01*
X165294867Y-86080000D01*
X136155429Y-86080000D01*
X136155429Y-86079996D01*
X136135757Y-85867696D01*
X136135756Y-85867690D01*
X136098296Y-85736034D01*
X136077405Y-85662611D01*
X135982366Y-85471745D01*
X135853872Y-85301593D01*
X135696302Y-85157948D01*
X135515019Y-85045702D01*
X135316198Y-84968679D01*
X135224150Y-84951472D01*
X135106613Y-84929500D01*
X135106610Y-84929500D01*
X134893390Y-84929500D01*
X134893386Y-84929500D01*
X134736670Y-84958796D01*
X134683802Y-84968679D01*
X134683800Y-84968679D01*
X134683798Y-84968680D01*
X134484986Y-85045700D01*
X134484981Y-85045702D01*
X134484976Y-85045704D01*
X134484976Y-85045705D01*
X134303700Y-85157946D01*
X134146130Y-85301590D01*
X134017636Y-85471741D01*
X134017632Y-85471747D01*
X133922596Y-85662606D01*
X133922593Y-85662616D01*
X133864243Y-85867690D01*
X133864242Y-85867696D01*
X133844571Y-86079996D01*
X128300500Y-86079996D01*
X128300500Y-83539996D01*
X133844571Y-83539996D01*
X133844571Y-83540003D01*
X133864242Y-83752303D01*
X133864243Y-83752309D01*
X133922593Y-83957383D01*
X133922596Y-83957393D01*
X134017632Y-84148252D01*
X134017634Y-84148255D01*
X134146128Y-84318407D01*
X134303698Y-84462052D01*
X134484981Y-84574298D01*
X134683802Y-84651321D01*
X134893390Y-84690500D01*
X135106610Y-84690500D01*
X135316198Y-84651321D01*
X135515019Y-84574298D01*
X135696302Y-84462052D01*
X135853872Y-84318407D01*
X135982366Y-84148255D01*
X136077405Y-83957389D01*
X136135756Y-83752310D01*
X136143847Y-83665000D01*
X136155429Y-83540003D01*
X136155429Y-83539996D01*
X136143847Y-83414999D01*
X169756160Y-83414999D01*
X169756161Y-83415000D01*
X170515856Y-83415000D01*
X170500000Y-83474174D01*
X170500000Y-83605826D01*
X170515856Y-83665000D01*
X169756161Y-83665000D01*
X169764287Y-83757885D01*
X169764288Y-83757893D01*
X169820895Y-83969153D01*
X169913334Y-84167388D01*
X170038785Y-84346551D01*
X170193448Y-84501214D01*
X170372611Y-84626665D01*
X170570846Y-84719104D01*
X170782106Y-84775711D01*
X170782113Y-84775712D01*
X170879750Y-84784254D01*
X170929988Y-84810405D01*
X170947019Y-84864421D01*
X170920868Y-84914659D01*
X170886899Y-84930712D01*
X170715095Y-84962829D01*
X170683802Y-84968679D01*
X170683800Y-84968679D01*
X170683798Y-84968680D01*
X170484986Y-85045700D01*
X170484981Y-85045702D01*
X170484976Y-85045704D01*
X170484976Y-85045705D01*
X170303700Y-85157946D01*
X170146130Y-85301590D01*
X170017636Y-85471741D01*
X170017632Y-85471747D01*
X169922596Y-85662606D01*
X169922593Y-85662616D01*
X169864243Y-85867690D01*
X169864242Y-85867696D01*
X169844571Y-86079996D01*
X169844571Y-86080003D01*
X169864242Y-86292303D01*
X169864243Y-86292309D01*
X169922593Y-86497383D01*
X169922596Y-86497393D01*
X170017632Y-86688252D01*
X170017634Y-86688255D01*
X170146128Y-86858407D01*
X170303698Y-87002052D01*
X170484981Y-87114298D01*
X170683802Y-87191321D01*
X170893390Y-87230500D01*
X171106610Y-87230500D01*
X171316198Y-87191321D01*
X171515019Y-87114298D01*
X171696302Y-87002052D01*
X171853872Y-86858407D01*
X171982366Y-86688255D01*
X172077405Y-86497389D01*
X172135756Y-86292310D01*
X172143548Y-86208226D01*
X172155429Y-86080003D01*
X172155429Y-86079996D01*
X172135757Y-85867696D01*
X172135756Y-85867690D01*
X172098296Y-85736034D01*
X172077405Y-85662611D01*
X171982366Y-85471745D01*
X171853872Y-85301593D01*
X171696302Y-85157948D01*
X171515019Y-85045702D01*
X171316198Y-84968679D01*
X171261711Y-84958493D01*
X171113100Y-84930712D01*
X171065648Y-84899792D01*
X171053958Y-84844374D01*
X171084878Y-84796922D01*
X171120249Y-84784254D01*
X171217886Y-84775712D01*
X171217893Y-84775711D01*
X171429153Y-84719104D01*
X171627388Y-84626665D01*
X171806551Y-84501214D01*
X171961214Y-84346551D01*
X172086665Y-84167388D01*
X172179104Y-83969153D01*
X172235711Y-83757893D01*
X172235712Y-83757885D01*
X172243839Y-83665000D01*
X171484144Y-83665000D01*
X171500000Y-83605826D01*
X171500000Y-83474174D01*
X171484144Y-83415000D01*
X172243839Y-83415000D01*
X172243839Y-83414999D01*
X172235712Y-83322114D01*
X172235711Y-83322106D01*
X172179105Y-83110849D01*
X172179100Y-83110838D01*
X172086665Y-82912612D01*
X171961212Y-82733445D01*
X171806551Y-82578785D01*
X171806552Y-82578785D01*
X171627388Y-82453334D01*
X171429153Y-82360895D01*
X171217893Y-82304288D01*
X171217886Y-82304287D01*
X171148508Y-82298217D01*
X171098270Y-82272065D01*
X171081240Y-82218049D01*
X171107392Y-82167811D01*
X171154956Y-82150499D01*
X171894864Y-82150499D01*
X171919991Y-82147585D01*
X172022765Y-82102206D01*
X172102206Y-82022765D01*
X172147585Y-81919991D01*
X172150500Y-81894865D01*
X172150499Y-80105136D01*
X172147585Y-80080009D01*
X172102206Y-79977235D01*
X172022765Y-79897794D01*
X171919991Y-79852415D01*
X171919990Y-79852414D01*
X171919988Y-79852414D01*
X171898659Y-79849940D01*
X171894865Y-79849500D01*
X171894864Y-79849500D01*
X170105136Y-79849500D01*
X170080013Y-79852414D01*
X170080007Y-79852415D01*
X169977234Y-79897794D01*
X169897794Y-79977234D01*
X169852414Y-80080011D01*
X169849500Y-80105135D01*
X169849500Y-81894863D01*
X169852414Y-81919986D01*
X169852415Y-81919991D01*
X169897794Y-82022765D01*
X169977235Y-82102206D01*
X170080009Y-82147585D01*
X170105135Y-82150500D01*
X170845040Y-82150499D01*
X170897365Y-82172173D01*
X170919039Y-82224499D01*
X170897365Y-82276825D01*
X170851489Y-82298217D01*
X170782113Y-82304287D01*
X170782106Y-82304288D01*
X170570849Y-82360894D01*
X170570838Y-82360899D01*
X170372612Y-82453334D01*
X170193445Y-82578787D01*
X170038787Y-82733445D01*
X169913334Y-82912612D01*
X169820899Y-83110838D01*
X169820894Y-83110849D01*
X169764288Y-83322106D01*
X169764287Y-83322114D01*
X169756160Y-83414999D01*
X136143847Y-83414999D01*
X136135757Y-83327696D01*
X136135756Y-83327690D01*
X136108812Y-83232993D01*
X136077405Y-83122611D01*
X136071548Y-83110849D01*
X135982367Y-82931747D01*
X135982363Y-82931741D01*
X135893423Y-82813967D01*
X135853872Y-82761593D01*
X135696302Y-82617948D01*
X135515019Y-82505702D01*
X135422861Y-82470000D01*
X154244867Y-82470000D01*
X154263302Y-82598223D01*
X154263302Y-82598224D01*
X154263303Y-82598226D01*
X154317118Y-82716063D01*
X154401951Y-82813967D01*
X154510931Y-82884004D01*
X154635228Y-82920500D01*
X154764772Y-82920500D01*
X154889069Y-82884004D01*
X154998049Y-82813967D01*
X155082882Y-82716063D01*
X155136697Y-82598226D01*
X155155133Y-82470000D01*
X155136697Y-82341774D01*
X155082882Y-82223937D01*
X154998049Y-82126033D01*
X154931032Y-82082964D01*
X154889068Y-82055995D01*
X154764772Y-82019500D01*
X154635228Y-82019500D01*
X154510931Y-82055995D01*
X154401954Y-82126031D01*
X154401950Y-82126034D01*
X154317119Y-82223935D01*
X154263302Y-82341776D01*
X154244867Y-82470000D01*
X135422861Y-82470000D01*
X135316198Y-82428679D01*
X135224150Y-82411472D01*
X135106613Y-82389500D01*
X135106610Y-82389500D01*
X134893390Y-82389500D01*
X134893386Y-82389500D01*
X134736670Y-82418796D01*
X134683802Y-82428679D01*
X134683800Y-82428679D01*
X134683798Y-82428680D01*
X134577139Y-82470000D01*
X134484981Y-82505702D01*
X134484976Y-82505704D01*
X134484976Y-82505705D01*
X134303700Y-82617946D01*
X134146130Y-82761590D01*
X134017636Y-82931741D01*
X134017632Y-82931747D01*
X133922596Y-83122606D01*
X133922593Y-83122616D01*
X133864243Y-83327690D01*
X133864242Y-83327696D01*
X133844571Y-83539996D01*
X128300500Y-83539996D01*
X128300500Y-80105135D01*
X133849500Y-80105135D01*
X133849500Y-81894863D01*
X133852414Y-81919986D01*
X133852415Y-81919991D01*
X133897794Y-82022765D01*
X133977235Y-82102206D01*
X134080009Y-82147585D01*
X134105135Y-82150500D01*
X135894864Y-82150499D01*
X135919991Y-82147585D01*
X136022765Y-82102206D01*
X136102206Y-82022765D01*
X136147585Y-81919991D01*
X136150500Y-81894865D01*
X136150499Y-80105136D01*
X136147585Y-80080009D01*
X136102206Y-79977235D01*
X136022765Y-79897794D01*
X135919991Y-79852415D01*
X135919990Y-79852414D01*
X135919988Y-79852414D01*
X135898659Y-79849940D01*
X135894865Y-79849500D01*
X135894864Y-79849500D01*
X134105136Y-79849500D01*
X134080013Y-79852414D01*
X134080007Y-79852415D01*
X133977234Y-79897794D01*
X133897794Y-79977234D01*
X133852414Y-80080011D01*
X133849500Y-80105135D01*
X128300500Y-80105135D01*
X128300500Y-77507646D01*
X128322174Y-77455320D01*
X128374500Y-77433646D01*
X128426826Y-77455320D01*
X128447288Y-77494307D01*
X128470938Y-77623363D01*
X128564514Y-77923656D01*
X128693604Y-78210483D01*
X128693609Y-78210492D01*
X128856331Y-78479668D01*
X129050315Y-78727270D01*
X129073134Y-78750089D01*
X130138097Y-77685125D01*
X130160967Y-77716602D01*
X130283398Y-77839033D01*
X130314874Y-77861901D01*
X129249910Y-78926865D01*
X129272729Y-78949684D01*
X129520331Y-79143668D01*
X129789507Y-79306390D01*
X129789516Y-79306395D01*
X130076343Y-79435485D01*
X130376636Y-79529061D01*
X130686033Y-79585760D01*
X131000000Y-79604751D01*
X131313966Y-79585760D01*
X131623363Y-79529061D01*
X131923656Y-79435485D01*
X132210483Y-79306395D01*
X132210492Y-79306390D01*
X132479671Y-79143666D01*
X132479675Y-79143663D01*
X132727266Y-78949688D01*
X132750088Y-78926864D01*
X131685125Y-77861901D01*
X131716602Y-77839033D01*
X131839033Y-77716602D01*
X131861901Y-77685125D01*
X132926864Y-78750088D01*
X132949688Y-78727266D01*
X133041543Y-78610022D01*
X155579500Y-78610022D01*
X155579500Y-78749977D01*
X155606802Y-78887238D01*
X155606805Y-78887249D01*
X155660362Y-79016547D01*
X155660363Y-79016548D01*
X155738118Y-79132917D01*
X155837083Y-79231882D01*
X155953452Y-79309637D01*
X156082755Y-79363196D01*
X156220022Y-79390500D01*
X156220023Y-79390500D01*
X156359977Y-79390500D01*
X156359978Y-79390500D01*
X156497245Y-79363196D01*
X156626548Y-79309637D01*
X156742917Y-79231882D01*
X156841882Y-79132917D01*
X156919637Y-79016548D01*
X156973196Y-78887245D01*
X157000500Y-78749978D01*
X157000500Y-78610022D01*
X158579500Y-78610022D01*
X158579500Y-78749977D01*
X158606802Y-78887238D01*
X158606805Y-78887249D01*
X158660362Y-79016547D01*
X158660363Y-79016548D01*
X158738118Y-79132917D01*
X158837083Y-79231882D01*
X158953452Y-79309637D01*
X159082755Y-79363196D01*
X159220022Y-79390500D01*
X159220023Y-79390500D01*
X159359977Y-79390500D01*
X159359978Y-79390500D01*
X159497245Y-79363196D01*
X159626548Y-79309637D01*
X159742917Y-79231882D01*
X159841882Y-79132917D01*
X159919637Y-79016548D01*
X159973196Y-78887245D01*
X160000500Y-78749978D01*
X160000500Y-78610022D01*
X159973196Y-78472755D01*
X159919637Y-78343452D01*
X159841882Y-78227083D01*
X159742917Y-78128118D01*
X159700836Y-78100000D01*
X159626547Y-78050362D01*
X159497249Y-77996805D01*
X159497238Y-77996802D01*
X159393829Y-77976233D01*
X159359978Y-77969500D01*
X159220022Y-77969500D01*
X159192867Y-77974901D01*
X159082761Y-77996802D01*
X159082750Y-77996805D01*
X158953452Y-78050362D01*
X158837083Y-78128117D01*
X158837082Y-78128119D01*
X158738119Y-78227082D01*
X158738117Y-78227083D01*
X158660362Y-78343452D01*
X158606805Y-78472750D01*
X158606802Y-78472761D01*
X158579500Y-78610022D01*
X157000500Y-78610022D01*
X156973196Y-78472755D01*
X156919637Y-78343452D01*
X156841882Y-78227083D01*
X156742917Y-78128118D01*
X156700836Y-78100000D01*
X156626547Y-78050362D01*
X156497249Y-77996805D01*
X156497238Y-77996802D01*
X156393829Y-77976233D01*
X156359978Y-77969500D01*
X156220022Y-77969500D01*
X156192867Y-77974901D01*
X156082761Y-77996802D01*
X156082750Y-77996805D01*
X155953452Y-78050362D01*
X155837083Y-78128117D01*
X155837082Y-78128119D01*
X155738119Y-78227082D01*
X155738117Y-78227083D01*
X155660362Y-78343452D01*
X155606805Y-78472750D01*
X155606802Y-78472761D01*
X155579500Y-78610022D01*
X133041543Y-78610022D01*
X133143663Y-78479675D01*
X133143666Y-78479671D01*
X133306390Y-78210492D01*
X133306395Y-78210483D01*
X133435485Y-77923656D01*
X133529061Y-77623363D01*
X133585760Y-77313966D01*
X133604751Y-77000000D01*
X133585760Y-76686033D01*
X133529061Y-76376636D01*
X133435485Y-76076343D01*
X133306395Y-75789516D01*
X133306390Y-75789507D01*
X133143668Y-75520331D01*
X132949684Y-75272729D01*
X132926865Y-75249910D01*
X131861901Y-76314873D01*
X131839033Y-76283398D01*
X131716602Y-76160967D01*
X131685125Y-76138097D01*
X132750089Y-75073134D01*
X132727270Y-75050315D01*
X132479668Y-74856331D01*
X132210492Y-74693609D01*
X132210483Y-74693604D01*
X131923656Y-74564514D01*
X131623363Y-74470938D01*
X131494307Y-74447288D01*
X131446745Y-74416537D01*
X131434858Y-74361161D01*
X131465609Y-74313599D01*
X131507646Y-74300500D01*
X174492354Y-74300500D01*
X174544680Y-74322174D01*
G37*
%TD.AperFunction*%
%TA.AperFunction,Conductor*%
G36*
X177686401Y-128465609D02*
G01*
X177699500Y-128507646D01*
X177699500Y-128997363D01*
X177699311Y-129002642D01*
X177682579Y-129236580D01*
X177681077Y-129247031D01*
X177631782Y-129473636D01*
X177628807Y-129483766D01*
X177547770Y-129701036D01*
X177543384Y-129710641D01*
X177432246Y-129914173D01*
X177426538Y-129923054D01*
X177287567Y-130108698D01*
X177280653Y-130116678D01*
X177116678Y-130280653D01*
X177108698Y-130287567D01*
X176923054Y-130426538D01*
X176914173Y-130432246D01*
X176710641Y-130543384D01*
X176701036Y-130547770D01*
X176483766Y-130628807D01*
X176473636Y-130631782D01*
X176247031Y-130681077D01*
X176236580Y-130682579D01*
X176002643Y-130699311D01*
X175997364Y-130699500D01*
X175507646Y-130699500D01*
X175455320Y-130677826D01*
X175433646Y-130625500D01*
X175455320Y-130573174D01*
X175494307Y-130552712D01*
X175623363Y-130529061D01*
X175923656Y-130435485D01*
X176210483Y-130306395D01*
X176210492Y-130306390D01*
X176479671Y-130143666D01*
X176479675Y-130143663D01*
X176727266Y-129949688D01*
X176750088Y-129926864D01*
X175685125Y-128861901D01*
X175716602Y-128839033D01*
X175839033Y-128716602D01*
X175861901Y-128685125D01*
X176926864Y-129750088D01*
X176949688Y-129727266D01*
X177143663Y-129479675D01*
X177143666Y-129479671D01*
X177306390Y-129210492D01*
X177306395Y-129210483D01*
X177435485Y-128923656D01*
X177529061Y-128623363D01*
X177552712Y-128494307D01*
X177583463Y-128446745D01*
X177638839Y-128434858D01*
X177686401Y-128465609D01*
G37*
%TD.AperFunction*%
%TA.AperFunction,Conductor*%
G36*
X176002642Y-74300688D02*
G01*
X176236581Y-74317420D01*
X176247030Y-74318921D01*
X176473645Y-74368219D01*
X176483757Y-74371189D01*
X176701039Y-74452230D01*
X176710637Y-74456613D01*
X176736871Y-74470938D01*
X176914173Y-74567753D01*
X176923054Y-74573461D01*
X177108698Y-74712432D01*
X177116678Y-74719346D01*
X177280653Y-74883321D01*
X177287567Y-74891301D01*
X177426538Y-75076945D01*
X177432246Y-75085826D01*
X177543384Y-75289358D01*
X177547770Y-75298963D01*
X177628807Y-75516233D01*
X177631782Y-75526363D01*
X177681077Y-75752968D01*
X177682579Y-75763419D01*
X177699311Y-75997357D01*
X177699500Y-76002636D01*
X177699500Y-76492353D01*
X177677826Y-76544679D01*
X177625500Y-76566353D01*
X177573174Y-76544679D01*
X177552712Y-76505692D01*
X177529061Y-76376636D01*
X177435485Y-76076343D01*
X177306395Y-75789516D01*
X177306390Y-75789507D01*
X177143668Y-75520331D01*
X176949684Y-75272729D01*
X176926865Y-75249910D01*
X175861901Y-76314873D01*
X175839033Y-76283398D01*
X175716602Y-76160967D01*
X175685125Y-76138097D01*
X176750089Y-75073134D01*
X176727270Y-75050315D01*
X176479668Y-74856331D01*
X176210492Y-74693609D01*
X176210483Y-74693604D01*
X175923656Y-74564514D01*
X175623363Y-74470938D01*
X175494307Y-74447288D01*
X175446745Y-74416537D01*
X175434858Y-74361161D01*
X175465609Y-74313599D01*
X175507646Y-74300500D01*
X175952405Y-74300500D01*
X175997364Y-74300500D01*
X176002642Y-74300688D01*
G37*
%TD.AperFunction*%
%TA.AperFunction,Conductor*%
G36*
X130544680Y-74322174D02*
G01*
X130566354Y-74374500D01*
X130544680Y-74426826D01*
X130505693Y-74447288D01*
X130376636Y-74470938D01*
X130076343Y-74564514D01*
X129789516Y-74693604D01*
X129789507Y-74693609D01*
X129520331Y-74856331D01*
X129272729Y-75050315D01*
X129249910Y-75073133D01*
X130314874Y-76138097D01*
X130283398Y-76160967D01*
X130160967Y-76283398D01*
X130138097Y-76314874D01*
X129073133Y-75249910D01*
X129050315Y-75272729D01*
X128856331Y-75520331D01*
X128693609Y-75789507D01*
X128693604Y-75789516D01*
X128564514Y-76076343D01*
X128470938Y-76376636D01*
X128447288Y-76505692D01*
X128416537Y-76553254D01*
X128361161Y-76565141D01*
X128313599Y-76534390D01*
X128300500Y-76492353D01*
X128300500Y-76002636D01*
X128300689Y-75997357D01*
X128317420Y-75763419D01*
X128318922Y-75752968D01*
X128368220Y-75526350D01*
X128371187Y-75516246D01*
X128452232Y-75298955D01*
X128456610Y-75289367D01*
X128567757Y-75085819D01*
X128573461Y-75076945D01*
X128712432Y-74891301D01*
X128719339Y-74883328D01*
X128883328Y-74719339D01*
X128891301Y-74712432D01*
X128916453Y-74693604D01*
X129076945Y-74573460D01*
X129085819Y-74567757D01*
X129289367Y-74456610D01*
X129298955Y-74452232D01*
X129516246Y-74371187D01*
X129526350Y-74368220D01*
X129752971Y-74318921D01*
X129763416Y-74317420D01*
X129997357Y-74300688D01*
X130002636Y-74300500D01*
X130047595Y-74300500D01*
X130492354Y-74300500D01*
X130544680Y-74322174D01*
G37*
%TD.AperFunction*%
%TD*%
D21*
X130000000Y-74000000D02*
X176000000Y-74000000D01*
X176000000Y-131000000D02*
X130000000Y-131000000D01*
X128000000Y-129000000D02*
X128000000Y-76000000D01*
X176000000Y-74000000D02*
G75*
G02*
X178000000Y-76000000I0J-2000000D01*
G01*
X128000000Y-76000000D02*
G75*
G02*
X130000000Y-74000000I2000000J0D01*
G01*
X178000000Y-129000000D02*
G75*
G02*
X176000000Y-131000000I-2000000J0D01*
G01*
X178000000Y-76000000D02*
X178000000Y-129000000D01*
X130000000Y-131000000D02*
G75*
G02*
X128000000Y-129000000I0J2000000D01*
G01*
M02*
