M48
; DRILL file {KiCad 8.0.7} date 2024-12-15T23:33:09+0100
; FORMAT={-:-/ absolute / metric / decimal}
; #@! TF.CreationDate,2024-12-15T23:33:09+01:00
; #@! TF.GenerationSoftware,Kicad,Pcbnew,8.0.7
; #@! TF.FileFunction,Plated,1,4,PTH
FMAT,2
METRIC
; #@! TA.AperFunction,Plated,PTH,ViaDrill
T1C0.300
; #@! TA.AperFunction,Plated,PTH,ViaDrill
T2C0.400
; #@! TA.AperFunction,Plated,PTH,ComponentDrill
T3C0.400
; #@! TA.AperFunction,Plated,PTH,ComponentDrill
T4C0.550
; #@! TA.AperFunction,Plated,PTH,ComponentDrill
T5C0.850
; #@! TA.AperFunction,Plated,PTH,ComponentDrill
T6C1.000
; #@! TA.AperFunction,Plated,PTH,ComponentDrill
T7C2.200
%
G90
G05
T1
X1.0Y51.0
X1.0Y46.5
X1.0Y43.25
X1.0Y39.0
X1.0Y35.75
X1.0Y31.0
X1.0Y28.0
X1.0Y23.75
X1.0Y20.0
X1.0Y16.0
X1.0Y12.0
X1.0Y8.0
X6.475Y3.975
X8.0Y56.0
X8.0Y1.0
X9.5Y28.5
X9.5Y14.75
X9.75Y45.5
X9.75Y7.5
X9.956Y32.055
X9.975Y38.525
X10.0Y42.0
X10.0Y35.65
X10.0Y10.25
X10.5Y26.75
X10.75Y17.75
X11.19Y21.65
X11.2Y22.63
X11.25Y3.975
X11.425Y24.425
X12.0Y40.0
X12.0Y30.0
X12.0Y19.75
X12.0Y56.0
X12.0Y52.0
X12.0Y1.0
X12.025Y33.575
X12.25Y48.25
X12.25Y46.5
X12.525Y36.025
X12.75Y42.5
X14.25Y24.5
X14.5Y44.25
X14.75Y33.575
X15.0Y39.0
X16.0Y56.0
X16.0Y52.0
X16.0Y48.0
X16.0Y1.0
X16.025Y35.95
X16.25Y32.275
X16.25Y18.25
X16.25Y13.5
X16.3Y4.59
X16.5Y45.5
X16.9Y9.03
X16.91Y7.97
X17.8Y37.1
X17.85Y6.475
X18.064Y30.698
X18.22Y25.01
X18.23Y2.3
X18.25Y25.98
X18.5Y20.5
X18.6Y29.975
X18.75Y17.25
X19.0Y41.0
X19.03Y36.98
X19.06Y35.16
X19.3Y4.65
X19.55Y33.78
X19.65Y31.325
X19.9Y38.925
X20.0Y56.0
X20.0Y52.0
X20.0Y48.0
X20.0Y44.0
X20.0Y1.0
X20.41Y8.65
X20.5Y19.5
X20.505Y31.605
X21.14Y33.76
X21.275Y15.6
X21.49Y8.66
X22.0Y40.0
X22.0Y38.0
X22.69Y30.6
X22.749Y26.931
X22.955Y26.055
X23.0Y20.75
X23.0Y13.75
X23.137Y29.819
X23.238Y28.212
X23.38Y39.59
X23.65Y17.2
X23.65Y15.6
X23.699Y28.985
X23.75Y18.8
X23.99Y34.91
X24.0Y56.0
X24.0Y52.0
X24.0Y48.0
X24.0Y44.0
X24.0Y42.0
X24.0Y1.0
X24.25Y26.125
X24.75Y30.025
X24.75Y20.25
X24.81Y26.836
X24.93Y8.43
X25.27Y35.65
X25.41Y26.165
X25.56Y29.633
X25.91Y16.37
X25.95Y17.7
X26.0Y42.0
X26.13Y30.33
X26.31Y7.22
X26.7Y48.53
X26.75Y18.85
X27.024Y30.433
X27.03Y27.025
X27.18Y14.77
X27.2Y21.21
X27.325Y26.175
X27.5Y12.85
X27.5Y11.25
X27.5Y9.25
X27.56Y29.71
X27.625Y27.7
X27.825Y18.7
X28.0Y56.0
X28.0Y44.0
X28.0Y1.0
X28.151Y41.931
X28.17Y21.19
X28.23Y36.47
X28.34Y37.89
X29.0Y40.0
X29.01Y33.36
X29.05Y41.9
X30.15Y34.41
X30.2Y8.33
X30.925Y25.275
X31.0Y56.0
X31.0Y1.0
X31.0Y32.45
X31.407Y24.515
X31.76Y30.22
X31.8Y39.15
X31.84Y31.2
X31.9Y20.85
X32.0Y44.0
X32.0Y37.0
X32.04Y49.1
X32.65Y14.05
X32.7Y18.65
X33.25Y26.75
X34.0Y21.75
X34.02Y34.72
X34.02Y33.53
X34.25Y39.0
X34.35Y41.25
X34.5Y24.25
X34.75Y15.5
X35.0Y52.0
X35.0Y48.0
X35.0Y45.0
X35.0Y37.0
X35.0Y30.5
X35.0Y56.0
X35.0Y1.0
X35.55Y18.3
X36.0Y34.0
X36.1Y14.25
X36.4Y38.75
X36.55Y8.78
X36.75Y28.5
X36.95Y22.75
X37.75Y44.92
X37.75Y25.5
X38.0Y41.0
X38.0Y39.0
X38.0Y36.0
X38.0Y31.0
X38.237Y44.163
X38.5Y16.9
X38.75Y5.5
X38.9Y20.85
X38.9Y13.45
X39.0Y52.0
X39.0Y48.0
X39.0Y56.0
X39.0Y1.0
X39.25Y9.75
X39.5Y34.02
X39.5Y32.921
X39.5Y31.1
X40.0Y28.5
X40.113Y30.441
X40.15Y15.1
X40.25Y23.5
X40.25Y18.25
X40.25Y7.5
X43.0Y56.0
X43.0Y52.0
X43.0Y1.0
X49.0Y51.0
X49.0Y47.0
X49.0Y43.5
X49.0Y39.0
X49.0Y35.0
X49.0Y31.0
X49.0Y28.25
X49.0Y24.0
X49.0Y20.5
X49.0Y16.0
X49.0Y12.75
X49.0Y8.0
T2
X13.88Y9.26
X13.9Y12.21
X13.91Y7.33
X16.92Y11.32
X16.92Y10.31
T3
X1.35Y54.0
X1.35Y3.0
X1.833Y55.167
X1.833Y52.833
X1.833Y4.167
X1.833Y1.833
X3.0Y55.65
X3.0Y52.35
X3.0Y4.65
X3.0Y1.35
X4.167Y55.167
X4.167Y52.833
X4.167Y4.167
X4.167Y1.833
X4.65Y54.0
X4.65Y3.0
X45.35Y54.0
X45.35Y3.0
X45.833Y55.167
X45.833Y52.833
X45.833Y4.167
X45.833Y1.833
X47.0Y55.65
X47.0Y52.35
X47.0Y4.65
X47.0Y1.35
X48.167Y55.167
X48.167Y52.833
X48.167Y4.167
X48.167Y1.833
X48.65Y54.0
X48.65Y3.0
T6
X7.0Y50.0
X7.0Y47.46
X7.0Y44.92
X7.0Y42.38
X7.0Y39.84
X7.0Y37.3
X7.0Y34.76
X7.0Y32.22
X7.0Y29.68
X7.0Y27.14
X7.0Y24.6
X7.0Y22.06
X7.0Y19.52
X7.0Y16.98
X7.0Y14.44
X7.0Y11.9
X7.0Y9.36
X7.0Y6.82
X43.0Y50.0
X43.0Y47.46
X43.0Y44.92
X43.0Y42.38
X43.0Y39.84
X43.0Y37.3
X43.0Y34.76
X43.0Y32.22
X43.0Y29.68
X43.0Y27.14
X43.0Y24.6
X43.0Y22.06
X43.0Y19.52
X43.0Y16.98
X43.0Y14.44
X43.0Y11.9
X43.0Y9.36
X43.0Y6.82
T7
X3.0Y54.0
X3.0Y3.0
X47.0Y54.0
X47.0Y3.0
T4
G00X21.125Y2.375
M15
G01X21.125Y1.725
M16
G05
G00X28.875Y2.375
M15
G01X28.875Y1.725
M16
G05
T5
G00X21.275Y6.125
M15
G01X21.275Y5.575
M16
G05
G00X28.725Y6.125
M15
G01X28.725Y5.575
M16
G05
M30
